<?xml version="1.0" standalone="no"?>
<!DOCTYPE svg PUBLIC "-//W3C//DTD SVG 1.1//EN" "http://www.w3.org/Graphics/SVG/1.1/DTD/svg11.dtd" >
<svg>
<metadata>
Created by FontForge 20120731 at Tue Nov 19 20:02:38 2013
 By root
Copyright (c) 2008 by Neil Summerour. All rights reserved.
</metadata>
<defs>
<font id="AauxNext-Regular" horiz-adv-x="1042" >
  <font-face 
    font-family="Aaux Next Regular"
    font-weight="400"
    font-stretch="normal"
    units-per-em="2048"
    panose-1="2 0 5 6 0 0 0 2 0 3"
    ascent="1638"
    descent="-410"
    x-height="989"
    cap-height="1430"
    bbox="-215 -524 1954 2091"
    underline-thickness="102"
    underline-position="-102"
    unicode-range="U+000D-FB04"
  />
<missing-glyph horiz-adv-x="748" 
d="M68 0v1365h544v-1365h-544zM136 68h408v1229h-408v-1229z" />
    <glyph glyph-name="uniFB00" unicode="ff" horiz-adv-x="1183" 
d="M102 883v106h105v78q0 72 16.5 135.5t56 111.5t109.5 78.5t176 37.5v-103q-137 -10 -189 -79.5t-52 -205.5v-53h454v78q0 72 16.5 135.5t56.5 111.5t109.5 78.5t176.5 37.5v-103q-137 -10 -189.5 -79.5t-52.5 -205.5v-53h211v-106h-211v-883h-117v883h-454v-883h-117v883
h-105z" />
    <glyph glyph-name="uniFB02" unicode="fl" horiz-adv-x="1058" 
d="M102 883v106h105v78q0 72 16.5 137.5t57.5 115.5t109.5 80t174.5 30h301v-1194q0 -47 24.5 -84t96.5 -46v-104q-238 8 -237 234v1091h-185q-137 0 -189 -74.5t-52 -210.5v-53h211v-106h-211v-883h-117v883h-105z" />
    <glyph glyph-name="uniFB03" unicode="ffi" horiz-adv-x="1636" 
d="M102 883v106h105v78q0 72 16.5 135.5t56 111.5t109.5 78.5t176 37.5v-103q-137 -10 -189 -79.5t-52 -205.5v-53h454v78q0 72 16.5 135.5t56.5 111.5t109.5 78.5t176.5 37.5v-103q-137 -10 -189.5 -79.5t-52.5 -205.5v-53h575v-989h-120v883h-455v-883h-117v883h-454v-883
h-117v883h-105zM1317 1354q0 39 27.5 65.5t66.5 26.5t66.5 -26.5t27.5 -65.5t-27.5 -66.5t-66.5 -27.5t-66.5 27.5t-27.5 66.5z" />
    <glyph glyph-name="uniFB04" unicode="ffl" horiz-adv-x="1632" 
d="M102 883v106h105v78q0 72 16.5 135.5t56 111.5t109.5 79t176 37v-103q-137 -10 -189 -79.5t-52 -205.5v-53h454v78q0 72 16.5 137.5t57.5 115.5t109.5 80t175.5 30h301v-1194q0 -47 24.5 -84t96.5 -46l2 -104q-240 8 -240 234v1091h-184q-137 0 -189.5 -74.5
t-52.5 -210.5v-53h211v-106h-211v-883h-117v883h-454v-883h-117v883h-105z" />
    <glyph glyph-name=".notdef" horiz-adv-x="748" 
d="M68 0v1365h544v-1365h-544zM136 68h408v1229h-408v-1229z" />
    <glyph glyph-name="glyph1" horiz-adv-x="2048" 
 />
    <glyph glyph-name="glyph1" horiz-adv-x="2048" 
 />
    <glyph glyph-name="uni000D" unicode="&#xd;" horiz-adv-x="571" 
 />
    <glyph glyph-name="space" unicode=" " horiz-adv-x="571" 
 />
    <glyph glyph-name="exclam" unicode="!" horiz-adv-x="604" 
d="M203 82q0 41 29.5 69.5t70.5 28.5t69.5 -28.5t28.5 -69.5t-28.5 -70.5t-69.5 -29.5t-70.5 29.5t-29.5 70.5zM229 768v662h144v-662l-23 -383h-96z" />
    <glyph glyph-name="quotedbl" unicode="&#x22;" horiz-adv-x="747" 
d="M137 1106v328q0 29 21.5 50t50.5 21t49.5 -21.5t20.5 -49.5v-328h-142zM469 1106v328q0 29 20.5 50t49.5 21t50 -21.5t21 -49.5v-328h-141z" />
    <glyph glyph-name="numbersign" unicode="#" horiz-adv-x="1437" 
d="M115 434l22 105h258l76 352h-258l23 104h258l94 435h108l-94 -435h354l93 435h108l-92 -435h258l-23 -104h-260l-75 -352h260l-23 -105h-258l-94 -434h-109l95 434h-355l-94 -434h-106l92 434h-258zM504 539h354l76 352h-354z" />
    <glyph glyph-name="dollar" unicode="$" horiz-adv-x="1071" 
d="M102 414l105 24q14 -53 43 -91t67.5 -63.5t83.5 -39t95 -19.5v486q-68 16 -132.5 36.5t-113.5 54.5t-80 84t-31 128q0 76 31 131t81 92t114.5 55.5t130.5 22.5v115h106v-115q98 -10 180 -56.5t138 -138.5l-84 -59q-43 70 -102.5 102.5t-131.5 42.5v-409q70 -18 137.5 -42
t119.5 -62t84 -94t32 -138q0 -80 -31 -141.5t-83 -104.5t-119.5 -68.5t-139.5 -31.5v-115h-106v117q-137 10 -245 81.5t-149 215.5zM250 1014q0 -47 20.5 -78t54 -52.5t79 -35.5t92.5 -27v385q-43 -2 -87 -12t-79 -33.5t-57.5 -59.5t-22.5 -87zM602 223q49 4 96 20.5t84 46
t59.5 72t22.5 97.5t-22.5 92t-59.5 61.5t-84 41t-96 28.5v-459z" />
    <glyph glyph-name="percent" unicode="%" horiz-adv-x="1644" 
d="M115 1053q0 74 15 145.5t50 126.5t91.5 90t140.5 35q82 0 139 -34t91 -90t49.5 -127.5t15.5 -145.5t-15.5 -145.5t-49.5 -128t-91 -90.5t-139 -34q-84 0 -140.5 34t-91.5 90.5t-50 128t-15 145.5zM215 1053q0 -45 6 -98.5t27.5 -98.5t59.5 -74.5t104 -29.5q63 0 102 29.5
t59.5 74.5t26.5 98.5t6 98.5t-6 98t-26.5 98t-59.5 75t-102 30q-66 0 -104 -30t-59.5 -75t-27.5 -98t-6 -98zM446 0l631 1430h121l-631 -1430h-121zM936 377q0 74 15.5 145.5t50 128t91 90t140.5 33.5t140.5 -33.5t91 -90t50 -128t15.5 -145.5t-15.5 -145.5t-50 -128
t-91 -90t-140.5 -33.5t-140.5 33.5t-91 90t-50 128t-15.5 145.5zM1036 377q0 -45 7.5 -97.5t28 -97.5t59 -74.5t102.5 -29.5q63 0 102 29.5t60.5 74.5t28 97.5t6.5 97.5t-6.5 97t-28 97t-60.5 75t-102 30t-102 -30t-59.5 -75t-28 -97t-7.5 -97z" />
    <glyph glyph-name="ampersand" unicode="&#x26;" horiz-adv-x="1368" 
d="M106 371q0 76 18.5 137t54.5 112.5t89.5 96.5t124.5 88q-61 90 -102 170t-41 172q0 66 22.5 121t62.5 94t94 60.5t120 21.5q133 0 213 -80t80 -209q0 -66 -22.5 -119t-60.5 -98t-90.5 -85t-113.5 -77q98 -129 196.5 -240.5t217.5 -224.5q57 86 77.5 168t22.5 166h121
q-4 -111 -32 -216t-99 -204q41 -37 86 -76.5t84 -72.5l-76 -86q-35 29 -81 67.5t-89 77.5q-92 -86 -202.5 -120.5t-227.5 -34.5q-92 0 -173 25.5t-141.5 74.5t-96.5 121.5t-36 169.5zM233 373q0 -70 29 -122t76 -88t106.5 -53.5t120.5 -17.5q86 0 172 30.5t162 100.5
q-125 117 -230.5 236t-205.5 254q-53 -35 -96 -68t-73 -73t-45.5 -88t-15.5 -111zM369 1149q0 -76 36.5 -148.5t88.5 -138.5q43 27 82.5 56.5t72.5 64.5t52.5 77t19.5 95q0 76 -46 126t-126 50q-82 0 -131 -52t-49 -130z" />
    <glyph glyph-name="quotesingle" unicode="'" horiz-adv-x="442" 
d="M150 1106v328q0 29 20 50t49 21t50.5 -21.5t21.5 -49.5v-328h-141z" />
    <glyph glyph-name="parenleft" unicode="(" horiz-adv-x="698" 
d="M145 715q0 94 20.5 192.5t60.5 191.5t99.5 177t135.5 154h135q-84 -72 -146.5 -159t-103.5 -181.5t-62.5 -189.5t-21.5 -185t20.5 -184.5t61.5 -187.5t104.5 -181t147.5 -162h-135q-78 68 -136.5 153t-98.5 178t-60.5 190.5t-20.5 193.5z" />
    <glyph glyph-name="parenright" unicode=")" horiz-adv-x="698" 
d="M145 0q84 74 146.5 162t104.5 181t62.5 187.5t20.5 184.5t-20.5 185t-62.5 189.5t-104.5 181.5t-146.5 159h138q76 -70 134 -154t98 -177t60.5 -191.5t20.5 -192.5q0 -96 -20.5 -193.5t-60.5 -190.5t-98.5 -178t-133.5 -153h-138z" />
    <glyph glyph-name="asterisk" unicode="*" horiz-adv-x="907" 
d="M100 1149l31 98l281 -100l-9 295h101l-8 -295l280 100l31 -98l-285 -84l183 -236l-84 -59l-168 246l-166 -246l-84 59l182 236z" />
    <glyph glyph-name="plus" unicode="+" horiz-adv-x="1036" 
d="M96 504v114h365v365h117v-365h364v-114h-364v-367h-117v367h-365z" />
    <glyph glyph-name="comma" unicode="," horiz-adv-x="393" 
d="M113 86q0 41 26.5 68.5t61.5 27.5q41 0 68.5 -27.5t27.5 -68.5v-86l-133 -252h-51v338z" />
    <glyph glyph-name="hyphen" unicode="-" horiz-adv-x="811" 
d="M131 506v104h551v-104h-551z" />
    <glyph glyph-name="period" unicode="." horiz-adv-x="503" 
d="M152 86q0 41 28.5 70.5t69.5 29.5q43 0 72.5 -29.5t29.5 -70.5t-29.5 -70.5t-72.5 -29.5q-41 0 -69.5 29.5t-28.5 70.5z" />
    <glyph glyph-name="slash" unicode="/" horiz-adv-x="856" 
d="M37 -156l661 1741h121l-661 -1741h-121z" />
    <glyph glyph-name="zero" unicode="0" horiz-adv-x="1177" 
d="M102 715q0 123 21.5 252t77 234.5t149.5 174t240 68.5q143 0 237.5 -68.5t149.5 -174t76.5 -234.5t21.5 -250t-21.5 -251t-76.5 -236.5t-149.5 -175t-237.5 -68.5q-145 0 -239.5 68.5t-150 175t-77 235.5t-21.5 250zM229 715q0 -53 4.5 -120t18.5 -134.5t37.5 -132
t64.5 -113.5t98.5 -80t137.5 -31t137 31t97 80t64.5 113.5t38 132t17.5 134.5t4 120q0 82 -11 186.5t-49 198.5t-108.5 158.5t-189.5 64.5q-121 0 -191.5 -64.5t-108.5 -158.5t-49.5 -198.5t-11.5 -186.5z" />
    <glyph glyph-name="one" unicode="1" horiz-adv-x="757" 
d="M86 1196l322 234h102v-1430h-127v1270l-238 -166z" />
    <glyph glyph-name="two" unicode="2" horiz-adv-x="1128" 
d="M125 0v92q33 154 100.5 261.5t147.5 186t165 137t154.5 115t113.5 120t44 153.5q0 66 -25.5 115t-68.5 81.5t-99.5 49t-115.5 16.5q-94 0 -173 -49t-126 -135l-109 59q137 244 408 244q92 0 172 -24.5t138 -74t92 -121t34 -163.5q0 -106 -43 -182t-110.5 -137.5
t-150.5 -119t-161 -126t-143.5 -158.5t-100.5 -219h744v-121h-887z" />
    <glyph glyph-name="three" unicode="3" horiz-adv-x="1069" 
d="M102 258l115 43q37 -96 119 -146.5t186 -50.5q63 0 121.5 20.5t101.5 59.5t69 94.5t26 122.5q0 78 -27 134.5t-74 91.5t-109.5 52t-133.5 17v99q63 0 119.5 15t98.5 47t66.5 82t24.5 122q0 59 -25.5 108.5t-66.5 85t-95.5 55t-109.5 19.5q-92 0 -169 -49t-114 -133
l-110 45q55 125 159.5 189.5t239.5 64.5q84 0 160 -27.5t132 -78t89 -121t33 -158.5q0 -111 -53.5 -192t-155.5 -121q115 -41 181.5 -130.5t66.5 -216.5q0 -96 -34 -173.5t-94.5 -131t-141.5 -82t-173 -28.5q-147 0 -257.5 65.5t-164.5 206.5z" />
    <glyph glyph-name="four" unicode="4" horiz-adv-x="1120" 
d="M84 365v118l598 947h135l-598 -949h551v545l119 -16v-529h135v-116h-135v-365h-119v365h-686z" />
    <glyph glyph-name="five" unicode="5" horiz-adv-x="1095" 
d="M119 270l117 37q37 -96 114.5 -147t181.5 -51q86 0 151 28.5t106.5 79.5t63 117.5t21.5 144.5q0 74 -20 140.5t-62 116.5t-105.5 79t-149.5 29q-150 0 -265 -105h-116v691h745v-117h-633v-453q76 59 141.5 78.5t131.5 19.5q111 0 196.5 -35.5t144 -99t88 -152
t29.5 -192.5q0 -109 -30.5 -199t-91 -154.5t-147.5 -101t-200 -36.5q-147 0 -254.5 73.5t-156.5 208.5z" />
    <glyph glyph-name="six" unicode="6" horiz-adv-x="1107" 
d="M98 487q0 139 36 273.5t100.5 256.5t155.5 227.5t202 185.5h153q-193 -141 -322.5 -320.5t-182.5 -417.5q53 98 136 148.5t195 50.5q100 0 181.5 -36t138.5 -97.5t89 -145.5t32 -180q0 -98 -34 -180t-93.5 -141.5t-142.5 -92t-181 -32.5q-109 0 -193.5 40t-145 107.5
t-92.5 158.5t-32 195zM229 438q0 -68 27 -128t73 -104t105.5 -70.5t126.5 -26.5q70 0 129.5 25.5t103.5 69.5t68.5 103t24.5 127q0 72 -23.5 133.5t-66.5 107.5t-102.5 72.5t-133.5 26.5q-68 0 -128 -26.5t-105 -72.5t-72 -107.5t-27 -129.5z" />
    <glyph glyph-name="seven" unicode="7" horiz-adv-x="1015" 
d="M76 1190v240h864v-111q-96 -119 -182 -254t-150.5 -296t-101.5 -350.5t-33 -418.5h-137q0 221 36 409.5t98 350.5t147 298t182 253h-611v-121h-112z" />
    <glyph glyph-name="eight" unicode="8" horiz-adv-x="1101" 
d="M96 403q0 115 59.5 211.5t194.5 147.5q-55 20 -94 55t-64.5 77t-38 88t-12.5 89q0 84 33 152.5t88 118t129 76t158 26.5t158.5 -26.5t130 -76t88 -118t32.5 -152.5q0 -43 -11 -88t-35.5 -86t-65.5 -77t-98 -58q139 -53 198.5 -147.5t59.5 -211.5q0 -96 -36 -173.5
t-97.5 -132t-144.5 -84t-179 -29.5t-179 29.5t-143.5 84t-95.5 132t-35 173.5zM223 408q0 -68 26.5 -124.5t72 -95t104.5 -60.5t125 -22t125 22t103 60.5t71 95t27 124.5q0 72 -26 127t-70 93t-104.5 57.5t-127.5 19.5q-68 0 -127.5 -19.5t-103.5 -57.5t-69.5 -93.5
t-25.5 -126.5zM264 1069q0 -63 22.5 -111.5t61.5 -82t90 -51t111 -17.5q59 0 111.5 17.5t90 50t60.5 82t23 112.5q0 57 -24 106.5t-62.5 83t-91 53t-107.5 19.5t-106.5 -19.5t-91.5 -53t-63.5 -83t-23.5 -106.5z" />
    <glyph glyph-name="nine" unicode="9" horiz-adv-x="1081" 
d="M90 995q0 94 33 176t91 143.5t139 96.5t177 35q109 0 193 -40t142.5 -109.5t88 -161t29.5 -193.5q0 -129 -30.5 -260t-92 -254t-152 -232.5t-208.5 -195.5h-162q82 63 162 137t146.5 163t116.5 196.5t77 238.5q-35 -55 -74 -90t-80 -54.5t-82 -26.5t-80 -7q-94 0 -174 34
t-137 93t-90 139t-33 172zM209 1001q0 -66 24.5 -124t67.5 -103t101.5 -70.5t125.5 -25.5q72 0 131.5 25.5t101.5 69.5t65.5 102t23.5 126q0 66 -24.5 124.5t-68.5 103.5t-102.5 70.5t-126.5 25.5t-126 -26.5t-101 -70.5t-67.5 -103.5t-24.5 -123.5z" />
    <glyph glyph-name="colon" unicode=":" horiz-adv-x="503" 
d="M152 82q0 41 28.5 70.5t69.5 29.5q43 0 72.5 -29.5t29.5 -70.5t-29.5 -70.5t-72.5 -29.5q-41 0 -69.5 29.5t-28.5 70.5zM152 723q0 43 28.5 72.5t69.5 29.5q43 0 72.5 -29.5t29.5 -72.5q0 -41 -29.5 -69.5t-72.5 -28.5q-41 0 -69.5 28.5t-28.5 69.5z" />
    <glyph glyph-name="semicolon" unicode=";" horiz-adv-x="419" 
d="M113 84q0 41 26.5 69.5t61.5 28.5q41 0 68.5 -28.5t27.5 -69.5v-86l-133 -250h-51v336zM113 723q0 43 26.5 72.5t65.5 29.5t65.5 -29.5t26.5 -72.5q0 -41 -26.5 -69.5t-65.5 -28.5t-65.5 28.5t-26.5 69.5z" />
    <glyph glyph-name="less" unicode="&#x3c;" horiz-adv-x="978" 
d="M109 715l593 715h154l-592 -715l592 -715h-154z" />
    <glyph glyph-name="equal" unicode="=" horiz-adv-x="1071" 
d="M117 250v115h839v-115h-839zM117 686v113h839v-113h-839z" />
    <glyph glyph-name="greater" unicode="&#x3e;" horiz-adv-x="978" 
d="M123 0l592 715l-592 715h153l594 -715l-594 -715h-153z" />
    <glyph glyph-name="question" unicode="?" horiz-adv-x="1007" 
d="M82 1085q4 88 40 156t93 114t131 68.5t154 22.5q86 0 161.5 -25.5t131 -74t88 -117t32.5 -156.5q0 -61 -15 -105t-41 -76t-58.5 -54.5t-65.5 -40.5q-96 -53 -138 -108.5t-46 -145.5l-10 -164h-82q0 8 -2 29.5t-4 46t-4.5 49t-2.5 41.5q0 72 15.5 122t41 84.5t57.5 58.5
t67 44q33 20 64.5 39.5t55 43.5t38 56.5t14.5 79.5q0 61 -23.5 110.5t-64.5 82t-94.5 50t-114.5 17.5q-53 0 -106.5 -14t-96.5 -45t-70.5 -78t-31.5 -111h-113zM401 80q0 41 29 68.5t70 27.5t69.5 -27.5t28.5 -68.5t-28.5 -69.5t-69.5 -28.5t-70 28.5t-29 69.5z" />
    <glyph glyph-name="at" unicode="@" horiz-adv-x="1468" 
d="M123 481q0 98 25.5 208t71.5 215.5t113.5 201.5t150.5 169t182.5 116t210.5 43q119 0 205.5 -52.5t143 -137.5t83 -191t26.5 -217q0 -35 -6 -73t-14 -75t-14.5 -68.5t-8.5 -52.5l-37 -569l-106 6l14 246q-29 -53 -66.5 -102.5t-84.5 -88.5t-103.5 -61.5t-122.5 -22.5
q-78 0 -134 34t-93 87.5t-55.5 122t-18.5 135.5q0 96 35 209t99.5 209t155.5 159.5t202 63.5q45 0 82 -16t65.5 -43t51 -62.5t38.5 -74.5q8 86 -6 179t-54 172t-108.5 130t-168.5 51q-96 0 -181.5 -40t-158 -106.5t-130 -153.5t-97.5 -181t-61.5 -190.5t-21.5 -180.5
q0 -117 42 -229.5t134 -190.5l-57 -84q-59 43 -101 101.5t-68.5 124t-40 137.5t-13.5 143zM596 356q0 -43 9 -91t31.5 -90t58.5 -68.5t89 -26.5q86 0 157 54t123 134t81 170t29 162q0 43 -11.5 93t-35 94t-60.5 74t-88 30q-86 0 -156.5 -56.5t-121 -137.5t-78 -174
t-27.5 -167z" />
    <glyph glyph-name="A" unicode="A" horiz-adv-x="1292" 
d="M23 0l548 1430h148l549 -1430h-135l-162 424h-652l-159 -424h-137zM362 537h566l-283 745z" />
    <glyph glyph-name="B" unicode="B" horiz-adv-x="1257" 
d="M152 0v1430h491q98 0 184 -20.5t149.5 -66t99.5 -118t36 -176.5q0 -86 -44 -170t-155 -140q68 -25 116 -60.5t79 -80.5t45 -97.5t14 -105.5q0 -111 -37.5 -185.5t-103 -121.5t-155 -67.5t-191.5 -20.5h-528zM279 121h401q68 0 133.5 10t115.5 41t80.5 84t30.5 139
t-29.5 140.5t-79.5 85t-115.5 42t-135.5 11.5h-401v-553zM279 782h376q68 0 127.5 11.5t105.5 40t72.5 81t26.5 132.5q0 82 -29.5 133t-76.5 79.5t-109.5 39t-126.5 10.5h-366v-527z" />
    <glyph glyph-name="C" unicode="C" horiz-adv-x="1200" 
d="M90 715q0 143 31 275t99.5 233.5t179 163t270.5 61.5q74 0 135 -13.5t113.5 -41t99.5 -67.5t94 -95l-92 -86q-72 82 -150.5 129t-199.5 47q-135 0 -222.5 -55.5t-138.5 -142.5t-70.5 -194.5t-19.5 -213.5t19.5 -214t70.5 -195t138.5 -142t222.5 -55q121 0 200.5 48
t151.5 132l92 -84q-49 -55 -95 -97t-98.5 -70t-112.5 -42t-138 -14q-160 0 -269.5 61t-179 162.5t-100.5 234.5t-31 275z" />
    <glyph glyph-name="D" unicode="D" horiz-adv-x="1294" 
d="M152 0v1430h407q213 0 336 -43.5t186.5 -131.5t80 -222t16.5 -318q0 -182 -16.5 -317.5t-80 -223.5t-186.5 -131t-336 -43h-407zM279 127h301q172 0 268 34t143 111q23 39 35 89.5t17.5 108.5t5.5 121v124v122.5t-5.5 120t-17.5 110.5t-35 91q-47 78 -143 112t-268 34
h-301v-1178z" />
    <glyph glyph-name="E" unicode="E" horiz-adv-x="1169" 
d="M152 0v1430h915v-125h-788v-506h688v-119h-688v-555h788v-125h-915z" />
    <glyph glyph-name="F" unicode="F" horiz-adv-x="1128" 
d="M152 0v1430h895v-125h-768v-506h688v-117h-688v-682h-127z" />
    <glyph glyph-name="G" unicode="G" horiz-adv-x="1275" 
d="M90 715q0 141 31 273t100.5 234.5t178 164t266.5 61.5q74 0 135 -14.5t113.5 -43t98.5 -70.5t91 -97l-90 -80q-72 84 -150 131t-198 47q-135 0 -222.5 -54.5t-137.5 -141.5t-69.5 -195.5t-19.5 -214.5q0 -104 19.5 -212t68.5 -195t135 -143t219 -56q111 0 181.5 45
t111.5 118.5t56.5 166.5t15.5 192h-346v114h473v-745h-115v236q-59 -143 -152 -198.5t-229 -55.5q-158 0 -265 62t-173.5 164.5t-96.5 234.5t-30 272z" />
    <glyph glyph-name="H" unicode="H" horiz-adv-x="1337" 
d="M152 0v1430h127v-631h780v631h129v-1430h-129v680h-780v-680h-127z" />
    <glyph glyph-name="I" unicode="I" horiz-adv-x="491" 
d="M180 0v1430h129v-1430h-129z" />
    <glyph glyph-name="J" unicode="J" horiz-adv-x="1095" 
d="M59 293l123 33q37 -111 120 -163t194 -52q174 0 251.5 79.5t77.5 245.5v994h127v-998q0 -446 -454 -446q-170 0 -282 77.5t-157 229.5z" />
    <glyph glyph-name="K" unicode="K" horiz-adv-x="1140" 
d="M152 0h127v1430h-127v-1430zM295 717l588 713h147l-588 -709l641 -721h-161z" />
    <glyph glyph-name="L" unicode="L" horiz-adv-x="1044" 
d="M152 0v1430h127v-1311h704v-119h-831z" />
    <glyph glyph-name="M" unicode="M" horiz-adv-x="1499" 
d="M145 0v1430h129l476 -1254l477 1254h127v-1430h-127v1118l-424 -1118h-109l-422 1114v-1114h-127z" />
    <glyph glyph-name="N" unicode="N" horiz-adv-x="1290" 
d="M152 0v1430h124l736 -1192v1192h127v-1430h-123l-737 1192v-1192h-127z" />
    <glyph glyph-name="O" unicode="O" horiz-adv-x="1318" 
d="M90 715q0 141 28.5 273t96.5 234.5t176.5 164t267.5 61.5q160 0 269.5 -61.5t176 -164t96.5 -234.5t30 -273t-30 -273.5t-96.5 -235t-176 -163.5t-269.5 -61t-268 61t-176 163.5t-96.5 234.5t-28.5 274zM217 715q0 -104 17.5 -213t66.5 -196t135 -142t223 -55t223.5 55
t135.5 142t66.5 196t17.5 213t-17.5 212.5t-66.5 195.5t-135 142.5t-224 55.5q-137 0 -223 -55.5t-135 -142.5t-66.5 -195.5t-17.5 -212.5z" />
    <glyph glyph-name="P" unicode="P" horiz-adv-x="1226" 
d="M152 0v1430h530q102 0 188 -20.5t148.5 -68t97.5 -123t35 -184.5q0 -111 -34 -186.5t-95 -122.5t-147.5 -67.5t-190.5 -20.5h-405v-637h-127zM279 756h399q70 0 132 11t110.5 42t76 85t27.5 140q0 84 -28.5 137.5t-76 83t-109.5 41t-132 11.5h-399v-551z" />
    <glyph glyph-name="Q" unicode="Q" horiz-adv-x="1316" 
d="M90 715q0 141 30 273t97.5 234.5t176 164t265.5 61.5q160 0 269.5 -62.5t177.5 -165t96.5 -234.5t28.5 -271q0 -72 -5 -141.5t-20.5 -136t-44 -130t-76.5 -125.5l148 -182h-158l-78 96q-80 -59 -164.5 -86.5t-173.5 -27.5q-158 0 -266 62t-175.5 164.5t-97.5 234.5
t-30 272zM217 717q0 -104 18.5 -211t67.5 -194t135 -142t219 -55q61 0 123 19.5t121 66.5q-53 59 -108.5 92t-122.5 43v102q94 -10 168.5 -46t154.5 -113q37 53 59.5 108t33 110.5t13.5 110t3 107.5q0 104 -17.5 211.5t-66.5 195.5t-135 143.5t-221 55.5
q-137 0 -223.5 -55.5t-135.5 -142.5t-67.5 -194.5t-18.5 -211.5z" />
    <glyph glyph-name="R" unicode="R" horiz-adv-x="1236" 
d="M152 0v1430h491q100 0 185 -23t146.5 -70t95.5 -122t34 -179q0 -162 -97.5 -258t-287.5 -119q35 -23 62.5 -58.5t49.5 -74.5l320 -526h-150l-303 510q-16 27 -34.5 52.5t-41 45t-52 30.5t-68.5 11h-223v-649h-127zM279 764h364q70 0 130.5 13.5t105.5 44t70.5 82.5
t25.5 132t-26.5 132.5t-72 82t-105.5 42t-128 12.5h-364v-541z" />
    <glyph glyph-name="S" unicode="S" horiz-adv-x="1232" 
d="M90 352l123 23q18 -78 61 -130t101.5 -84t126 -45.5t139.5 -13.5q66 0 132.5 17.5t120.5 53.5t89 92.5t35 133.5q0 80 -38 131.5t-99.5 84t-140 54t-161.5 42t-162 45t-140.5 64.5t-99.5 102.5t-38 156.5t39 163t103.5 114t147.5 66.5t169 21.5q174 0 295 -64.5
t199 -214.5l-113 -51q-61 117 -155.5 163t-225.5 46q-53 0 -111.5 -11.5t-106.5 -40t-80 -75.5t-32 -117t38 -113.5t99.5 -72.5t140.5 -49.5t162 -41t161.5 -48t140 -72.5t99.5 -114t38 -169q0 -102 -43 -180t-113.5 -131t-162 -79.5t-187.5 -26.5q-215 0 -359.5 86
t-191.5 284z" />
    <glyph glyph-name="T" unicode="T" horiz-adv-x="1130" 
d="M47 1305v125h1036v-125h-454v-1305h-127v1305h-455z" />
    <glyph glyph-name="U" unicode="U" horiz-adv-x="1310" 
d="M137 606v824h129v-820q0 -96 14.5 -187t57.5 -160.5t118.5 -111.5t198.5 -42t200 42t120 111.5t57.5 159.5t14.5 188v820h127v-824q0 -137 -26 -251.5t-86.5 -197.5t-159.5 -129t-247 -46q-147 0 -246.5 47t-160 131t-86 198.5t-25.5 247.5z" />
    <glyph glyph-name="V" unicode="V" horiz-adv-x="1175" 
d="M35 1430h135l418 -1248l420 1248h133l-484 -1430h-139z" />
    <glyph glyph-name="W" unicode="W" horiz-adv-x="1634" 
d="M53 1430h131l279 -1217l295 1217h119l292 -1217l281 1217h131l-334 -1430h-145l-285 1190l-285 -1190h-145z" />
    <glyph glyph-name="X" unicode="X" horiz-adv-x="1218" 
d="M57 0l478 737l-449 693h152l372 -582l371 582h152l-449 -693l477 -737h-151l-400 627l-401 -627h-152z" />
    <glyph glyph-name="Y" unicode="Y" horiz-adv-x="1179" 
d="M53 1430h144l395 -812l395 812h141l-473 -957v-473h-129v473z" />
    <glyph glyph-name="Z" unicode="Z" horiz-adv-x="1189" 
d="M90 0v111l823 1194h-755v125h915v-117l-817 -1186h823v-127h-989z" />
    <glyph glyph-name="bracketleft" unicode="[" horiz-adv-x="593" 
d="M150 -135v1700h342v-78h-224v-1542h224v-80h-342z" />
    <glyph glyph-name="backslash" unicode="\" horiz-adv-x="856" 
d="M37 1585h121l661 -1741h-121z" />
    <glyph glyph-name="bracketright" unicode="]" horiz-adv-x="593" 
d="M131 -55h225v1542h-225v78h342v-1700h-342v80z" />
    <glyph glyph-name="asciicircum" unicode="^" horiz-adv-x="1083" 
d="M111 823l370 611h123l371 -611l-98 -53l-334 559l-336 -559z" />
    <glyph glyph-name="underscore" unicode="_" horiz-adv-x="1077" 
d="M49 0h981v-100h-981v100z" />
    <glyph glyph-name="grave" unicode="`" horiz-adv-x="643" 
d="M162 1403h149l172 -309h-106z" />
    <glyph glyph-name="a" unicode="a" horiz-adv-x="970" 
d="M86 279q0 135 94 209.5t244 78.5h84h70q39 2 78.5 9.5t72.5 41.5v95q0 43 -20.5 77.5t-53 58t-72.5 36t-79 12.5t-78 -8t-74 -24.5t-63.5 -45t-44.5 -67.5l-107 36q47 117 142.5 168.5t228.5 51.5q61 0 121.5 -20.5t108.5 -57.5t77 -90.5t29 -116.5v-563l33 -150
l-103 -24l-31 110q-76 -66 -147.5 -92.5t-155.5 -26.5q-74 0 -138 19.5t-112.5 57.5t-76 94.5t-27.5 130.5zM201 279q0 -51 21.5 -88t55 -61t76.5 -35t86 -11q88 0 156 29.5t133 93.5v305q-49 -27 -75.5 -33t-61.5 -6h-160q-43 0 -85 -11t-74.5 -35t-52 -60.5t-19.5 -87.5z
" />
    <glyph glyph-name="b" unicode="b" horiz-adv-x="1015" 
d="M141 0v1430h121v-564q27 43 60.5 70t69.5 42t72 21.5t68 6.5q115 0 191 -42t122 -113t65.5 -163t19.5 -194t-19.5 -195.5t-65.5 -164.5t-123 -111.5t-194 -40.5q-37 0 -75.5 6t-75.5 22.5t-71 44t-58 72.5l-4 -127h-103zM262 338q0 -57 21.5 -101t57.5 -75t84 -47.5
t101 -16.5q94 0 149.5 37t85.5 93.5t39 127t9 138.5t-9 137t-39 126.5t-85 94.5t-150 37q-53 0 -101 -16.5t-84 -47t-57.5 -75.5t-21.5 -103v-309z" />
    <glyph glyph-name="c" unicode="c" horiz-adv-x="964" 
d="M86 494q0 106 27.5 200t84 164t141.5 110t198 40t189.5 -39t150.5 -117l-86 -78q-53 55 -110.5 88t-143.5 33q-94 0 -157 -34t-99.5 -90t-52 -129t-15.5 -148q0 -76 15.5 -148t52 -128t99 -90t157.5 -34q86 0 143 33t111 88l86 -78q-37 -41 -74 -69.5t-77 -47t-86 -27.5
t-103 -9q-113 0 -198 39.5t-141.5 108.5t-84 162t-27.5 200z" />
    <glyph glyph-name="d" unicode="d" horiz-adv-x="1032" 
d="M86 496q0 104 20.5 196t67.5 162t125 111t195 41q31 0 66.5 -7.5t71.5 -22.5t67.5 -40t56.5 -62v556h121v-1258l5 -24q5 -25 12 -55t12 -54.5t5 -26.5l-106 -28l-29 131q-55 -74 -132 -103.5t-155 -29.5q-117 0 -194.5 40.5t-123.5 110.5t-65.5 163t-19.5 200zM209 494
q0 -68 9 -138.5t39 -128t85 -93.5t150 -36q53 0 101 16.5t84 47.5t57.5 76t21.5 100v311q0 55 -20.5 99.5t-56.5 76t-84 48t-101 16.5q-94 0 -150.5 -36t-86.5 -93.5t-39 -127t-9 -138.5z" />
    <glyph glyph-name="e" unicode="e" horiz-adv-x="989" 
d="M86 494q0 106 24.5 200t77 163t135.5 109t199 40q96 0 168 -35t119 -97.5t70.5 -146.5t23.5 -182v-70h-690q2 -84 19.5 -153.5t55.5 -120.5t99.5 -79t151.5 -28q160 0 254 103l81 -74q-66 -72 -146.5 -106.5t-188.5 -34.5q-119 0 -205 37.5t-141.5 106.5t-81 163
t-25.5 205zM213 563h575q-2 68 -17 128.5t-47 104.5t-82 70.5t-124 26.5q-76 0 -130 -23.5t-91 -66.5t-57.5 -104.5t-26.5 -135.5z" />
    <glyph glyph-name="f" unicode="f" horiz-adv-x="612" 
d="M102 883v106h105v78q0 72 16.5 135.5t56 111.5t109.5 79t176 37v-103q-137 -10 -189 -79.5t-52 -205.5v-53h211v-106h-211v-883h-117v883h-105z" />
    <glyph glyph-name="g" unicode="g" horiz-adv-x="1009" 
d="M82 -121q0 16 2 34.5t8 35.5l109 -33q-2 -10 -3 -18.5t-1 -18.5q0 -43 28.5 -73.5t70.5 -51t90 -30t87 -9.5q53 0 114.5 15.5t114 47.5t86 79t33.5 110q0 31 -13 54.5t-34.5 38t-48.5 21.5t-51 7q-41 0 -81 -7t-80 -15.5t-80 -15.5t-81 -7q-76 0 -134 34t-58 107
q0 53 29.5 108.5t91.5 100.5q-88 47 -119 123t-31 156q0 170 93 252t261 82q66 0 130.5 -13.5t117.5 -58.5q76 29 86 100h105q-4 -55 -31 -103t-92 -77q23 -53 32 -97t9 -85q0 -166 -95.5 -248t-263.5 -82q-29 0 -54.5 3t-59.5 11q-41 -27 -75 -65.5t-34 -89.5
q0 -43 25.5 -55.5t54.5 -12.5q45 0 88 9.5t87 19.5t87 19t88 9q51 0 96 -15t79 -44t53.5 -70t19.5 -92q0 -84 -41 -151.5t-106.5 -113.5t-147.5 -70.5t-162 -24.5q-68 0 -138.5 15.5t-128.5 47t-95 82.5t-37 125zM246 672q0 -117 62.5 -172.5t176.5 -55.5q117 0 179.5 55.5
t62.5 172.5t-64.5 170t-175.5 53q-113 0 -177 -53.5t-64 -169.5z" />
    <glyph glyph-name="h" unicode="h" 
d="M141 0v1430h121v-566q23 39 55.5 66.5t69.5 44t76 25t76 8.5q104 0 178 -33t122 -91.5t69.5 -140t21.5 -180.5v-563h-121v563q0 70 -13.5 129.5t-45 103.5t-87 68.5t-137.5 24.5q-45 0 -92 -16.5t-85 -46t-62.5 -70.5t-24.5 -92v-664h-121z" />
    <glyph glyph-name="i" unicode="i" horiz-adv-x="452" 
d="M133 1354q0 39 26.5 65.5t65.5 26.5q41 0 69 -26.5t28 -65.5t-28 -66.5t-69 -27.5q-39 0 -65.5 27.5t-26.5 66.5zM164 0v989h121v-989h-121z" />
    <glyph glyph-name="j" unicode="j" horiz-adv-x="446" 
d="M-80 -338q70 6 117 29.5t75.5 62.5t40 89.5t11.5 105.5v1040h119v-1048q0 -164 -79 -268.5t-257 -116.5zM131 1354q0 39 27.5 65.5t66.5 26.5t66.5 -26.5t27.5 -65.5t-27.5 -66.5t-66.5 -27.5t-66.5 27.5t-27.5 66.5z" />
    <glyph glyph-name="k" unicode="k" horiz-adv-x="897" 
d="M137 0v1430h119v-1430h-119zM268 526l453 -526h141l-461 530l385 459h-131z" />
    <glyph glyph-name="l" unicode="l" horiz-adv-x="446" 
d="M137 236v1194h117v-1194q0 -47 24.5 -84t96.5 -46v-104q-238 8 -238 234z" />
    <glyph glyph-name="m" unicode="m" horiz-adv-x="1591" 
d="M141 0v989h105l2 -131q23 41 53.5 69.5t64 46t67.5 26t65 8.5q104 0 183 -45t128 -156q43 111 121 156t174 45q102 0 172 -34t113 -93.5t62 -141.5t19 -178v-561h-118v561q0 61 -9.5 120.5t-35 106t-74.5 74t-129 27.5q-78 0 -125 -32t-72.5 -81t-35 -110.5t-9.5 -118.5
v-547h-119v561q0 61 -9 120.5t-36.5 106t-76 74t-127.5 27.5q-43 0 -85 -17.5t-75 -46t-53.5 -68.5t-20.5 -83v-674h-119z" />
    <glyph glyph-name="n" unicode="n" horiz-adv-x="1048" 
d="M141 0v989h105l4 -131q51 82 130 116t150 34q106 0 183.5 -32t124.5 -90.5t69.5 -141t22.5 -183.5v-561h-121v559q0 70 -12.5 130.5t-45 105.5t-87 69.5t-138.5 24.5q-57 0 -105 -20.5t-84 -54.5t-55.5 -76t-19.5 -85v-653h-121z" />
    <glyph glyph-name="o" unicode="o" horiz-adv-x="1019" 
d="M86 492q0 111 21.5 203.5t71.5 162.5t131 109t200 39t200 -39t131 -109t71.5 -162.5t21.5 -203.5q0 -109 -21.5 -202t-71.5 -162t-131 -107.5t-200 -38.5t-200 38.5t-131 107.5t-71.5 162t-21.5 202zM209 492q0 -74 11 -145t43 -126t91.5 -89t155.5 -34q94 0 153.5 34
t92 89t44 126t11.5 145q0 76 -11.5 147.5t-43 126.5t-91 89t-155.5 34t-155.5 -34t-91.5 -89t-43 -127t-11 -147z" />
    <glyph glyph-name="p" unicode="p" horiz-adv-x="1015" 
d="M141 -451v1440h105l4 -137q53 88 131 123t147 35q117 0 194 -42t123 -114t65.5 -165t19.5 -195q0 -104 -19.5 -196.5t-66.5 -163.5t-124 -111.5t-194 -40.5q-66 0 -137.5 28.5t-126.5 112.5v-574h-121zM262 340q0 -47 21.5 -90t57.5 -77t84 -54.5t101 -20.5
q94 0 149.5 37t85.5 93.5t39 127t9 138.5t-9 138t-39 126.5t-85 93.5t-150 37q-53 0 -101 -20.5t-84 -54.5t-57.5 -77t-21.5 -88v-309z" />
    <glyph glyph-name="q" unicode="q" horiz-adv-x="1017" 
d="M84 496q0 104 19.5 197t65.5 164t125 112t195 41q76 0 153 -33t130 -109l29 133l108 -28l-35 -152v-1272h-120v566q-59 -78 -129 -105.5t-133 -27.5q-117 0 -195 40.5t-125 111.5t-67.5 164t-20.5 198zM207 494q0 -70 9 -140.5t39 -127t86 -92.5t151 -36q53 0 101 19.5
t84 52.5t56.5 77t20.5 93v309q0 51 -21.5 94t-57.5 76t-84 51.5t-102 18.5q-94 0 -149 -36t-85 -93.5t-39 -128t-9 -137.5z" />
    <glyph glyph-name="r" unicode="r" horiz-adv-x="784" 
d="M141 0v989h105l4 -139q25 43 57.5 72.5t70.5 48t78 27t79 8.5q94 0 184 -43l-51 -101q-31 12 -65 20.5t-68 8.5q-53 0 -102.5 -18.5t-87.5 -51.5t-60.5 -76t-22.5 -94v-651h-121z" />
    <glyph glyph-name="s" unicode="s" horiz-adv-x="929" 
d="M84 236l109 24q14 -47 42.5 -80t66.5 -52t84 -27.5t95 -8.5q39 0 83 9.5t82 31t62.5 56t24.5 85.5q0 70 -46 107t-115.5 60.5t-149.5 40t-149.5 46t-115.5 78.5t-46 137q0 68 28.5 118t75.5 82t107.5 47.5t126.5 15.5q123 0 208.5 -40t145.5 -141l-96 -51
q-41 70 -106.5 95.5t-143.5 25.5q-33 0 -72 -6t-72.5 -22.5t-57.5 -46t-24 -77.5q0 -59 46.5 -90.5t116 -52t149.5 -38t149.5 -49.5t115.5 -86t46 -148q0 -74 -31.5 -129.5t-84 -92.5t-119 -56t-136.5 -19q-72 0 -136 13t-117.5 44t-91.5 79t-54 118z" />
    <glyph glyph-name="t" unicode="t" horiz-adv-x="591" 
d="M66 883v106h145v293h121v-293h168v-106h-168v-641q0 -76 30.5 -104.5t104.5 -31.5v-106h-43q-113 0 -163 65.5t-50 170.5v647h-145z" />
    <glyph glyph-name="u" unicode="u" 
d="M121 412v577h121v-571q0 -72 12 -131.5t44 -100.5t86 -63.5t138 -22.5q43 0 90 15.5t86 44t64.5 69.5t25.5 95v665h121v-989h-104l-4 121q-63 -78 -137 -107.5t-144 -29.5q-213 0 -306 110.5t-93 317.5z" />
    <glyph glyph-name="v" unicode="v" horiz-adv-x="960" 
d="M47 989h129l303 -835l305 835h131l-374 -989h-121z" />
    <glyph glyph-name="w" unicode="w" horiz-adv-x="1521" 
d="M43 989h129l244 -821l286 821h113l285 -823l250 823h127l-314 -989h-119l-286 807l-283 -807h-121z" />
    <glyph glyph-name="x" unicode="x" horiz-adv-x="946" 
d="M47 0l354 510l-335 479h149l258 -379l256 379h148l-334 -479l354 -510h-147l-277 410l-278 -410h-148z" />
    <glyph glyph-name="y" unicode="y" horiz-adv-x="964" 
d="M47 989h127l307 -839l307 839h130l-469 -1239q-41 -111 -116 -157t-186 -46h-26v107h24q86 0 129 36t66 99l78 205z" />
    <glyph glyph-name="z" unicode="z" horiz-adv-x="948" 
d="M86 0v117l612 755h-569v117h721v-110l-617 -762h617v-117h-764z" />
    <glyph glyph-name="braceleft" unicode="{" horiz-adv-x="716" 
d="M102 659v111q94 -4 132 34t46.5 99.5t0 138t-8.5 152.5q0 88 15.5 156.5t54.5 117t104.5 72t167.5 23.5v-105q-123 0 -175 -60.5t-52 -207.5q0 -68 8 -142.5t2 -141t-39.5 -119t-115.5 -72.5q82 -23 115.5 -74t39.5 -116.5t-2 -140.5t-8 -142q0 -147 52.5 -209t174.5 -62
v-104q-102 0 -167.5 24.5t-104.5 71.5t-54.5 115.5t-15.5 157.5q0 76 8.5 152.5t0 138t-46 99.5t-132.5 33z" />
    <glyph glyph-name="bar" unicode="|" horiz-adv-x="505" 
d="M199 -156v1741h110v-1741h-110z" />
    <glyph glyph-name="braceright" unicode="}" horiz-adv-x="716" 
d="M102 -29q123 0 175.5 61.5t52.5 209.5q0 68 -8.5 142.5t-1 140t40 116.5t114.5 74q-82 20 -114.5 72.5t-40 119t1 141t8.5 142.5q0 147 -52.5 207.5t-175.5 60.5v105q100 0 167 -23.5t106 -72t54 -117t15 -156.5q0 -76 -8 -152.5t0 -138t46 -99.5t132 -34v-111
q-94 4 -132 -33.5t-46 -99t0 -138.5t8 -152q0 -88 -15 -157t-54 -116t-105.5 -71.5t-167.5 -24.5v104z" />
    <glyph glyph-name="asciitilde" unicode="~" horiz-adv-x="985" 
d="M104 602q41 55 93.5 92t124.5 37q57 0 98 -21.5t78 -47t74.5 -47t86.5 -21.5q47 0 84 28.5t62 65.5l76 -67q-43 -53 -94.5 -92.5t-122.5 -39.5q-57 0 -99.5 21.5t-79 47.5t-74.5 47.5t-89 21.5q-47 0 -83 -30t-61 -65z" />
    <glyph glyph-name="uni00A0" unicode="&#xa0;" horiz-adv-x="286" 
 />
    <glyph glyph-name="exclamdown" unicode="&#xa1;" horiz-adv-x="628" 
d="M203 891q0 41 29.5 70.5t70.5 29.5t69.5 -29.5t28.5 -70.5t-28.5 -70.5t-69.5 -29.5t-70.5 29.5t-29.5 70.5zM229 203l23 385h98l23 -385v-662h-144v662z" />
    <glyph glyph-name="cent" unicode="&#xa2;" horiz-adv-x="1003" 
d="M111 494q0 106 27.5 198t86 161t146.5 108.5t209 39.5l32 152l70 -14l-31 -148q84 -16 140.5 -53t109.5 -90l-86 -78q-35 35 -79 64.5t-109 42.5l-162 -760q35 -10 61.5 -14.5t48.5 -4.5q80 4 134.5 36t105.5 85l86 -80q-37 -39 -73.5 -67.5t-76.5 -48t-86.5 -28.5
t-103.5 -9q-25 0 -52.5 4t-68.5 14l-34 -170l-70 12l39 177q-72 33 -121 83t-82 112.5t-47 132t-14 143.5zM238 494q0 -47 5 -95.5t22.5 -94.5t48 -88t83.5 -77l160 752q-96 -6 -157.5 -43t-97.5 -92.5t-50 -124t-14 -137.5z" />
    <glyph glyph-name="sterling" unicode="&#xa3;" horiz-adv-x="1071" 
d="M92 655l25 115h112q-16 76 -27.5 136.5t-11.5 117.5q0 88 26 165t76 132t122.5 87t167.5 32q68 0 120 -11.5t95 -33t82 -55t79 -78.5l-92 -76q-59 66 -121.5 102.5t-162.5 36.5q-72 0 -122 -24.5t-83 -66.5t-48.5 -97.5t-15.5 -116.5t11.5 -123.5t23.5 -126.5h268
l-24 -115h-219q12 -66 19 -118t7 -105q0 -143 -75 -315h641v-117h-793v98q47 82 78 166t31 178q0 51 -7.5 102.5t-21.5 110.5h-160z" />
    <glyph glyph-name="currency" unicode="&#xa4;" horiz-adv-x="1288" 
d="M100 492l19 96h121q-4 55 -5.5 100t1.5 98h-136l19 95h129q14 119 56 222t111.5 180t169 121t230.5 44q127 0 214 -39t165 -117l-80 -96q-66 63 -134.5 94t-164.5 31q-98 0 -174 -34t-129 -93t-85 -139t-44 -174h491l-18 -95h-489q-2 -78 -1 -119.5t5 -78.5h503l-18 -96
h-469q39 -172 146.5 -277.5t281.5 -105.5q98 0 167 32.5t134 96.5l82 -95q-41 -41 -81 -71.5t-85 -51t-98 -29.5t-119 -9q-115 0 -209 36.5t-164.5 103t-119 161t-68.5 209.5h-154z" />
    <glyph glyph-name="yen" unicode="&#xa5;" horiz-adv-x="1179" 
d="M61 1430h125l406 -828l405 828h125l-329 -666h188l-23 -96h-213l-88 -181h324l-23 -98h-311v-389h-112v389h-336l22 98h305l-88 181h-239l22 96h168z" />
    <glyph glyph-name="brokenbar" unicode="&#xa6;" horiz-adv-x="624" 
d="M266 -154v770h96v-770h-96zM266 815v770h96v-770h-96z" />
    <glyph glyph-name="section" unicode="&#xa7;" horiz-adv-x="1097" 
d="M131 565q0 78 32 150.5t103 132.5q-53 53 -72.5 108.5t-19.5 114.5q0 80 28.5 146.5t79 113.5t119 74t148.5 27q70 0 128 -19.5t105 -55.5t86 -86t72 -110l-102 -53q-23 39 -50.5 77t-62.5 67.5t-78 47t-98 17.5q-113 0 -184.5 -68.5t-71.5 -177.5q0 -59 22.5 -97
t60.5 -62.5t86 -39t99 -26.5q80 -20 153.5 -48t131 -71t91.5 -107.5t34 -158.5q0 -78 -31 -149.5t-102 -133.5q53 -53 71.5 -107.5t18.5 -113.5q0 -80 -29 -147.5t-79 -114.5t-118.5 -74t-148.5 -27q-139 0 -233.5 76t-157.5 197l102 53q23 -41 50.5 -79t62.5 -67.5t78 -47
t98 -17.5q115 0 185.5 69.5t70.5 178.5q0 57 -22.5 95t-60.5 62.5t-87 40t-100 27.5q-80 20 -153 48t-130 71t-91 107.5t-34 156.5zM252 565q0 -66 28.5 -111.5t74.5 -77.5t103.5 -51.5t114.5 -33.5q43 -10 83 -21.5t83 -29.5q63 43 87 101.5t24 119.5q0 66 -28.5 111.5
t-74 77.5t-102.5 51.5t-115 33.5q-43 10 -83.5 22.5t-81.5 30.5q-63 -43 -88 -102t-25 -121z" />
    <glyph glyph-name="dieresis" unicode="&#xa8;" horiz-adv-x="993" 
d="M217 1200q0 39 25.5 65.5t64.5 26.5t65.5 -26.5t26.5 -65.5t-26.5 -64.5t-65.5 -25.5t-64.5 25.5t-25.5 64.5zM594 1200q0 39 27.5 65.5t64.5 26.5q39 0 65.5 -26.5t26.5 -65.5t-26.5 -64.5t-65.5 -25.5q-37 0 -64.5 25.5t-27.5 64.5z" />
    <glyph glyph-name="copyright" unicode="&#xa9;" horiz-adv-x="1628" 
d="M96 713q0 150 56.5 280.5t153.5 229t228.5 155t280.5 56.5q150 0 281 -56.5t228 -155t153.5 -229t56.5 -280.5q0 -147 -56.5 -278.5t-153.5 -230t-228 -154.5t-281 -56t-281 56t-228 154.5t-153.5 229.5t-56.5 279zM186 713q0 -129 49.5 -244t134.5 -201t199.5 -135
t245.5 -49q129 0 244 49t201 135t135 201t49 244q0 131 -49 245.5t-135 200.5t-201 135t-244 49q-131 0 -245.5 -49t-199.5 -135t-134.5 -200.5t-49.5 -245.5zM514 713q0 78 17.5 149.5t54.5 125.5t96 86t143 32q78 0 130.5 -27.5t101.5 -83.5l-62 -55q-35 39 -72.5 61.5
t-97.5 22.5q-68 0 -111.5 -29.5t-68 -75t-34 -100.5t-9.5 -106t9.5 -105.5t34 -99.5t68.5 -73.5t111 -28.5q59 0 98.5 22.5t73.5 63.5l62 -58q-51 -57 -102.5 -84.5t-129.5 -27.5q-84 0 -143 31.5t-97 86t-55.5 125t-17.5 148.5z" />
    <glyph glyph-name="ordfeminine" unicode="&#xaa;" horiz-adv-x="833" 
d="M94 864q0 111 77 172.5t200 65.5h121q29 0 60.5 4t57.5 29v71q0 33 -16 59.5t-42 45t-56.5 28t-59.5 9.5q-66 0 -122 -26t-85 -91l-96 29q43 102 121 145t184 43q49 0 98.5 -16.5t88.5 -47t63.5 -73.5t24.5 -94v-482l26 -73l-94 -29l-27 65q-66 -45 -117.5 -61
t-117.5 -16q-59 0 -111.5 15t-92.5 46t-62.5 76t-22.5 106zM195 868q0 -39 16 -67.5t44 -47t61.5 -26.5t68.5 -8q66 0 119 23.5t106 72.5v225q-41 -16 -60.5 -20t-47.5 -4h-21.5h-42t-42 -1t-21.5 -1q-70 -2 -125 -36t-55 -110zM279 401v88h280v-88h-280z" />
    <glyph glyph-name="guillemotleft" unicode="&#xab;" horiz-adv-x="1015" 
d="M102 473v98l414 398v-140l-323 -307l323 -307v-139zM489 473v98l412 398v-140l-321 -307l321 -307v-139z" />
    <glyph glyph-name="logicalnot" unicode="&#xac;" horiz-adv-x="1058" 
d="M96 498v94h852v-397h-90v303h-762z" />
    <glyph glyph-name="uni00AD" unicode="&#xad;" horiz-adv-x="811" 
d="M131 506v104h551v-104h-551z" />
    <glyph glyph-name="registered" unicode="&#xae;" horiz-adv-x="1628" 
d="M96 713q0 150 56.5 280.5t153.5 229t228.5 155t280.5 56.5q150 0 281 -56.5t228 -155t153.5 -229t56.5 -280.5q0 -147 -56.5 -278.5t-153.5 -230t-228 -154.5t-281 -56t-281 56t-228 154.5t-153.5 229.5t-56.5 279zM186 713q0 -129 49.5 -244t134.5 -201t199.5 -135
t245.5 -49q129 0 244 49t201 135t135 201t49 244q0 131 -49 245.5t-135 200.5t-201 135t-244 49q-131 0 -245.5 -49t-199.5 -135t-134.5 -200.5t-49.5 -245.5zM569 338v754h265q111 0 180 -51.5t69 -163.5q0 -37 -11 -72t-33.5 -62.5t-57.5 -46t-84 -22.5q10 -12 67.5 -97
t149.5 -239h-102l-146 248q-23 39 -47 60.5t-65 21.5h-103v-330h-82zM651 737h185q33 0 62.5 6.5t53 21.5t36.5 43t13 69t-14 66.5t-36.5 40.5t-53.5 20.5t-61 5.5h-185v-273z" />
    <glyph glyph-name="macron" unicode="&#xaf;" horiz-adv-x="1030" 
d="M231 1137v100h570v-100h-570z" />
    <glyph glyph-name="degree" unicode="&#xb0;" horiz-adv-x="618" 
d="M111 1354q0 41 15 76.5t43 63.5t63.5 43t76.5 15t78 -15t63.5 -43t42 -63.5t15.5 -76.5q0 -84 -57.5 -142.5t-141.5 -58.5q-41 0 -76.5 15.5t-63.5 43t-43 64.5t-15 78zM180 1354q0 -53 38 -92t91 -39t91 39t38 92t-38 91t-91 38t-91 -38t-38 -91z" />
    <glyph glyph-name="plusminus" unicode="&#xb1;" horiz-adv-x="1073" 
d="M117 0v104h839v-104h-839zM117 561v107h366v362h109v-362h364v-107h-364v-362h-109v362h-366z" />
    <glyph glyph-name="uni00B2" unicode="&#xb2;" horiz-adv-x="716" 
d="M78 532v60q20 98 63 165.5t94.5 118t105.5 87t97 72.5t72 76t29 97q0 41 -16.5 73t-43 52.5t-62.5 30.5t-73 10q-59 0 -109.5 -31.5t-80.5 -85.5l-68 39q84 154 258 154q117 0 197 -62.5t80 -179.5q0 -68 -28 -116t-70 -86.5t-94 -75.5t-102.5 -80t-92 -100.5
t-64.5 -139.5h473v-78h-565z" />
    <glyph glyph-name="uni00B3" unicode="&#xb3;" horiz-adv-x="677" 
d="M63 696l74 29q25 -61 77 -94t118 -33q84 0 143.5 51t59.5 137q0 100 -64.5 143.5t-157.5 45.5v61q41 0 78 10.5t63.5 31t42 52t15.5 76.5q0 37 -16.5 69t-43 54.5t-60.5 34.5t-68 12q-59 0 -108.5 -30.5t-72.5 -83.5l-69 28q35 78 101.5 119t152.5 41q53 0 100 -17.5
t83 -49t56.5 -76.5t20.5 -101q0 -145 -131 -198q72 -27 113.5 -83.5t41.5 -138.5q0 -61 -21.5 -109t-59 -82t-89 -52.5t-108.5 -18.5q-94 0 -165 40t-106 132z" />
    <glyph glyph-name="acute" unicode="&#xb4;" horiz-adv-x="614" 
d="M145 1094l174 309h148l-213 -309h-109z" />
    <glyph glyph-name="paragraph" unicode="&#xb6;" horiz-adv-x="1032" 
d="M113 1032q0 82 31.5 155t87 126t129 85t159.5 32h330v-1737h-113v1622h-108v-1622h-115v942q-86 4 -159.5 35.5t-128 86t-84 125t-29.5 150.5z" />
    <glyph glyph-name="periodcentered" unicode="&#xb7;" horiz-adv-x="507" 
d="M137 543q0 49 34 82.5t83 33.5q47 0 82 -33.5t35 -82.5q0 -47 -35 -82t-82 -35q-49 0 -83 35t-34 82z" />
    <glyph glyph-name="cedilla" unicode="&#xb8;" horiz-adv-x="1024" 
d="M362 -403l189 270l-68 153l82 29l80 -190l-145 -262h-138z" />
    <glyph glyph-name="uni00B9" unicode="&#xb9;" horiz-adv-x="481" 
d="M53 1292l205 148h66v-908h-80v807l-152 -106z" />
    <glyph glyph-name="ordmasculine" unicode="&#xba;" horiz-adv-x="884" 
d="M96 1034q0 88 18.5 164t59.5 131t106.5 87t161.5 32t162 -32t107 -87t59 -131t18 -164q0 -90 -17 -165.5t-58 -131t-107.5 -87.5t-163.5 -32q-96 0 -161.5 32t-106.5 87.5t-59.5 131t-18.5 165.5zM205 1032q0 -57 8 -112.5t33.5 -99.5t73 -70.5t122.5 -26.5
q76 0 123 26.5t73 70.5t34 99.5t8 112.5t-8 113.5t-34 100.5t-73 70.5t-123 26.5t-123 -26.5t-72.5 -70.5t-33.5 -100t-8 -114zM305 401v88h279v-88h-279z" />
    <glyph glyph-name="guillemotright" unicode="&#xbb;" horiz-adv-x="1015" 
d="M102 76v139l322 307l-322 307v140l412 -398v-98zM487 76v139l324 307l-324 307v140l414 -398v-98z" />
    <glyph glyph-name="onequarter" unicode="&#xbc;" horiz-adv-x="1554" 
d="M92 1296l242 144h49v-875h-90v748l-156 -92zM385 2l631 1428h94l-631 -1428h-94zM942 223v82l348 572h107l-342 -566h280l4 293l68 -14v-277h59v-90h-59v-221h-92v221h-373z" />
    <glyph glyph-name="onehalf" unicode="&#xbd;" horiz-adv-x="1632" 
d="M92 1296l242 144h49v-875h-88v748l-158 -92zM385 2l629 1428h96l-629 -1428h-96zM1018 2v76q29 72 75 148.5t132 162.5q57 57 97 98t62.5 73t32.5 56.5t10 47.5q0 37 -15 61.5t-36.5 38.5t-47 20.5t-46.5 6.5q-49 0 -89 -28t-75 -91l-80 43q45 78 104.5 121t139.5 43
q43 0 86 -13.5t77 -41t54.5 -67.5t20.5 -93q0 -35 -11.5 -68t-37 -71t-68.5 -83t-105 -104q-63 -59 -103 -126t-69 -122h394v-88h-502z" />
    <glyph glyph-name="threequarters" unicode="&#xbe;" horiz-adv-x="1712" 
d="M106 1280q31 78 97.5 121t144.5 43q51 0 98.5 -18.5t81 -50.5t54 -73.5t20.5 -91.5q0 -53 -25.5 -99t-84.5 -89q66 -47 96 -100.5t30 -112.5q0 -53 -20 -99t-56 -81t-83 -55.5t-103 -20.5q-86 0 -152.5 48t-94.5 130l86 29q20 -49 62 -83t99 -34q72 0 121 48t49 118
q0 33 -13 63.5t-36.5 54t-54.5 37t-66 13.5h-39v80h31q70 0 116 46t46 107q0 59 -47 102.5t-115 43.5q-53 0 -94 -29t-59 -76zM541 2l630 1428h97l-631 -1428h-96zM1100 223v82l346 572h108l-344 -566h283l4 293l68 -14v-277h57v-90h-57v-221h-92v221h-373z" />
    <glyph glyph-name="questiondown" unicode="&#xbf;" horiz-adv-x="1007" 
d="M82 -100q0 61 15.5 104t41 75t57 54.5t64.5 40.5q98 53 140 108.5t46 143.5l9 170h84q2 -43 6 -80q2 -31 4 -58.5t2 -33.5q0 -72 -16.5 -122t-41 -84t-57.5 -57.5t-65 -43.5q-35 -20 -67 -39t-55.5 -42.5t-36.5 -55t-13 -80.5q0 -63 22.5 -112.5t63.5 -83.5t94 -51.5
t115 -17.5q53 0 106 15.5t96 47.5t72 79t33 108l112 2q-4 -90 -39.5 -157.5t-94 -113.5t-132.5 -68.5t-153 -22.5q-86 0 -161 25.5t-131.5 73.5t-88 117t-31.5 159zM397 891q0 41 28 70.5t69 29.5t69.5 -29.5t28.5 -70.5t-28.5 -68.5t-69.5 -27.5t-69 27.5t-28 68.5z" />
    <glyph glyph-name="Agrave" unicode="&#xc0;" horiz-adv-x="1292" 
d="M23 0l548 1430h148l549 -1430h-135l-162 424h-652l-159 -424h-137zM356 1855h150l172 -309h-107zM362 537h566l-283 745z" />
    <glyph glyph-name="Aacute" unicode="&#xc1;" horiz-adv-x="1292" 
d="M23 0l548 1430h148l549 -1430h-135l-162 424h-652l-159 -424h-137zM362 537h566l-283 745zM608 1546l174 309h148l-213 -309h-109z" />
    <glyph glyph-name="Acircumflex" unicode="&#xc2;" horiz-adv-x="1292" 
d="M23 0l548 1430h148l549 -1430h-135l-162 424h-652l-159 -424h-137zM362 537h566l-283 745zM362 1548l222 303h121l221 -303h-133l-150 232l-147 -232h-134z" />
    <glyph glyph-name="Atilde" unicode="&#xc3;" horiz-adv-x="1292" 
d="M23 0l548 1430h148l549 -1430h-135l-162 424h-652l-159 -424h-137zM344 1649q35 55 75 83.5t101 28.5q45 0 76 -17.5t57.5 -37.5t52 -37.5t62.5 -17.5q39 0 63.5 21.5t42.5 53.5l72 -65q-37 -51 -76 -82t-100 -31q-45 0 -75.5 17.5t-56.5 38t-52.5 38t-63.5 17.5
q-41 0 -64.5 -22.5t-43.5 -51.5zM362 537h566l-283 745z" />
    <glyph glyph-name="Adieresis" unicode="&#xc4;" horiz-adv-x="1292" 
d="M23 0l548 1430h148l549 -1430h-135l-162 424h-652l-159 -424h-137zM362 537h566l-283 745zM365 1653q0 39 26.5 65.5t63.5 26.5q39 0 65.5 -26.5t26.5 -65.5t-26.5 -64.5t-65.5 -25.5q-37 0 -63.5 25.5t-26.5 64.5zM741 1653q0 39 28 65.5t67 26.5q37 0 63.5 -26.5
t26.5 -65.5t-27 -64.5t-63 -25.5q-39 0 -67 25.5t-28 64.5z" />
    <glyph glyph-name="Aring" unicode="&#xc5;" horiz-adv-x="1292" 
d="M23 0l548 1430h148l549 -1430h-135l-162 424h-652l-159 -424h-137zM362 537h566l-283 745zM434 1761q0 43 16.5 81t45 66.5t67.5 45t84 16.5q43 0 81 -16.5t66.5 -45t45 -66.5t16.5 -81t-16.5 -82t-45 -68.5t-66.5 -46t-81 -16.5q-45 0 -84 16.5t-67.5 46t-45 68.5
t-16.5 82zM532 1761q0 -47 34 -79.5t81 -32.5q45 0 78 32.5t33 79.5t-33 79t-78 32q-47 0 -81 -32t-34 -79z" />
    <glyph glyph-name="AE" unicode="&#xc6;" horiz-adv-x="1880" 
d="M31 0l807 1430h948v-125h-731v-502h635v-123h-635v-555h731v-125h-858v424h-516l-238 -424h-143zM475 537h453v749h-31z" />
    <glyph glyph-name="Ccedilla" unicode="&#xc7;" horiz-adv-x="1247" 
d="M113 715q0 143 30.5 275t100 233.5t179 163t269.5 61.5q76 0 137.5 -16.5t114.5 -47t100.5 -74.5t94.5 -100l-92 -77q-74 88 -153 138t-202 50q-137 0 -224 -54.5t-137 -141.5t-69.5 -195.5t-19.5 -214.5t19.5 -215t69.5 -196t137 -141t224 -54q123 0 202 50t153 138
l92 -78q-82 -98 -172 -159.5t-217 -73.5l61 -144l-133 -248h-135l174 256l-60 134q-152 6 -256 69.5t-168.5 164.5t-92 230.5t-27.5 266.5z" />
    <glyph glyph-name="Egrave" unicode="&#xc8;" horiz-adv-x="1169" 
d="M152 0v1430h915v-125h-788v-506h688v-119h-688v-555h788v-125h-915zM424 1855h149l172 -309h-106z" />
    <glyph glyph-name="Eacute" unicode="&#xc9;" horiz-adv-x="1169" 
d="M152 0v1430h915v-125h-788v-506h688v-119h-688v-555h788v-125h-915zM424 1546l174 309h147l-215 -309h-106z" />
    <glyph glyph-name="Ecircumflex" unicode="&#xca;" horiz-adv-x="1169" 
d="M152 0v1430h915v-125h-788v-506h688v-119h-688v-555h788v-125h-915zM334 1548l219 303h123l221 -303h-133l-150 232l-147 -232h-133z" />
    <glyph glyph-name="Edieresis" unicode="&#xcb;" horiz-adv-x="1169" 
d="M152 0v1430h915v-125h-788v-506h688v-119h-688v-555h788v-125h-915zM303 1653q0 39 26.5 65.5t65.5 26.5q37 0 64.5 -26.5t27.5 -65.5t-27.5 -64.5t-64.5 -25.5q-39 0 -65.5 25.5t-26.5 64.5zM682 1653q0 39 26.5 65.5t65.5 26.5q37 0 63.5 -26.5t26.5 -65.5t-26.5 -64.5
t-63.5 -25.5q-39 0 -65.5 25.5t-26.5 64.5z" />
    <glyph glyph-name="Igrave" unicode="&#xcc;" horiz-adv-x="491" 
d="M-35 1855h150l172 -309h-107zM180 0v1430h129v-1430h-129z" />
    <glyph glyph-name="Iacute" unicode="&#xcd;" horiz-adv-x="491" 
d="M170 1546l174 309h148l-213 -309h-109zM180 0v1430h129v-1430h-129z" />
    <glyph glyph-name="Icircumflex" unicode="&#xce;" horiz-adv-x="491" 
d="M-37 1548l221 303h123l221 -303h-135l-149 232l-148 -232h-133zM180 0v1430h129v-1430h-129z" />
    <glyph glyph-name="Idieresis" unicode="&#xcf;" horiz-adv-x="491" 
d="M-35 1653q0 39 26.5 65.5t65.5 26.5q37 0 65 -26.5t28 -65.5t-28 -64.5t-65 -25.5q-39 0 -65.5 25.5t-26.5 64.5zM180 0v1430h129v-1430h-129zM344 1653q0 39 26.5 65.5t65.5 26.5t64.5 -26.5t25.5 -65.5t-25.5 -64.5t-64.5 -25.5t-65.5 25.5t-26.5 64.5z" />
    <glyph glyph-name="Eth" unicode="&#xd0;" horiz-adv-x="1341" 
d="M92 659v103h88v668h428q111 0 208 -13.5t174 -54.5t128 -117t70 -203q10 -70 13 -156.5t3 -170.5q0 -82 -3 -170t-13 -156q-18 -127 -69.5 -203.5t-128.5 -117.5t-174 -54.5t-208 -13.5h-428v659h-88zM309 127h299q88 0 164 7t136.5 35t99.5 85t53 160q10 70 12 149.5
t2 151.5t-2 152.5t-12 150.5q-14 100 -55 158.5t-100.5 86t-136.5 35t-161 7.5h-299v-543h320v-103h-320v-532z" />
    <glyph glyph-name="Ntilde" unicode="&#xd1;" horiz-adv-x="1290" 
d="M152 0v1430h124l736 -1192v1192h127v-1430h-123l-737 1192v-1192h-127zM344 1649q35 55 75 83.5t101 28.5q45 0 76 -17.5t57.5 -37.5t52 -37.5t62.5 -17.5q39 0 63.5 21.5t42.5 53.5l72 -65q-37 -51 -77 -82t-99 -31q-45 0 -75.5 17.5t-56.5 38t-52.5 38t-63.5 17.5
q-41 0 -64.5 -22.5t-43.5 -51.5z" />
    <glyph glyph-name="Ograve" unicode="&#xd2;" horiz-adv-x="1318" 
d="M90 715q0 141 28.5 273t96.5 234.5t176.5 164t267.5 61.5q160 0 269.5 -61.5t176 -164t96.5 -234.5t30 -273t-30 -273.5t-96.5 -235t-176 -163.5t-269.5 -61t-268 61t-176 163.5t-96.5 234.5t-28.5 274zM217 715q0 -104 17.5 -213t66.5 -196t135 -142t223 -55t223.5 55
t135.5 142t66.5 196t17.5 213t-17.5 212.5t-66.5 195.5t-135 142.5t-224 55.5q-137 0 -223 -55.5t-135 -142.5t-66.5 -195.5t-17.5 -212.5zM498 1855h149l172 -309h-106z" />
    <glyph glyph-name="Oacute" unicode="&#xd3;" horiz-adv-x="1318" 
d="M90 715q0 141 28.5 273t96.5 234.5t176.5 164t267.5 61.5q160 0 269.5 -61.5t176 -164t96.5 -234.5t30 -273t-30 -273.5t-96.5 -235t-176 -163.5t-269.5 -61t-268 61t-176 163.5t-96.5 234.5t-28.5 274zM217 715q0 -104 17.5 -213t66.5 -196t135 -142t223 -55t223.5 55
t135.5 142t66.5 196t17.5 213t-17.5 212.5t-66.5 195.5t-135 142.5t-224 55.5q-137 0 -223 -55.5t-135 -142.5t-66.5 -195.5t-17.5 -212.5zM498 1546l174 309h147l-213 -309h-108z" />
    <glyph glyph-name="Ocircumflex" unicode="&#xd4;" horiz-adv-x="1318" 
d="M90 715q0 141 28.5 273t96.5 234.5t176.5 164t267.5 61.5q160 0 269.5 -61.5t176 -164t96.5 -234.5t30 -273t-30 -273.5t-96.5 -235t-176 -163.5t-269.5 -61t-268 61t-176 163.5t-96.5 234.5t-28.5 274zM217 715q0 -104 17.5 -213t66.5 -196t135 -142t223 -55t223.5 55
t135.5 142t66.5 196t17.5 213t-17.5 212.5t-66.5 195.5t-135 142.5t-224 55.5q-137 0 -223 -55.5t-135 -142.5t-66.5 -195.5t-17.5 -212.5zM377 1548l221 303h123l221 -303h-135l-150 232l-147 -232h-133z" />
    <glyph glyph-name="Otilde" unicode="&#xd5;" horiz-adv-x="1318" 
d="M90 715q0 141 28.5 273t96.5 234.5t176.5 164t267.5 61.5q160 0 269.5 -61.5t176 -164t96.5 -234.5t30 -273t-30 -273.5t-96.5 -235t-176 -163.5t-269.5 -61t-268 61t-176 163.5t-96.5 234.5t-28.5 274zM217 715q0 -104 17.5 -213t66.5 -196t135 -142t223 -55t223.5 55
t135.5 142t66.5 196t17.5 213t-17.5 212.5t-66.5 195.5t-135 142.5t-224 55.5q-137 0 -223 -55.5t-135 -142.5t-66.5 -195.5t-17.5 -212.5zM358 1649q35 55 76 83.5t103 28.5q45 0 75.5 -17.5t56 -37.5t51 -37.5t62.5 -17.5q39 0 63.5 21.5t45.5 53.5l70 -65
q-37 -51 -76 -82t-101 -31q-45 0 -74.5 17.5t-56 38t-53.5 38t-63 17.5q-39 0 -63.5 -22.5t-45.5 -51.5z" />
    <glyph glyph-name="Odieresis" unicode="&#xd6;" horiz-adv-x="1318" 
d="M90 715q0 141 28.5 273t96.5 234.5t176.5 164t267.5 61.5q160 0 269.5 -61.5t176 -164t96.5 -234.5t30 -273t-30 -273.5t-96.5 -235t-176 -163.5t-269.5 -61t-268 61t-176 163.5t-96.5 234.5t-28.5 274zM217 715q0 -104 17.5 -213t66.5 -196t135 -142t223 -55t223.5 55
t135.5 142t66.5 196t17.5 213t-17.5 212.5t-66.5 195.5t-135 142.5t-224 55.5q-137 0 -223 -55.5t-135 -142.5t-66.5 -195.5t-17.5 -212.5zM379 1653q0 39 26.5 65.5t65.5 26.5q37 0 64.5 -26.5t27.5 -65.5t-27.5 -64.5t-64.5 -25.5q-39 0 -65.5 25.5t-26.5 64.5zM758 1653
q0 39 26.5 65.5t65.5 26.5t64.5 -26.5t25.5 -65.5t-25.5 -64.5t-64.5 -25.5t-65.5 25.5t-26.5 64.5z" />
    <glyph glyph-name="multiply" unicode="&#xd7;" horiz-adv-x="929" 
d="M129 299l260 262l-260 260l76 76l260 -262l262 262l74 -76l-260 -260l260 -262l-74 -74l-262 260l-260 -260z" />
    <glyph glyph-name="Oslash" unicode="&#xd8;" horiz-adv-x="1318" 
d="M90 715q0 141 28.5 273t96.5 234.5t176.5 164t267.5 61.5q84 0 155 -19.5t140 -60.5l37 68h113l-70 -127q111 -115 154 -271.5t43 -322.5q0 -141 -30 -273.5t-96.5 -235t-176 -163.5t-269.5 -61q-164 0 -301 86l-39 -74h-114l74 135q-106 115 -147.5 269.5t-41.5 316.5z
M217 715q0 -117 24.5 -237t100.5 -226l553 1003q-55 35 -111.5 50.5t-124.5 15.5q-137 0 -223 -55.5t-135 -142.5t-66.5 -195.5t-17.5 -212.5zM418 182q106 -74 241 -73q137 0 223.5 55t135.5 142t66.5 196t17.5 213q0 121 -25.5 243.5t-105.5 227.5z" />
    <glyph glyph-name="Ugrave" unicode="&#xd9;" horiz-adv-x="1310" 
d="M137 606v824h129v-820q0 -96 14.5 -187t57.5 -160.5t118.5 -111.5t198.5 -42t200 42t120 111.5t57.5 159.5t14.5 188v820h127v-824q0 -137 -26 -251.5t-86.5 -197.5t-159.5 -129t-247 -46q-147 0 -246.5 47t-160 131t-86 198.5t-25.5 247.5zM494 1855h149l172 -309h-106z
" />
    <glyph glyph-name="Uacute" unicode="&#xda;" horiz-adv-x="1310" 
d="M137 606v824h129v-820q0 -96 14.5 -187t57.5 -160.5t118.5 -111.5t198.5 -42t200 42t120 111.5t57.5 159.5t14.5 188v820h127v-824q0 -137 -26 -251.5t-86.5 -197.5t-159.5 -129t-247 -46q-147 0 -246.5 47t-160 131t-86 198.5t-25.5 247.5zM494 1546l174 309h147
l-213 -309h-108z" />
    <glyph glyph-name="Ucircumflex" unicode="&#xdb;" horiz-adv-x="1310" 
d="M137 606v824h129v-820q0 -96 14.5 -187t57.5 -160.5t118.5 -111.5t198.5 -42t200 42t120 111.5t57.5 159.5t14.5 188v820h127v-824q0 -137 -26 -251.5t-86.5 -197.5t-159.5 -129t-247 -46q-147 0 -246.5 47t-160 131t-86 198.5t-25.5 247.5zM375 1548l219 303h123
l221 -303h-135l-150 232l-147 -232h-131z" />
    <glyph glyph-name="Udieresis" unicode="&#xdc;" horiz-adv-x="1310" 
d="M137 606v824h129v-820q0 -96 14.5 -187t57.5 -160.5t118.5 -111.5t198.5 -42t200 42t120 111.5t57.5 159.5t14.5 188v820h127v-824q0 -137 -26 -251.5t-86.5 -197.5t-159.5 -129t-247 -46q-147 0 -246.5 47t-160 131t-86 198.5t-25.5 247.5zM375 1653q0 39 26.5 65.5
t65.5 26.5q37 0 64.5 -26.5t27.5 -65.5t-27.5 -64.5t-64.5 -25.5q-39 0 -65.5 25.5t-26.5 64.5zM754 1653q0 39 26.5 65.5t65.5 26.5q37 0 63.5 -26.5t26.5 -65.5t-26.5 -64.5t-63.5 -25.5q-39 0 -65.5 25.5t-26.5 64.5z" />
    <glyph glyph-name="Yacute" unicode="&#xdd;" horiz-adv-x="1179" 
d="M53 1430h144l395 -812l395 812h141l-473 -957v-473h-129v473zM430 1546l172 309h150l-215 -309h-107z" />
    <glyph glyph-name="Thorn" unicode="&#xde;" horiz-adv-x="1282" 
d="M180 0v1430h127v-295h402q106 0 193 -21.5t150.5 -69t98.5 -123t35 -184.5q0 -111 -36 -185.5t-99.5 -121.5t-151.5 -67.5t-190 -20.5h-402v-342h-127zM307 467h402q72 0 135 10t111.5 40t76 83t27.5 137q0 86 -27.5 139.5t-76 83t-112 40t-134.5 10.5h-402v-543z" />
    <glyph glyph-name="germandbls" unicode="&#xdf;" horiz-adv-x="1290" 
d="M137 0v987q0 92 19.5 173t63.5 142.5t113.5 97.5t170.5 36q96 0 163.5 -35t111.5 -93.5t65.5 -138t23.5 -168.5q98 -8 170 -48t125 -128l-96 -51q-41 70 -106.5 95.5t-143.5 25.5q-33 0 -71.5 -6t-72.5 -22.5t-57.5 -46t-23.5 -77.5q0 -59 46 -90.5t115.5 -52t149.5 -38
t149.5 -49.5t115.5 -86t46 -148q0 -74 -31.5 -129.5t-83.5 -92.5t-119 -56t-136 -19q-72 0 -136.5 13t-117.5 44t-91 79t-55 118l109 24q14 -47 43 -80t66.5 -52t84 -27.5t95.5 -8.5q39 0 83 9.5t81.5 31t62.5 56t25 85.5q0 70 -46.5 107t-116 60.5t-149.5 40t-149.5 46
t-115.5 78.5t-46 137q0 59 22.5 104.5t61.5 76t89 48t106 23.5q-2 57 -13.5 115.5t-39 105t-73.5 75t-120 28.5q-76 0 -124 -31t-76 -79t-38 -108.5t-10 -119.5v-981h-119z" />
    <glyph glyph-name="agrave" unicode="&#xe0;" horiz-adv-x="970" 
d="M86 279q0 135 94 209.5t244 78.5h84h70q39 2 78.5 9.5t72.5 41.5v95q0 43 -20.5 77.5t-53 58t-72.5 36t-79 12.5t-78 -8t-74 -24.5t-63.5 -45t-44.5 -67.5l-107 36q47 117 142.5 168.5t228.5 51.5q61 0 121.5 -20.5t108.5 -57.5t77 -90.5t29 -116.5v-563l33 -150
l-103 -24l-31 110q-76 -66 -147.5 -92.5t-155.5 -26.5q-74 0 -138 19.5t-112.5 57.5t-76 94.5t-27.5 130.5zM201 279q0 -51 21.5 -88t55 -61t76.5 -35t86 -11q88 0 156 29.5t133 93.5v305q-49 -27 -75.5 -33t-61.5 -6h-160q-43 0 -85 -11t-74.5 -35t-52 -60.5t-19.5 -87.5z
M324 1403h147l174 -309h-106z" />
    <glyph glyph-name="aacute" unicode="&#xe1;" horiz-adv-x="970" 
d="M86 279q0 135 94 209.5t244 78.5h84h70q39 2 78.5 9.5t72.5 41.5v95q0 43 -20.5 77.5t-53 58t-72.5 36t-79 12.5t-78 -8t-74 -24.5t-63.5 -45t-44.5 -67.5l-107 36q47 117 142.5 168.5t228.5 51.5q61 0 121.5 -20.5t108.5 -57.5t77 -90.5t29 -116.5v-563l33 -150
l-103 -24l-31 110q-76 -66 -147.5 -92.5t-155.5 -26.5q-74 0 -138 19.5t-112.5 57.5t-76 94.5t-27.5 130.5zM201 279q0 -51 21.5 -88t55 -61t76.5 -35t86 -11q88 0 156 29.5t133 93.5v305q-49 -27 -75.5 -33t-61.5 -6h-160q-43 0 -85 -11t-74.5 -35t-52 -60.5t-19.5 -87.5z
M324 1094l172 309h149l-215 -309h-106z" />
    <glyph glyph-name="acircumflex" unicode="&#xe2;" horiz-adv-x="970" 
d="M86 279q0 135 94 209.5t244 78.5h84h70q39 2 78.5 9.5t72.5 41.5v95q0 43 -20.5 77.5t-53 58t-72.5 36t-79 12.5t-78 -8t-74 -24.5t-63.5 -45t-44.5 -67.5l-107 36q47 117 142.5 168.5t228.5 51.5q61 0 121.5 -20.5t108.5 -57.5t77 -90.5t29 -116.5v-563l33 -150
l-103 -24l-31 110q-76 -66 -147.5 -92.5t-155.5 -26.5q-74 0 -138 19.5t-112.5 57.5t-76 94.5t-27.5 130.5zM201 279q0 -51 21.5 -88t55 -61t76.5 -35t86 -11q88 0 156 29.5t133 93.5v305q-49 -27 -75.5 -33t-61.5 -6h-160q-43 0 -85 -11t-74.5 -35t-52 -60.5t-19.5 -87.5z
M203 1096l221 303h121l221 -303h-133l-150 231l-147 -231h-133z" />
    <glyph glyph-name="atilde" unicode="&#xe3;" horiz-adv-x="970" 
d="M86 279q0 135 94 209.5t244 78.5h84h70q39 2 78.5 9.5t72.5 41.5v95q0 43 -20.5 77.5t-53 58t-72.5 36t-79 12.5t-78 -8t-74 -24.5t-63.5 -45t-44.5 -67.5l-107 36q47 117 142.5 168.5t228.5 51.5q61 0 121.5 -20.5t108.5 -57.5t77 -90.5t29 -116.5v-563l33 -150
l-103 -24l-31 110q-76 -66 -147.5 -92.5t-155.5 -26.5q-74 0 -138 19.5t-112.5 57.5t-76 94.5t-27.5 130.5zM184 1196q35 55 75 84t101 29q45 0 76 -17.5t57.5 -38t52 -38t62.5 -17.5q39 0 63.5 21.5t43.5 54.5l71 -66q-37 -51 -75.5 -81.5t-100.5 -30.5q-45 0 -75.5 17
t-56 37.5t-52.5 38t-64 17.5q-41 0 -64.5 -22.5t-43.5 -50.5zM201 279q0 -51 21.5 -88t55 -61t76.5 -35t86 -11q88 0 156 29.5t133 93.5v305q-49 -27 -75.5 -33t-61.5 -6h-160q-43 0 -85 -11t-74.5 -35t-52 -60.5t-19.5 -87.5z" />
    <glyph glyph-name="adieresis" unicode="&#xe4;" horiz-adv-x="970" 
d="M86 279q0 135 94 209.5t244 78.5h84h70q39 2 78.5 9.5t72.5 41.5v95q0 43 -20.5 77.5t-53 58t-72.5 36t-79 12.5t-78 -8t-74 -24.5t-63.5 -45t-44.5 -67.5l-107 36q47 117 142.5 168.5t228.5 51.5q61 0 121.5 -20.5t108.5 -57.5t77 -90.5t29 -116.5v-563l33 -150
l-103 -24l-31 110q-76 -66 -147.5 -92.5t-155.5 -26.5q-74 0 -138 19.5t-112.5 57.5t-76 94.5t-27.5 130.5zM201 279q0 -51 21.5 -88t55 -61t76.5 -35t86 -11q88 0 156 29.5t133 93.5v305q-49 -27 -75.5 -33t-61.5 -6h-160q-43 0 -85 -11t-74.5 -35t-52 -60.5t-19.5 -87.5z
M205 1200q0 39 25.5 65.5t64.5 26.5t65.5 -26.5t26.5 -65.5t-26.5 -64.5t-65.5 -25.5t-64.5 25.5t-25.5 64.5zM582 1200q0 39 27.5 65.5t64.5 26.5q39 0 65.5 -26.5t26.5 -65.5t-26.5 -64.5t-65.5 -25.5q-37 0 -64.5 25.5t-27.5 64.5z" />
    <glyph glyph-name="aring" unicode="&#xe5;" horiz-adv-x="970" 
d="M86 279q0 135 94 209.5t244 78.5h84h70q39 2 78.5 9.5t72.5 41.5v95q0 43 -20.5 77.5t-53 58t-72.5 36t-79 12.5t-78 -8t-74 -24.5t-63.5 -45t-44.5 -67.5l-107 36q47 117 142.5 168.5t228.5 51.5q61 0 121.5 -20.5t108.5 -57.5t77 -90.5t29 -116.5v-563l33 -150
l-103 -24l-31 110q-76 -66 -147.5 -92.5t-155.5 -26.5q-74 0 -138 19.5t-112.5 57.5t-76 94.5t-27.5 130.5zM201 279q0 -51 21.5 -88t55 -61t76.5 -35t86 -11q88 0 156 29.5t133 93.5v305q-49 -27 -75.5 -33t-61.5 -6h-160q-43 0 -85 -11t-74.5 -35t-52 -60.5t-19.5 -87.5z
M274 1309q0 43 16.5 80.5t45.5 66.5t67.5 45.5t83.5 16.5q43 0 81 -16.5t67 -45.5t45 -66.5t16 -80.5t-16 -82t-45 -69t-67 -46t-81 -16q-45 0 -83.5 16t-67.5 46t-45.5 69t-16.5 82zM373 1309q0 -47 33.5 -80t80.5 -33q45 0 78 33t33 80t-33 78.5t-78 31.5
q-47 0 -80.5 -31.5t-33.5 -78.5z" />
    <glyph glyph-name="ae" unicode="&#xe6;" horiz-adv-x="1581" 
d="M78 279q0 137 94 212.5t242 75.5h141h34.5t41 5.5t40 15.5t34.5 30v89q0 41 -19.5 74.5t-50.5 58t-70 38t-78 13.5q-35 0 -70.5 -6t-69.5 -21.5t-63.5 -44t-50.5 -74.5l-106 33q41 104 131 163.5t234 59.5q86 0 163.5 -39.5t130.5 -138.5q70 106 157 142t183 36
q100 0 172 -38.5t117 -103t65.5 -149.5t20.5 -178v-59h-680q4 -176 80 -276.5t242 -100.5q72 0 132 23.5t111 83.5l84 -80q-68 -78 -150.5 -109.5t-176.5 -31.5q-35 0 -79 4t-91 21.5t-93 50t-83 89.5q-90 -92 -175 -131t-198 -39q-72 0 -134.5 18.5t-109.5 56.5t-74.5 94.5
t-27.5 132.5zM190 283q0 -49 19.5 -85t52.5 -59.5t75 -36t89 -12.5q90 0 161.5 36t147.5 114q-18 59 -24 126.5t-6 145.5q-33 -23 -63 -31t-69 -8h-155q-43 0 -83 -11t-73 -33.5t-52.5 -58.5t-19.5 -87zM821 561h565q-2 68 -17 127.5t-46 104.5t-81 70.5t-120 25.5
q-141 0 -218 -90t-83 -238z" />
    <glyph glyph-name="ccedilla" unicode="&#xe7;" horiz-adv-x="964" 
d="M86 494q0 106 27.5 200t84 164t141.5 110t198 40q57 0 103 -9.5t86 -29t77 -49t74 -68.5l-86 -78q-53 55 -110.5 88t-143.5 33q-92 0 -155 -34t-100.5 -90t-53 -129t-15.5 -148q0 -76 15.5 -148t53 -128t100 -90t155.5 -34q86 0 143 33t111 88l86 -78
q-66 -66 -132.5 -104.5t-158.5 -46.5l57 -142l-133 -250h-135l174 259l-55 133q-104 8 -180 51t-127.5 110.5t-76 156.5t-24.5 190z" />
    <glyph glyph-name="egrave" unicode="&#xe8;" horiz-adv-x="989" 
d="M86 494q0 106 24.5 200t77 163t135.5 109t199 40q96 0 168 -35t119 -97.5t70.5 -146.5t23.5 -182v-70h-690q2 -84 19.5 -153.5t55.5 -120.5t99.5 -79t151.5 -28q160 0 254 103l81 -74q-66 -72 -146.5 -106.5t-188.5 -34.5q-119 0 -205 37.5t-141.5 106.5t-81 163
t-25.5 205zM213 563h575q-2 68 -17 128.5t-47 104.5t-82 70.5t-124 26.5q-76 0 -130 -23.5t-91 -66.5t-57.5 -104.5t-26.5 -135.5zM334 1403h149l172 -309h-106z" />
    <glyph glyph-name="eacute" unicode="&#xe9;" horiz-adv-x="989" 
d="M86 494q0 106 24.5 200t77 163t135.5 109t199 40q96 0 168 -35t119 -97.5t70.5 -146.5t23.5 -182v-70h-690q2 -84 19.5 -153.5t55.5 -120.5t99.5 -79t151.5 -28q160 0 254 103l81 -74q-66 -72 -146.5 -106.5t-188.5 -34.5q-119 0 -205 37.5t-141.5 106.5t-81 163
t-25.5 205zM213 563h575q-2 68 -17 128.5t-47 104.5t-82 70.5t-124 26.5q-76 0 -130 -23.5t-91 -66.5t-57.5 -104.5t-26.5 -135.5zM334 1094l174 309h147l-215 -309h-106z" />
    <glyph glyph-name="ecircumflex" unicode="&#xea;" horiz-adv-x="989" 
d="M86 494q0 106 24.5 200t77 163t135.5 109t199 40q96 0 168 -35t119 -97.5t70.5 -146.5t23.5 -182v-70h-690q2 -84 19.5 -153.5t55.5 -120.5t99.5 -79t151.5 -28q160 0 254 103l81 -74q-66 -72 -146.5 -106.5t-188.5 -34.5q-119 0 -205 37.5t-141.5 106.5t-81 163
t-25.5 205zM213 563h575q-2 68 -17 128.5t-47 104.5t-82 70.5t-124 26.5q-76 0 -130 -23.5t-91 -66.5t-57.5 -104.5t-26.5 -135.5zM213 1096l221 303h121l223 -303h-135l-149 231l-148 -231h-133z" />
    <glyph glyph-name="edieresis" unicode="&#xeb;" horiz-adv-x="989" 
d="M86 494q0 106 24.5 200t77 163t135.5 109t199 40q96 0 168 -35t119 -97.5t70.5 -146.5t23.5 -182v-70h-690q2 -84 19.5 -153.5t55.5 -120.5t99.5 -79t151.5 -28q160 0 254 103l81 -74q-66 -72 -146.5 -106.5t-188.5 -34.5q-119 0 -205 37.5t-141.5 106.5t-81 163
t-25.5 205zM213 563h575q-2 68 -17 128.5t-47 104.5t-82 70.5t-124 26.5q-76 0 -130 -23.5t-91 -66.5t-57.5 -104.5t-26.5 -135.5zM215 1200q0 39 25.5 65.5t64.5 26.5t65.5 -26.5t26.5 -65.5t-26.5 -64.5t-65.5 -25.5t-64.5 25.5t-25.5 64.5zM592 1200q0 39 27.5 65.5
t66.5 26.5q37 0 63.5 -26.5t26.5 -65.5t-26.5 -64.5t-63.5 -25.5q-39 0 -66.5 25.5t-27.5 64.5z" />
    <glyph glyph-name="igrave" unicode="&#xec;" horiz-adv-x="446" 
d="M-51 1403h149l172 -309h-106zM164 0v989h119v-989h-119z" />
    <glyph glyph-name="iacute" unicode="&#xed;" horiz-adv-x="444" 
d="M162 0v989h119v-989h-119zM172 1094l174 309h148l-213 -309h-109z" />
    <glyph glyph-name="icircumflex" unicode="&#xee;" horiz-adv-x="444" 
d="M-59 1096l219 303h123l221 -303h-133l-150 231l-147 -231h-133zM164 0v989h121v-989h-121z" />
    <glyph glyph-name="idieresis" unicode="&#xef;" horiz-adv-x="446" 
d="M-57 1200q0 39 25.5 65.5t64.5 26.5t65.5 -26.5t26.5 -65.5t-26.5 -64.5t-65.5 -25.5t-64.5 25.5t-25.5 64.5zM164 0v989h121v-989h-121zM319 1200q0 39 28 65.5t67 26.5q37 0 63.5 -26.5t26.5 -65.5t-26.5 -64.5t-63.5 -25.5q-39 0 -67 25.5t-28 64.5z" />
    <glyph glyph-name="eth" unicode="&#xf0;" horiz-adv-x="1101" 
d="M131 487q0 109 21.5 201t70.5 159.5t130 105.5t198 38q35 0 78 -6t102 -35l-102 226h-250v98h207l-119 262h111l116 -262h185v-98h-140q18 -37 40 -83t44.5 -93.5t45 -91.5t40.5 -77q43 -78 52.5 -168t9.5 -176q0 -109 -21.5 -200.5t-71 -159.5t-129 -106.5t-196.5 -38.5
q-121 0 -202 39.5t-130 108.5t-69.5 161t-20.5 196zM242 487q0 -78 11 -149.5t45 -126.5t94.5 -88t158.5 -33t159.5 34t95.5 89t45 126.5t11 147.5q0 78 -12 151t-46 128t-94.5 89t-158.5 34q-100 0 -160.5 -35t-93.5 -91t-44 -128t-11 -148z" />
    <glyph glyph-name="ntilde" unicode="&#xf1;" horiz-adv-x="1048" 
d="M141 0v989h105l4 -131q51 82 130 116t150 34q106 0 183.5 -32t124.5 -90.5t69.5 -141t22.5 -183.5v-561h-121v559q0 70 -12.5 130.5t-45 105.5t-87 69.5t-138.5 24.5q-57 0 -105 -20.5t-84 -54.5t-55.5 -76t-19.5 -85v-653h-121zM221 1196q37 55 77 84t101 29
q45 0 76 -17.5t56.5 -38t51 -38t62.5 -17.5q41 0 64.5 21.5t44.5 54.5l71 -66q-37 -51 -76.5 -81.5t-99.5 -30.5q-45 0 -75.5 17t-56 37.5t-52.5 38t-64 17.5q-41 0 -64.5 -22.5t-43.5 -50.5z" />
    <glyph glyph-name="ograve" unicode="&#xf2;" horiz-adv-x="1019" 
d="M86 492q0 111 21.5 203.5t71.5 162.5t131 109t200 39t200 -39t131 -109t71.5 -162.5t21.5 -203.5q0 -109 -21.5 -202t-71.5 -162t-131 -107.5t-200 -38.5t-200 38.5t-131 107.5t-71.5 162t-21.5 202zM209 492q0 -74 11 -145t43 -126t91.5 -89t155.5 -34q94 0 153.5 34
t92 89t44 126t11.5 145q0 76 -11.5 147.5t-43 126.5t-91 89t-155.5 34t-155.5 -34t-91.5 -89t-43 -127t-11 -147zM348 1403h150l172 -309h-107z" />
    <glyph glyph-name="oacute" unicode="&#xf3;" horiz-adv-x="1019" 
d="M86 492q0 111 21.5 203.5t71.5 162.5t131 109t200 39t200 -39t131 -109t71.5 -162.5t21.5 -203.5q0 -109 -21.5 -202t-71.5 -162t-131 -107.5t-200 -38.5t-200 38.5t-131 107.5t-71.5 162t-21.5 202zM209 492q0 -74 11 -145t43 -126t91.5 -89t155.5 -34q94 0 153.5 34
t92 89t44 126t11.5 145q0 76 -11.5 147.5t-43 126.5t-91 89t-155.5 34t-155.5 -34t-91.5 -89t-43 -127t-11 -147zM348 1094l174 309h148l-213 -309h-109z" />
    <glyph glyph-name="ocircumflex" unicode="&#xf4;" horiz-adv-x="1019" 
d="M86 492q0 111 21.5 203.5t71.5 162.5t131 109t200 39t200 -39t131 -109t71.5 -162.5t21.5 -203.5q0 -109 -21.5 -202t-71.5 -162t-131 -107.5t-200 -38.5t-200 38.5t-131 107.5t-71.5 162t-21.5 202zM209 492q0 -74 11 -145t43 -126t91.5 -89t155.5 -34q94 0 153.5 34
t92 89t44 126t11.5 145q0 76 -11.5 147.5t-43 126.5t-91 89t-155.5 34t-155.5 -34t-91.5 -89t-43 -127t-11 -147zM229 1096l220 303h122l222 -303h-134l-149 231l-150 -231h-131z" />
    <glyph glyph-name="otilde" unicode="&#xf5;" horiz-adv-x="1019" 
d="M86 492q0 111 21.5 203.5t71.5 162.5t131 109t200 39t200 -39t131 -109t71.5 -162.5t21.5 -203.5q0 -109 -21.5 -202t-71.5 -162t-131 -107.5t-200 -38.5t-200 38.5t-131 107.5t-71.5 162t-21.5 202zM209 492q0 -74 11 -145t43 -126t91.5 -89t155.5 -34q94 0 153.5 34
t92 89t44 126t11.5 145q0 76 -11.5 147.5t-43 126.5t-91 89t-155.5 34t-155.5 -34t-91.5 -89t-43 -127t-11 -147zM209 1196q35 55 76 84t102 29q45 0 76 -17.5t56.5 -38t51 -38t62.5 -17.5q39 0 63.5 21.5t44.5 54.5l70 -66q-37 -51 -76 -81.5t-100 -30.5q-45 0 -75 17
t-56.5 37.5t-53 38t-63.5 17.5q-39 0 -63.5 -22.5t-44.5 -50.5z" />
    <glyph glyph-name="odieresis" unicode="&#xf6;" horiz-adv-x="1019" 
d="M86 492q0 111 21.5 203.5t71.5 162.5t131 109t200 39t200 -39t131 -109t71.5 -162.5t21.5 -203.5q0 -109 -21.5 -202t-71.5 -162t-131 -107.5t-200 -38.5t-200 38.5t-131 107.5t-71.5 162t-21.5 202zM209 492q0 -74 11 -145t43 -126t91.5 -89t155.5 -34q94 0 153.5 34
t92 89t44 126t11.5 145q0 76 -11.5 147.5t-43 126.5t-91 89t-155.5 34t-155.5 -34t-91.5 -89t-43 -127t-11 -147zM229 1200q0 39 27 65.5t66 26.5q37 0 64.5 -26.5t27.5 -65.5t-28 -64.5t-64 -25.5q-39 0 -66 25.5t-27 64.5zM608 1200q0 39 27 65.5t65 26.5q39 0 65 -26.5
t26 -65.5t-26 -64.5t-65 -25.5t-65.5 25.5t-26.5 64.5z" />
    <glyph glyph-name="divide" unicode="&#xf7;" horiz-adv-x="1058" 
d="M115 510v102h831v-102h-831zM436 231q0 37 26.5 62.5t63.5 25.5t62.5 -25.5t25.5 -62.5t-25.5 -63.5t-62.5 -26.5t-63.5 27t-26.5 63zM436 891q0 37 26.5 63.5t63.5 26.5t62.5 -26.5t25.5 -63.5t-25.5 -62.5t-62.5 -25.5t-63.5 25.5t-26.5 62.5z" />
    <glyph glyph-name="oslash" unicode="&#xf8;" horiz-adv-x="1056" 
d="M86 492q0 109 21.5 202.5t71.5 162.5t131 108t200 39q59 0 109.5 -11.5t101.5 -38.5l27 50h98l-51 -95q80 -78 109.5 -186t29.5 -231q0 -109 -21.5 -202t-71.5 -162t-131 -107.5t-200 -38.5q-59 0 -110.5 11t-104.5 38l-25 -43h-94l47 88q-78 78 -107.5 186.5
t-29.5 229.5zM209 492q0 -76 14.5 -150t61.5 -145l379 649q-74 41 -154 41q-96 0 -155.5 -34t-91.5 -89t-43 -127t-11 -145zM352 139q39 -23 77 -32t81 -9q94 0 153.5 33t92 88t44 127t11.5 146q0 78 -14.5 151.5t-63.5 142.5z" />
    <glyph glyph-name="ugrave" unicode="&#xf9;" 
d="M121 412v577h121v-571q0 -72 12 -131.5t44 -100.5t86 -63.5t138 -22.5q43 0 90 15.5t86 44t64.5 69.5t25.5 95v665h121v-989h-104l-4 121q-63 -78 -137 -107.5t-144 -29.5q-213 0 -306 110.5t-93 317.5zM358 1403h150l172 -309h-107z" />
    <glyph glyph-name="uacute" unicode="&#xfa;" 
d="M121 412v577h121v-571q0 -72 12 -131.5t44 -100.5t86 -63.5t138 -22.5q43 0 90 15.5t86 44t64.5 69.5t25.5 95v665h121v-989h-104l-4 121q-63 -78 -137 -107.5t-144 -29.5q-213 0 -306 110.5t-93 317.5zM358 1094l174 309h148l-213 -309h-109z" />
    <glyph glyph-name="ucircumflex" unicode="&#xfb;" 
d="M121 412v577h121v-571q0 -72 12 -131.5t44 -100.5t86 -63.5t138 -22.5q43 0 90 15.5t86 44t64.5 69.5t25.5 95v665h121v-989h-104l-4 121q-63 -78 -137 -107.5t-144 -29.5q-213 0 -306 110.5t-93 317.5zM240 1096l219 303h123l221 -303h-133l-152 231l-147 -231h-131z
" />
    <glyph glyph-name="udieresis" unicode="&#xfc;" 
d="M121 412v577h121v-571q0 -72 12 -131.5t44 -100.5t86 -63.5t138 -22.5q43 0 90 15.5t86 44t64.5 69.5t25.5 95v665h121v-989h-104l-4 121q-63 -78 -137 -107.5t-144 -29.5q-213 0 -306 110.5t-93 317.5zM240 1200q0 39 26.5 65.5t65.5 26.5q37 0 64.5 -26.5t27.5 -65.5
t-27.5 -64.5t-64.5 -25.5q-39 0 -65.5 25.5t-26.5 64.5zM618 1200q0 39 27 65.5t66 26.5t64.5 -26.5t25.5 -65.5t-25.5 -64.5t-64.5 -25.5t-66 25.5t-27 64.5z" />
    <glyph glyph-name="yacute" unicode="&#xfd;" horiz-adv-x="964" 
d="M47 989h127l307 -839l307 839h130l-469 -1239q-41 -111 -116 -157t-186 -46h-26v107h24q86 0 129 36t66 99l78 205zM322 1094l172 309h149l-215 -309h-106z" />
    <glyph glyph-name="thorn" unicode="&#xfe;" horiz-adv-x="1048" 
d="M170 -442v1872h121v-549q57 74 129 98.5t137 24.5q117 0 195.5 -41t125 -112t66 -163t19.5 -192q0 -104 -19.5 -196.5t-67 -162t-125 -110.5t-192.5 -41q-68 0 -141.5 24.5t-126.5 91.5v-544h-121zM291 346q0 -57 21.5 -101t58.5 -75t85 -46t101 -15q94 0 150.5 35.5
t86 91t39 124t9.5 136.5q0 70 -9.5 138t-40 123.5t-87 90.5t-148.5 35q-53 0 -101 -16.5t-85 -47.5t-58.5 -75t-21.5 -99v-299z" />
    <glyph glyph-name="ydieresis" unicode="&#xff;" horiz-adv-x="964" 
d="M47 989h127l307 -839l307 839h130l-469 -1239q-41 -111 -116 -157t-186 -46h-26v107h24q86 0 129 36t66 99l78 205zM201 1200q0 39 26.5 65.5t65.5 26.5t65.5 -26.5t26.5 -65.5t-26.5 -64.5t-65.5 -25.5t-65.5 25.5t-26.5 64.5zM580 1200q0 39 26.5 65.5t65.5 26.5
t65.5 -26.5t26.5 -65.5t-26.5 -64.5t-65.5 -25.5t-65.5 25.5t-26.5 64.5z" />
    <glyph glyph-name="Amacron" unicode="&#x100;" horiz-adv-x="1292" 
d="M23 0l548 1430h148l549 -1430h-135l-162 424h-652l-159 -424h-137zM360 1589v101h570v-101h-570zM362 537h566l-283 745z" />
    <glyph glyph-name="amacron" unicode="&#x101;" horiz-adv-x="970" 
d="M86 279q0 135 94 209.5t244 78.5h84h70q39 2 78.5 9.5t72.5 41.5v95q0 43 -20.5 77.5t-53 58t-72.5 36t-79 12.5t-78 -8t-74 -24.5t-63.5 -45t-44.5 -67.5l-107 36q47 117 142.5 168.5t228.5 51.5q61 0 121.5 -20.5t108.5 -57.5t77 -90.5t29 -116.5v-563l33 -150
l-103 -24l-31 110q-76 -66 -147.5 -92.5t-155.5 -26.5q-74 0 -138 19.5t-112.5 57.5t-76 94.5t-27.5 130.5zM201 279q0 -51 21.5 -88t55 -61t76.5 -35t86 -11q88 0 156 29.5t133 93.5v305q-49 -27 -75.5 -33t-61.5 -6h-160q-43 0 -85 -11t-74.5 -35t-52 -60.5t-19.5 -87.5z
M201 1137v100h569v-100h-569z" />
    <glyph glyph-name="Abreve" unicode="&#x102;" horiz-adv-x="1292" 
d="M23 0l548 1430h148l549 -1430h-135l-162 424h-652l-159 -424h-137zM322 1827h96q41 -80 93 -128t134 -48t134 48t95 128h97q-47 -125 -128 -196.5t-198 -71.5q-115 0 -195.5 71.5t-127.5 196.5zM362 537h566l-283 745z" />
    <glyph glyph-name="abreve" unicode="&#x103;" horiz-adv-x="970" 
d="M86 279q0 135 94 209.5t244 78.5h84h70q39 2 78.5 9.5t72.5 41.5v95q0 43 -20.5 77.5t-53 58t-72.5 36t-79 12.5t-78 -8t-74 -24.5t-63.5 -45t-44.5 -67.5l-107 36q47 117 142.5 168.5t228.5 51.5q61 0 121.5 -20.5t108.5 -57.5t77 -90.5t29 -116.5v-563l33 -150
l-103 -24l-31 110q-76 -66 -147.5 -92.5t-155.5 -26.5q-74 0 -138 19.5t-112.5 57.5t-76 94.5t-27.5 130.5zM162 1374h96q41 -80 93 -128t134 -48t134.5 48t95.5 128h96q-47 -125 -128 -196.5t-198 -71.5q-115 0 -195.5 71.5t-127.5 196.5zM201 279q0 -51 21.5 -88t55 -61
t76.5 -35t86 -11q88 0 156 29.5t133 93.5v305q-49 -27 -75.5 -33t-61.5 -6h-160q-43 0 -85 -11t-74.5 -35t-52 -60.5t-19.5 -87.5z" />
    <glyph glyph-name="Aogonek" unicode="&#x104;" horiz-adv-x="1292" 
d="M23 0l548 1430h148l549 -1430h-35l254 -403h-137l-217 403l-162 424h-652l-159 -424h-137zM362 537h566l-283 745z" />
    <glyph glyph-name="aogonek" unicode="&#x105;" horiz-adv-x="970" 
d="M86 279q0 135 94 209.5t244 78.5h84h70q39 2 78.5 9.5t72.5 41.5v95q0 43 -20.5 77.5t-53 58t-72.5 36t-79 12.5t-78 -8t-74 -24.5t-63.5 -45t-44.5 -67.5l-107 36q47 117 142.5 168.5t228.5 51.5q61 0 121.5 -20.5t108.5 -57.5t77 -90.5t29 -116.5v-563l35 -148l-23 -6
l264 -409h-139l-207 389l-31 110q-76 -66 -147.5 -92.5t-155.5 -26.5q-74 0 -138 19.5t-112.5 57.5t-76 94.5t-27.5 130.5zM201 279q0 -51 21.5 -88t55 -61t76.5 -35t86 -11q88 0 156 29.5t133 93.5v305q-49 -27 -75.5 -33t-61.5 -6h-160q-43 0 -85 -11t-74.5 -35t-52 -60.5
t-19.5 -87.5z" />
    <glyph glyph-name="Cacute" unicode="&#x106;" horiz-adv-x="1200" 
d="M90 715q0 143 31 275t99.5 233.5t179 163t270.5 61.5q74 0 135 -13.5t113.5 -41t99.5 -67.5t94 -95l-92 -86q-72 82 -150.5 129t-199.5 47q-135 0 -222.5 -55.5t-138.5 -142.5t-70.5 -194.5t-19.5 -213.5t19.5 -214t70.5 -195t138.5 -142t222.5 -55q121 0 200.5 48
t151.5 132l92 -84q-49 -55 -95 -97t-98.5 -70t-112.5 -42t-138 -14q-160 0 -269.5 61t-179 162.5t-100.5 234.5t-31 275zM522 1546l174 309h148l-213 -309h-109z" />
    <glyph glyph-name="cacute" unicode="&#x107;" horiz-adv-x="964" 
d="M86 494q0 -106 27.5 -199.5t84 -162.5t141.5 -108.5t198 -39.5q57 0 103 9t86 27.5t77 47t74 69.5l-86 78q-53 -55 -110.5 -88t-143.5 -33q-94 0 -157 34t-99.5 90t-52 128t-15.5 148t15.5 148.5t52 128.5t99 90t157.5 34q86 0 143 -33t111 -88l86 78q-74 78 -151 117
t-189 39q-113 0 -198 -40t-141.5 -110t-84 -164t-27.5 -200zM336 1094l174 309h147l-213 -309h-108z" />
    <glyph glyph-name="Ccircumflex" unicode="&#x108;" horiz-adv-x="1200" 
d="M90 715q0 143 31 275t99.5 233.5t179 163t270.5 61.5q74 0 135 -13.5t113.5 -41t99.5 -67.5t94 -95l-92 -86q-72 82 -150.5 129t-199.5 47q-135 0 -222.5 -55.5t-138.5 -142.5t-70.5 -194.5t-19.5 -213.5t19.5 -214t70.5 -195t138.5 -142t222.5 -55q121 0 200.5 48
t151.5 132l92 -84q-49 -55 -95 -97t-98.5 -70t-112.5 -42t-138 -14q-160 0 -269.5 61t-179 162.5t-100.5 234.5t-31 275zM377 1548l221 303h123l221 -303h-135l-150 232l-147 -232h-133z" />
    <glyph glyph-name="ccircumflex" unicode="&#x109;" horiz-adv-x="964" 
d="M86 494q0 -106 27.5 -199.5t84 -162.5t141.5 -108.5t198 -39.5q57 0 103 9t86 27.5t77 47t74 69.5l-86 78q-53 -55 -110.5 -88t-143.5 -33q-94 0 -157 34t-99.5 90t-52 128t-15.5 148t15.5 148.5t52 128.5t99 90t157.5 34q86 0 143 -33t111 -88l86 78q-74 78 -151 117
t-189 39q-113 0 -198 -40t-141.5 -110t-84 -164t-27.5 -200zM201 1096l219 303h123l221 -303h-133l-150 231l-149 -231h-131z" />
    <glyph glyph-name="Cdotaccent" unicode="&#x10a;" horiz-adv-x="1200" 
d="M90 715q0 143 31 275t99.5 233.5t179 163t270.5 61.5q74 0 135 -13.5t113.5 -41t99.5 -67.5t94 -95l-92 -86q-72 82 -150.5 129t-199.5 47q-135 0 -222.5 -55.5t-138.5 -142.5t-70.5 -194.5t-19.5 -213.5t19.5 -214t70.5 -195t138.5 -142t222.5 -55q121 0 200.5 48
t151.5 132l92 -84q-49 -55 -95 -97t-98.5 -70t-112.5 -42t-138 -14q-160 0 -269.5 61t-179 162.5t-100.5 234.5t-31 275zM565 1653q0 43 30 72.5t71 29.5q43 0 72.5 -29.5t29.5 -72.5q0 -41 -29.5 -71t-72.5 -30q-41 0 -71 30t-30 71z" />
    <glyph glyph-name="cdotaccent" unicode="&#x10b;" horiz-adv-x="964" 
d="M86 494q0 -106 27.5 -199.5t84 -162.5t141.5 -108.5t198 -39.5q57 0 103 9t86 27.5t77 47t74 69.5l-86 78q-53 -55 -110.5 -88t-143.5 -33q-94 0 -157 34t-99.5 90t-52 128t-15.5 148t15.5 148.5t52 128.5t99 90t157.5 34q86 0 143 -33t111 -88l86 78q-74 78 -151 117
t-189 39q-113 0 -198 -40t-141.5 -110t-84 -164t-27.5 -200zM393 1200q0 43 30 73t71 30q43 0 72.5 -30t29.5 -73q0 -41 -29.5 -70.5t-72.5 -29.5q-41 0 -71 29.5t-30 70.5z" />
    <glyph glyph-name="Ccaron" unicode="&#x10c;" horiz-adv-x="1200" 
d="M90 715q0 143 31 275t99.5 233.5t179 163t270.5 61.5q74 0 135 -13.5t113.5 -41t99.5 -67.5t94 -95l-92 -86q-72 82 -150.5 129t-199.5 47q-135 0 -222.5 -55.5t-138.5 -142.5t-70.5 -194.5t-19.5 -213.5t19.5 -214t70.5 -195t138.5 -142t222.5 -55q121 0 200.5 48
t151.5 132l92 -84q-49 -55 -95 -97t-98.5 -70t-112.5 -42t-138 -14q-160 0 -269.5 61t-179 162.5t-100.5 234.5t-31 275zM393 1851h131l148 -231l151 231h133l-221 -303h-123z" />
    <glyph glyph-name="ccaron" unicode="&#x10d;" horiz-adv-x="964" 
d="M86 494q0 106 27.5 200t84 164t141.5 110t198 40t189.5 -39t150.5 -117l-86 -78q-53 55 -110.5 88t-143.5 33q-94 0 -157 -34t-99.5 -90t-52 -129t-15.5 -148q0 -76 15.5 -148t52 -128t99 -90t157.5 -34q86 0 143 33t111 88l86 -78q-37 -41 -74 -69.5t-77 -47t-86 -27.5
t-103 -9q-113 0 -198 39.5t-141.5 108.5t-84 162t-27.5 200zM201 1399h131l149 -232l150 232h133l-221 -303h-123z" />
    <glyph glyph-name="Dcaron" unicode="&#x10e;" horiz-adv-x="1294" 
d="M152 0v1430h407q213 0 336 -43.5t186.5 -131.5t80 -222t16.5 -318q0 -182 -16.5 -317.5t-80 -223.5t-186.5 -131t-336 -43h-407zM279 127h301q172 0 268 34t143 111q23 39 35 89.5t17.5 108.5t5.5 121v124v122.5t-5.5 120t-17.5 110.5t-35 91q-47 78 -143 112t-268 34
h-301v-1178zM365 1851h133l147 -231l150 231h133l-221 -303h-121z" />
    <glyph glyph-name="dcaron" unicode="&#x10f;" horiz-adv-x="1032" 
d="M86 496q0 104 20.5 196t67.5 162t125 111t195 41q31 0 66.5 -7.5t71.5 -22.5t67.5 -40t56.5 -62v556h121v-1258l5 -24q5 -25 12 -55t12 -54.5t5 -26.5l-106 -28l-29 131q-55 -74 -132 -103.5t-155 -29.5q-117 0 -194.5 40.5t-123.5 110.5t-65.5 163t-19.5 200zM209 494
q0 -68 9 -138.5t39 -128t85 -93.5t150 -36q53 0 101 16.5t84 47.5t57.5 76t21.5 100v311q0 55 -20.5 99.5t-56.5 76t-84 48t-101 16.5q-94 0 -150.5 -36t-86.5 -93.5t-39 -127t-9 -138.5zM975 1106v328q0 29 21.5 50t50.5 21t50 -21.5t21 -49.5v-328h-143z" />
    <glyph glyph-name="Dcroat" unicode="&#x110;" horiz-adv-x="1341" 
d="M92 659v103h88v668h428q111 0 208 -13.5t174 -54.5t128 -117t70 -203q10 -70 13 -156.5t3 -170.5q0 -82 -3 -170t-13 -156q-18 -127 -69.5 -203.5t-128.5 -117.5t-174 -54.5t-208 -13.5h-428v659h-88zM309 127h299q88 0 164 7t136.5 35t99.5 85t53 160q10 70 12 149.5
t2 151.5t-2 152.5t-12 150.5q-14 100 -55 158.5t-100.5 86t-136.5 35t-161 7.5h-299v-543h320v-103h-320v-532z" />
    <glyph glyph-name="dcroat" unicode="&#x111;" horiz-adv-x="1032" 
d="M86 496q0 104 20.5 196t67.5 162t125 111t195 41q31 0 66.5 -7.5t71.5 -22.5t67.5 -40t56.5 -62v279h-275v104h275v173h121v-173h155v-104h-155v-981l5 -24q5 -25 12 -55t12 -54.5t5 -26.5l-106 -28l-29 131q-55 -74 -132 -103.5t-155 -29.5q-117 0 -194.5 40.5
t-123.5 110.5t-65.5 163t-19.5 200zM209 494q0 -68 9 -138.5t39 -128t85 -93.5t150 -36q53 0 101 16.5t84 47.5t57.5 76t21.5 100v311q0 55 -20.5 99.5t-56.5 76t-84 48t-101 16.5q-94 0 -150.5 -36t-86.5 -93.5t-39 -127t-9 -138.5z" />
    <glyph glyph-name="Emacron" unicode="&#x112;" horiz-adv-x="1169" 
d="M152 0v1430h915v-125h-788v-506h688v-119h-688v-555h788v-125h-915zM299 1589v101h569v-101h-569z" />
    <glyph glyph-name="emacron" unicode="&#x113;" horiz-adv-x="989" 
d="M86 494q0 106 24.5 200t77 163t135.5 109t199 40q96 0 168 -35t119 -97.5t70.5 -146.5t23.5 -182v-70h-690q2 -84 19.5 -153.5t55.5 -120.5t99.5 -79t151.5 -28q160 0 254 103l81 -74q-66 -72 -146.5 -106.5t-188.5 -34.5q-119 0 -205 37.5t-141.5 106.5t-81 163
t-25.5 205zM211 1137v100h569v-100h-569zM213 563h575q-2 68 -17 128.5t-47 104.5t-82 70.5t-124 26.5q-76 0 -130 -23.5t-91 -66.5t-57.5 -104.5t-26.5 -135.5z" />
    <glyph glyph-name="Ebreve" unicode="&#x114;" horiz-adv-x="1169" 
d="M152 0v1430h915v-125h-788v-506h688v-119h-688v-555h788v-125h-915zM260 1827h96q41 -80 94.5 -128t133.5 -48q84 0 136 48t93 128h96q-47 -125 -128 -196.5t-197 -71.5q-115 0 -196 71.5t-128 196.5z" />
    <glyph glyph-name="ebreve" unicode="&#x115;" horiz-adv-x="989" 
d="M86 494q0 106 24.5 200t77 163t135.5 109t199 40q96 0 168 -35t119 -97.5t70.5 -146.5t23.5 -182v-70h-690q2 -84 19.5 -153.5t55.5 -120.5t99.5 -79t151.5 -28q160 0 254 103l81 -74q-66 -72 -146.5 -106.5t-188.5 -34.5q-119 0 -205 37.5t-141.5 106.5t-81 163
t-25.5 205zM170 1374h96q41 -80 94.5 -128t133.5 -48q84 0 136 48t93 128h96q-47 -125 -128 -196.5t-197 -71.5q-115 0 -196 71.5t-128 196.5zM213 563h575q-2 68 -17 128.5t-47 104.5t-82 70.5t-124 26.5q-76 0 -130 -23.5t-91 -66.5t-57.5 -104.5t-26.5 -135.5z" />
    <glyph glyph-name="Edotaccent" unicode="&#x116;" horiz-adv-x="1169" 
d="M152 0v1430h915v-125h-788v-506h688v-119h-688v-555h788v-125h-915zM483 1653q0 43 30 72.5t71 29.5q43 0 72.5 -29.5t29.5 -72.5q0 -41 -29.5 -71t-72.5 -30q-41 0 -71 30t-30 71z" />
    <glyph glyph-name="edotaccent" unicode="&#x117;" horiz-adv-x="989" 
d="M86 494q0 106 24.5 200t77 163t135.5 109t199 40q96 0 168 -35t119 -97.5t70.5 -146.5t23.5 -182v-70h-690q2 -84 19.5 -153.5t55.5 -120.5t99.5 -79t151.5 -28q160 0 254 103l81 -74q-66 -72 -146.5 -106.5t-188.5 -34.5q-119 0 -205 37.5t-141.5 106.5t-81 163
t-25.5 205zM213 563h575q-2 68 -17 128.5t-47 104.5t-82 70.5t-124 26.5q-76 0 -130 -23.5t-91 -66.5t-57.5 -104.5t-26.5 -135.5zM393 1200q0 43 30 73t71 30q43 0 72.5 -30t29.5 -73q0 -41 -29.5 -70.5t-72.5 -29.5q-41 0 -71 29.5t-30 70.5z" />
    <glyph glyph-name="Eogonek" unicode="&#x118;" horiz-adv-x="1169" 
d="M152 0v1430h915v-125h-788v-506h688v-119h-688v-555h788v-125l252 -403h-139l-219 403h-809z" />
    <glyph glyph-name="eogonek" unicode="&#x119;" horiz-adv-x="989" 
d="M86 494q0 106 24.5 200t77 163t135.5 109t199 40q96 0 168 -35t119 -97.5t70.5 -146.5t23.5 -182v-70h-690q2 -84 19.5 -153.5t55.5 -120.5t99.5 -79t151.5 -28q160 0 254 103l81 -74q-39 -41 -80.5 -69.5t-93.5 -45.5l258 -411h-139l-211 389q-16 -2 -34.5 -3t-34.5 -1
q-119 0 -205 37.5t-141.5 106.5t-81 163t-25.5 205zM213 563h575q-2 68 -17 128.5t-47 104.5t-82 70.5t-124 26.5q-76 0 -130 -23.5t-91 -66.5t-57.5 -104.5t-26.5 -135.5z" />
    <glyph glyph-name="Ecaron" unicode="&#x11a;" horiz-adv-x="1169" 
d="M152 0v1430h915v-125h-788v-506h688v-119h-688v-555h788v-125h-915zM326 1851h133l147 -231l150 231h135l-221 -303h-123z" />
    <glyph glyph-name="ecaron" unicode="&#x11b;" horiz-adv-x="989" 
d="M86 494q0 106 24.5 200t77 163t135.5 109t199 40q96 0 168 -35t119 -97.5t70.5 -146.5t23.5 -182v-70h-690q2 -84 19.5 -153.5t55.5 -120.5t99.5 -79t151.5 -28q160 0 254 103l81 -74q-66 -72 -146.5 -106.5t-188.5 -34.5q-119 0 -205 37.5t-141.5 106.5t-81 163
t-25.5 205zM213 563h575q-2 68 -17 128.5t-47 104.5t-82 70.5t-124 26.5q-76 0 -130 -23.5t-91 -66.5t-57.5 -104.5t-26.5 -135.5zM213 1399h133l148 -232l149 232h135l-223 -303h-121z" />
    <glyph glyph-name="Gcircumflex" unicode="&#x11c;" horiz-adv-x="1275" 
d="M90 715q0 141 31 273t100.5 234.5t178 164t266.5 61.5q74 0 135 -14.5t113.5 -43t98.5 -70.5t91 -97l-90 -80q-72 84 -150 131t-198 47q-135 0 -222.5 -54.5t-137.5 -141.5t-69.5 -195.5t-19.5 -214.5q0 -104 19.5 -212t68.5 -195t135 -143t219 -56q111 0 181.5 45
t111.5 118.5t56.5 166.5t15.5 192h-346v114h473v-745h-115v236q-59 -143 -152 -198.5t-229 -55.5q-158 0 -265 62t-173.5 164.5t-96.5 234.5t-30 272zM356 1548l219 303h123l222 -303h-134l-151 232l-148 -232h-131z" />
    <glyph glyph-name="gcircumflex" unicode="&#x11d;" horiz-adv-x="1009" 
d="M82 -121q0 16 2 34.5t8 35.5l109 -33q-2 -10 -3 -18.5t-1 -18.5q0 -43 28.5 -73.5t70.5 -51t90 -30t87 -9.5q53 0 114.5 15.5t114 47.5t86 79t33.5 110q0 31 -13 54.5t-34.5 38t-48.5 21.5t-51 7q-41 0 -81 -7t-80 -15.5t-80 -15.5t-81 -7q-76 0 -134 34t-58 107
q0 53 29.5 108.5t91.5 100.5q-88 47 -119 123t-31 156q0 170 93 252t261 82q66 0 130.5 -13.5t117.5 -58.5q76 29 86 100h105q-4 -55 -31 -103t-92 -77q23 -53 32 -97t9 -85q0 -166 -95.5 -248t-263.5 -82q-29 0 -54.5 3t-59.5 11q-41 -27 -75 -65.5t-34 -89.5
q0 -43 25.5 -55.5t54.5 -12.5q45 0 88 9.5t87 19.5t87 19t88 9q51 0 96 -15t79 -44t53.5 -70t19.5 -92q0 -84 -41 -151.5t-106.5 -113.5t-147.5 -70.5t-162 -24.5q-68 0 -138.5 15.5t-128.5 47t-95 82.5t-37 125zM223 1096l219 303h123l221 -303h-133l-151 231l-148 -231
h-131zM246 672q0 -117 62.5 -172.5t176.5 -55.5q117 0 179.5 55.5t62.5 172.5t-64.5 170t-175.5 53q-113 0 -177 -53.5t-64 -169.5z" />
    <glyph glyph-name="Gbreve" unicode="&#x11e;" horiz-adv-x="1275" 
d="M90 715q0 141 31 273t100.5 234.5t178 164t266.5 61.5q74 0 135 -14.5t113.5 -43t98.5 -70.5t91 -97l-90 -80q-72 84 -150 131t-198 47q-135 0 -222.5 -54.5t-137.5 -141.5t-69.5 -195.5t-19.5 -214.5q0 -104 19.5 -212t68.5 -195t135 -143t219 -56q111 0 181.5 45
t111.5 118.5t56.5 166.5t15.5 192h-346v114h473v-745h-115v236q-59 -143 -152 -198.5t-229 -55.5q-158 0 -265 62t-173.5 164.5t-96.5 234.5t-30 272zM313 1827h97q41 -80 93 -128t134 -48t134 48t95 128h97q-49 -125 -129 -196.5t-197 -71.5q-115 0 -196 71.5t-128 196.5z
" />
    <glyph glyph-name="gbreve" unicode="&#x11f;" horiz-adv-x="1009" 
d="M82 -121q0 16 2 34.5t8 35.5l109 -33q-2 -10 -3 -18.5t-1 -18.5q0 -43 28.5 -73.5t70.5 -51t90 -30t87 -9.5q53 0 114.5 15.5t114 47.5t86 79t33.5 110q0 31 -13 54.5t-34.5 38t-48.5 21.5t-51 7q-41 0 -81 -7t-80 -15.5t-80 -15.5t-81 -7q-76 0 -134 34t-58 107
q0 53 29.5 108.5t91.5 100.5q-88 47 -119 123t-31 156q0 170 93 252t261 82q66 0 130.5 -13.5t117.5 -58.5q76 29 86 100h105q-4 -55 -31 -103t-92 -77q23 -53 32 -97t9 -85q0 -166 -95.5 -248t-263.5 -82q-29 0 -54.5 3t-59.5 11q-41 -27 -75 -65.5t-34 -89.5
q0 -43 25.5 -55.5t54.5 -12.5q45 0 88 9.5t87 19.5t87 19t88 9q51 0 96 -15t79 -44t53.5 -70t19.5 -92q0 -84 -41 -151.5t-106.5 -113.5t-147.5 -70.5t-162 -24.5q-68 0 -138.5 15.5t-128.5 47t-95 82.5t-37 125zM180 1374h96q41 -80 93.5 -128t134.5 -48t134 48t95 128h96
q-49 -125 -128.5 -196.5t-196.5 -71.5q-115 0 -196 71.5t-128 196.5zM246 672q0 -117 62.5 -172.5t176.5 -55.5q117 0 179.5 55.5t62.5 172.5t-64.5 170t-175.5 53q-113 0 -177 -53.5t-64 -169.5z" />
    <glyph glyph-name="Gdotaccent" unicode="&#x120;" horiz-adv-x="1275" 
d="M90 715q0 141 31 273t100.5 234.5t178 164t266.5 61.5q74 0 135 -14.5t113.5 -43t98.5 -70.5t91 -97l-90 -80q-72 84 -150 131t-198 47q-135 0 -222.5 -54.5t-137.5 -141.5t-69.5 -195.5t-19.5 -214.5q0 -104 19.5 -212t68.5 -195t135 -143t219 -56q111 0 181.5 45
t111.5 118.5t56.5 166.5t15.5 192h-346v114h473v-745h-115v236q-59 -143 -152 -198.5t-229 -55.5q-158 0 -265 62t-173.5 164.5t-96.5 234.5t-30 272zM535 1653q0 43 29.5 72.5t70.5 29.5q43 0 73.5 -29.5t30.5 -72.5q0 -41 -30.5 -71t-73.5 -30q-41 0 -70.5 30t-29.5 71z
" />
    <glyph glyph-name="gdotaccent" unicode="&#x121;" horiz-adv-x="1009" 
d="M82 -121q0 16 2 34.5t8 35.5l109 -33q-2 -10 -3 -18.5t-1 -18.5q0 -43 28.5 -73.5t70.5 -51t90 -30t87 -9.5q53 0 114.5 15.5t114 47.5t86 79t33.5 110q0 31 -13 54.5t-34.5 38t-48.5 21.5t-51 7q-41 0 -81 -7t-80 -15.5t-80 -15.5t-81 -7q-76 0 -134 34t-58 107
q0 53 29.5 108.5t91.5 100.5q-88 47 -119 123t-31 156q0 170 93 252t261 82q66 0 130.5 -13.5t117.5 -58.5q76 29 86 100h105q-4 -55 -31 -103t-92 -77q23 -53 32 -97t9 -85q0 -166 -95.5 -248t-263.5 -82q-29 0 -54.5 3t-59.5 11q-41 -27 -75 -65.5t-34 -89.5
q0 -43 25.5 -55.5t54.5 -12.5q45 0 88 9.5t87 19.5t87 19t88 9q51 0 96 -15t79 -44t53.5 -70t19.5 -92q0 -84 -41 -151.5t-106.5 -113.5t-147.5 -70.5t-162 -24.5q-68 0 -138.5 15.5t-128.5 47t-95 82.5t-37 125zM246 672q0 -117 62.5 -172.5t176.5 -55.5q117 0 179.5 55.5
t62.5 172.5t-64.5 170t-175.5 53q-113 0 -177 -53.5t-64 -169.5zM403 1200q0 43 30 73t71 30q43 0 72.5 -30t29.5 -73q0 -41 -29.5 -70.5t-72.5 -29.5q-41 0 -71 29.5t-30 70.5z" />
    <glyph glyph-name="Gcommaaccent" unicode="&#x122;" horiz-adv-x="1275" 
d="M90 715q0 141 31 273t100.5 234.5t178 164t266.5 61.5q74 0 135 -14.5t113.5 -43t98.5 -70.5t91 -97l-90 -80q-72 84 -150 131t-198 47q-135 0 -222.5 -54.5t-137.5 -141.5t-69.5 -195.5t-19.5 -214.5q0 -104 19.5 -212t68.5 -195t135 -143t219 -56q111 0 181.5 45
t111.5 118.5t56.5 166.5t15.5 192h-346v114h473v-745h-115v236q-59 -143 -152 -198.5t-229 -55.5q-158 0 -265 62t-173.5 164.5t-96.5 234.5t-30 272zM582 -236q0 35 24.5 58.5t59.5 23.5q41 0 64.5 -23.5t23.5 -58.5v-73l-136 -215h-36v288z" />
    <glyph glyph-name="gcommaaccent" unicode="&#x123;" horiz-adv-x="1009" 
d="M82 -121q0 16 2 34.5t8 35.5l109 -33q-2 -10 -3 -18.5t-1 -18.5q0 -43 28.5 -73.5t70.5 -51t90 -30t87 -9.5q53 0 114.5 15.5t114 47.5t86 79t33.5 110q0 31 -13 54.5t-34.5 38t-48.5 21.5t-51 7q-41 0 -81 -7t-80 -15.5t-80 -15.5t-81 -7q-76 0 -134 34t-58 107
q0 53 29.5 108.5t91.5 100.5q-88 47 -119 123t-31 156q0 170 93 252t261 82q66 0 130.5 -13.5t117.5 -58.5q76 29 86 100h105q-4 -55 -31 -103t-92 -77q23 -53 32 -97t9 -85q0 -166 -95.5 -248t-263.5 -82q-29 0 -54.5 3t-59.5 11q-41 -27 -75 -65.5t-34 -89.5
q0 -43 25.5 -55.5t54.5 -12.5q45 0 88 9.5t87 19.5t87 19t88 9q51 0 96 -15t79 -44t53.5 -70t19.5 -92q0 -84 -41 -151.5t-106.5 -113.5t-147.5 -70.5t-162 -24.5q-68 0 -138.5 15.5t-128.5 47t-95 82.5t-37 125zM246 672q0 -117 62.5 -172.5t176.5 -55.5q117 0 179.5 55.5
t62.5 172.5t-64.5 170t-175.5 53q-113 0 -177 -53.5t-64 -169.5zM418 1165v74l135 215h37v-289q0 -35 -24.5 -58.5t-59.5 -23.5q-41 0 -64.5 23.5t-23.5 58.5z" />
    <glyph glyph-name="Hcircumflex" unicode="&#x124;" horiz-adv-x="1337" 
d="M152 0v1430h127v-631h780v631h129v-1430h-129v680h-780v-680h-127zM387 1548l219 303h123l221 -303h-133l-149 232l-148 -232h-133z" />
    <glyph glyph-name="hcircumflex" unicode="&#x125;" 
d="M-82 1520l219 305h123l221 -305h-133l-149 231l-148 -231h-133zM141 0v1430h121v-566q23 39 55.5 66.5t69.5 44t76 25t76 8.5q104 0 178 -33t122 -91.5t69.5 -140t21.5 -180.5v-563h-121v563q0 70 -13.5 129.5t-45 103.5t-87 68.5t-137.5 24.5q-45 0 -92 -16.5t-85 -46
t-62.5 -70.5t-24.5 -92v-664h-121z" />
    <glyph glyph-name="Hbar" unicode="&#x126;" horiz-adv-x="1337" 
d="M0 1049v90h152v291h127v-291h780v291h129v-291h149v-90h-149v-1049h-129v680h-780v-680h-127v1049h-152zM279 799h780v250h-780v-250z" />
    <glyph glyph-name="hbar" unicode="&#x127;" 
d="M141 0v1430h121v-154h543v-90h-543v-322q23 39 55.5 66.5t69.5 44t76 25t76 8.5q104 0 178 -33t122 -91.5t69.5 -140t21.5 -180.5v-563h-121v563q0 70 -13.5 129.5t-45 103.5t-87 68.5t-137.5 24.5q-45 0 -92 -16.5t-85 -46t-62.5 -70.5t-24.5 -92v-664h-121z" />
    <glyph glyph-name="Itilde" unicode="&#x128;" horiz-adv-x="491" 
d="M-55 1649q35 55 75.5 83.5t102.5 28.5q45 0 75.5 -17.5t56.5 -37.5t51.5 -37.5t62.5 -17.5q41 0 64.5 21.5t43.5 53.5l70 -65q-35 -51 -75 -82t-101 -31q-45 0 -75 17.5t-55.5 38t-52 38t-63.5 17.5q-41 0 -65.5 -22.5t-45.5 -51.5zM180 0v1430h129v-1430h-129z" />
    <glyph glyph-name="itilde" unicode="&#x129;" horiz-adv-x="446" 
d="M-78 1196q35 55 75 84t101 29q45 0 76 -17.5t57.5 -38t52 -38t62.5 -17.5q39 0 63.5 21.5t43.5 54.5l71 -66q-37 -51 -76.5 -81.5t-99.5 -30.5q-45 0 -75.5 17t-56.5 37.5t-52.5 38t-63.5 17.5q-41 0 -64.5 -22.5t-43.5 -50.5zM164 0v989h121v-989h-121z" />
    <glyph glyph-name="Imacron" unicode="&#x12a;" horiz-adv-x="491" 
d="M-39 1589v101h569v-101h-569zM180 0v1430h129v-1430h-129z" />
    <glyph glyph-name="imacron" unicode="&#x12b;" horiz-adv-x="446" 
d="M-61 1137v100h569v-100h-569zM164 0v989h121v-989h-121z" />
    <glyph glyph-name="Ibreve" unicode="&#x12c;" horiz-adv-x="491" 
d="M-80 1827h96q41 -80 94.5 -128t135.5 -48t134 48t95 128h94q-47 -125 -127 -196.5t-196 -71.5q-115 0 -196 71.5t-130 196.5zM180 0v1430h129v-1430h-129z" />
    <glyph glyph-name="ibreve" unicode="&#x12d;" horiz-adv-x="446" 
d="M-100 1374h96q41 -80 94 -128t133 -48q84 0 136.5 48t93.5 128h96q-47 -125 -128 -196.5t-198 -71.5q-115 0 -195.5 71.5t-127.5 196.5zM164 0v989h121v-989h-121z" />
    <glyph glyph-name="Iogonek" unicode="&#x12e;" horiz-adv-x="491" 
d="M180 0v1430h129v-1430h-26l252 -403h-138z" />
    <glyph glyph-name="iogonek" unicode="&#x12f;" horiz-adv-x="448" 
d="M133 1354q0 39 26.5 65.5t65.5 26.5q41 0 69 -26.5t28 -65.5t-28 -66.5t-69 -27.5q-39 0 -65.5 27.5t-26.5 66.5zM164 0v989h121v-989h-21l258 -403h-139z" />
    <glyph glyph-name="Idotaccent" unicode="&#x130;" horiz-adv-x="491" 
d="M143 1653q0 43 30 72.5t71 29.5q43 0 73.5 -29.5t30.5 -72.5q0 -41 -30.5 -71t-73.5 -30q-41 0 -71 30t-30 71zM180 0v1430h129v-1430h-129z" />
    <glyph glyph-name="dotlessi" unicode="&#x131;" horiz-adv-x="442" 
d="M162 0v989h119v-989h-119z" />
    <glyph glyph-name="Jcircumflex" unicode="&#x134;" horiz-adv-x="1095" 
d="M59 293l123 33q37 -111 120 -163t194 -52q174 0 251.5 79.5t77.5 245.5v994h127v-998q0 -446 -454 -446q-170 0 -282 77.5t-157 229.5zM610 1548l219 303h123l222 -303h-136l-149 232l-148 -232h-131z" />
    <glyph glyph-name="jcircumflex" unicode="&#x135;" horiz-adv-x="458" 
d="M-66 -338q70 6 117 29.5t75 62.5t40 89.5t12 105.5v1040h119v-1048q0 -164 -80 -268.5t-258 -116.5zM-43 1096l221 303h123l221 -303h-135l-149 231l-148 -231h-133z" />
    <glyph glyph-name="Kcommaaccent" unicode="&#x136;" horiz-adv-x="1140" 
d="M152 0h127v1430h-127v-1430zM295 717l588 713h147l-588 -709l641 -721h-161zM479 -236q0 35 24.5 58.5t59.5 23.5q39 0 62.5 -23.5t23.5 -58.5v-73l-133 -215h-37v288z" />
    <glyph glyph-name="kcommaaccent" unicode="&#x137;" horiz-adv-x="897" 
d="M137 0v1430h119v-1430h-119zM268 526l453 -526h141l-461 530l385 459h-131zM362 -236q0 35 25 58.5t59 23.5q41 0 65 -23.5t24 -58.5v-73l-136 -215h-37v288z" />
    <glyph glyph-name="Lacute" unicode="&#x139;" horiz-adv-x="1044" 
d="M152 0v1430h127v-1311h704v-119h-831zM152 1546l172 309h147l-213 -309h-106z" />
    <glyph glyph-name="lacute" unicode="&#x13a;" horiz-adv-x="446" 
d="M137 236v1194h117v-1194q0 -47 24.5 -84t96.5 -46v-104q-238 8 -238 234zM137 1524l174 309h148l-215 -309h-107z" />
    <glyph glyph-name="Lcommaaccent" unicode="&#x13b;" horiz-adv-x="1044" 
d="M152 0v1430h127v-1311h704v-119h-831zM471 -236q0 35 24.5 58.5t59.5 23.5q39 0 62.5 -23.5t23.5 -58.5v-73l-135 -215h-35v288z" />
    <glyph glyph-name="lcommaaccent" unicode="&#x13c;" horiz-adv-x="446" 
d="M137 236v1194h117v-1194q0 -47 24.5 -84t96.5 -46v-104q-238 8 -238 234zM150 -236q0 35 24.5 58.5t58.5 23.5q39 0 62.5 -23.5t23.5 -58.5v-73l-135 -215h-34v288z" />
    <glyph glyph-name="Lcaron" unicode="&#x13d;" horiz-adv-x="1044" 
d="M152 0v1430h127v-1311h704v-119h-831zM780 1063l11 313q0 35 24.5 60.5t56.5 25.5q35 0 62.5 -24.5t23.5 -59.5l-12 -96l-133 -221z" />
    <glyph glyph-name="lcaron" unicode="&#x13e;" horiz-adv-x="446" 
d="M137 236v1194h117v-1194q0 -47 24.5 -84t96.5 -46v-104q-238 8 -238 234zM393 1112l10 315q0 35 25 59.5t59 24.5q35 0 61.5 -24.5t22.5 -59.5l-12 -96l-133 -221z" />
    <glyph glyph-name="Lslash" unicode="&#x141;" horiz-adv-x="1054" 
d="M82 518v105l80 32v775h131v-717l328 143v-104l-328 -144v-483h702v-125h-833v553z" />
    <glyph glyph-name="lslash" unicode="&#x142;" horiz-adv-x="548" 
d="M76 537v104l114 47v742h121v-687l156 66v-102l-156 -68v-403q0 -45 17.5 -83t83.5 -47v-104q-221 8 -222 234v350z" />
    <glyph glyph-name="Nacute" unicode="&#x143;" horiz-adv-x="1290" 
d="M152 0v1430h124l736 -1192v1192h127v-1430h-123l-737 1192v-1192h-127zM483 1546l174 309h148l-215 -309h-107z" />
    <glyph glyph-name="nacute" unicode="&#x144;" horiz-adv-x="1048" 
d="M141 0v989h105l4 -131q51 82 130 116t150 34q106 0 183.5 -32t124.5 -90.5t69.5 -141t22.5 -183.5v-561h-121v559q0 70 -12.5 130.5t-45 105.5t-87 69.5t-138.5 24.5q-57 0 -105 -20.5t-84 -54.5t-55.5 -76t-19.5 -85v-653h-121zM362 1094l175 309h147l-213 -309h-109z
" />
    <glyph glyph-name="Ncommaaccent" unicode="&#x145;" horiz-adv-x="1290" 
d="M152 0v1430h124l736 -1192v1192h127v-1430h-123l-737 1192v-1192h-127zM524 -236q0 35 24.5 58.5t59.5 23.5q39 0 62.5 -23.5t23.5 -58.5v-73l-135 -215h-35v288z" />
    <glyph glyph-name="ncommaaccent" unicode="&#x146;" horiz-adv-x="1048" 
d="M141 0v989h105l4 -131q51 82 130 116t150 34q106 0 183.5 -32t124.5 -90.5t69.5 -141t22.5 -183.5v-561h-121v559q0 70 -12.5 130.5t-45 105.5t-87 69.5t-138.5 24.5q-57 0 -105 -20.5t-84 -54.5t-55.5 -76t-19.5 -85v-653h-121zM438 -236q0 35 24.5 58.5t59.5 23.5
q39 0 62.5 -23.5t23.5 -58.5v-73l-135 -215h-35v288z" />
    <glyph glyph-name="Ncaron" unicode="&#x147;" horiz-adv-x="1290" 
d="M152 0v1430h124l736 -1192v1192h127v-1430h-123l-737 1192v-1192h-127zM362 1851h134l147 -231l150 231h135l-221 -303h-123z" />
    <glyph glyph-name="ncaron" unicode="&#x148;" horiz-adv-x="1048" 
d="M141 0v989h105l4 -131q51 82 130 116t150 34q106 0 183.5 -32t124.5 -90.5t69.5 -141t22.5 -183.5v-561h-121v559q0 70 -12.5 130.5t-45 105.5t-87 69.5t-138.5 24.5q-57 0 -105 -20.5t-84 -54.5t-55.5 -76t-19.5 -85v-653h-121zM242 1399h133l147 -232l150 232h133
l-221 -303h-123z" />
    <glyph glyph-name="Eng" unicode="&#x14a;" horiz-adv-x="1290" 
d="M152 0v1430h124l736 -1192v1192h127v-1489q0 -164 -79 -268.5t-257 -116.5l-27 106q70 6 117 29.5t74.5 62.5t40 89.5t12.5 105.5v43l-741 1200v-1192h-127z" />
    <glyph glyph-name="eng" unicode="&#x14b;" horiz-adv-x="1048" 
d="M141 0v989h105l4 -131q51 82 130 116t150 34q106 0 183.5 -32t124.5 -90.5t69.5 -141t22.5 -183.5v-620q0 -164 -80 -268.5t-258 -116.5l-27 106q70 6 117 29.5t75.5 62.5t40 89.5t11.5 105.5v610q0 70 -12.5 130.5t-45 105.5t-87 69.5t-138.5 24.5q-57 0 -105 -20.5
t-84 -54.5t-55.5 -76t-19.5 -85v-653h-121z" />
    <glyph glyph-name="Omacron" unicode="&#x14c;" horiz-adv-x="1318" 
d="M90 715q0 141 28.5 273t96.5 234.5t176.5 164t267.5 61.5q160 0 269.5 -61.5t176 -164t96.5 -234.5t30 -273t-30 -273.5t-96.5 -235t-176 -163.5t-269.5 -61t-268 61t-176 163.5t-96.5 234.5t-28.5 274zM217 715q0 -104 17.5 -213t66.5 -196t135 -142t223 -55t223.5 55
t135.5 142t66.5 196t17.5 213t-17.5 212.5t-66.5 195.5t-135 142.5t-224 55.5q-137 0 -223 -55.5t-135 -142.5t-66.5 -195.5t-17.5 -212.5zM375 1589v101h569v-101h-569z" />
    <glyph glyph-name="omacron" unicode="&#x14d;" horiz-adv-x="1019" 
d="M86 492q0 111 21.5 203.5t71.5 162.5t131 109t200 39t200 -39t131 -109t71.5 -162.5t21.5 -203.5q0 -109 -21.5 -202t-71.5 -162t-131 -107.5t-200 -38.5t-200 38.5t-131 107.5t-71.5 162t-21.5 202zM209 492q0 -74 11 -145t43 -126t91.5 -89t155.5 -34q94 0 153.5 34
t92 89t44 126t11.5 145q0 76 -11.5 147.5t-43 126.5t-91 89t-155.5 34t-155.5 -34t-91.5 -89t-43 -127t-11 -147zM225 1137v100h570v-100h-570z" />
    <glyph glyph-name="Obreve" unicode="&#x14e;" horiz-adv-x="1318" 
d="M90 715q0 141 28.5 273t96.5 234.5t176.5 164t267.5 61.5q160 0 269.5 -61.5t176 -164t96.5 -234.5t30 -273t-30 -273.5t-96.5 -235t-176 -163.5t-269.5 -61t-268 61t-176 163.5t-96.5 234.5t-28.5 274zM217 715q0 -104 17.5 -213t66.5 -196t135 -142t223 -55t223.5 55
t135.5 142t66.5 196t17.5 213t-17.5 212.5t-66.5 195.5t-135 142.5t-224 55.5q-137 0 -223 -55.5t-135 -142.5t-66.5 -195.5t-17.5 -212.5zM334 1827h96q41 -80 94.5 -128t134.5 -48q82 0 134.5 48t93.5 128h96q-47 -125 -128 -196.5t-196 -71.5t-195.5 71.5t-129.5 196.5z
" />
    <glyph glyph-name="obreve" unicode="&#x14f;" horiz-adv-x="1019" 
d="M86 492q0 111 21.5 203.5t71.5 162.5t131 109t200 39t200 -39t131 -109t71.5 -162.5t21.5 -203.5q0 -109 -21.5 -202t-71.5 -162t-131 -107.5t-200 -38.5t-200 38.5t-131 107.5t-71.5 162t-21.5 202zM184 1374h97q41 -80 94 -128t135 -48t134 48t93 128h97
q-47 -125 -128 -196.5t-196 -71.5t-196 71.5t-130 196.5zM209 492q0 -74 11 -145t43 -126t91.5 -89t155.5 -34q94 0 153.5 34t92 89t44 126t11.5 145q0 76 -11.5 147.5t-43 126.5t-91 89t-155.5 34t-155.5 -34t-91.5 -89t-43 -127t-11 -147z" />
    <glyph glyph-name="Ohungarumlaut" unicode="&#x150;" horiz-adv-x="1318" 
d="M90 715q0 141 28.5 273t96.5 234.5t176.5 164t267.5 61.5q160 0 269.5 -61.5t176 -164t96.5 -234.5t30 -273t-30 -273.5t-96.5 -235t-176 -163.5t-269.5 -61t-268 61t-176 163.5t-96.5 234.5t-28.5 274zM217 715q0 -104 17.5 -213t66.5 -196t135 -142t223 -55t223.5 55
t135.5 142t66.5 196t17.5 213t-17.5 212.5t-66.5 195.5t-135 142.5t-224 55.5q-137 0 -223 -55.5t-135 -142.5t-66.5 -195.5t-17.5 -212.5zM387 1575l154 303h135l-203 -303h-86zM643 1575l156 303h135l-203 -303h-88z" />
    <glyph glyph-name="ohungarumlaut" unicode="&#x151;" horiz-adv-x="1019" 
d="M86 492q0 111 21.5 203.5t71.5 162.5t131 109t200 39t200 -39t131 -109t71.5 -162.5t21.5 -203.5q0 -109 -21.5 -202t-71.5 -162t-131 -107.5t-200 -38.5t-200 38.5t-131 107.5t-71.5 162t-21.5 202zM209 492q0 -74 11 -145t43 -126t91.5 -89t155.5 -34q94 0 153.5 34
t92 89t44 126t11.5 145q0 76 -11.5 147.5t-43 126.5t-91 89t-155.5 34t-155.5 -34t-91.5 -89t-43 -127t-11 -147zM238 1122l153 303h135l-202 -303h-86zM494 1122l155 303h135l-202 -303h-88z" />
    <glyph glyph-name="OE" unicode="&#x152;" horiz-adv-x="2064" 
d="M90 715q0 141 28.5 273t95.5 234.5t174.5 164t264.5 61.5q59 0 123 -13.5t123 -45t108.5 -84t82.5 -129.5v254h864v-127h-735v-500h636v-123h-636v-553h735v-127h-864v260q-37 -82 -87.5 -135t-107.5 -85t-119.5 -45t-122.5 -13q-158 0 -265 61t-174 163.5t-95.5 234.5
t-28.5 274zM217 715q0 -104 17.5 -213t65.5 -196t133 -142t220 -55t220 55t133.5 142t66 196t17.5 213t-17.5 212.5t-66 195.5t-133.5 142.5t-220 55.5t-220 -55.5t-133 -142.5t-65.5 -195.5t-17.5 -212.5z" />
    <glyph glyph-name="oe" unicode="&#x153;" horiz-adv-x="1679" 
d="M86 492q0 109 21.5 202.5t70.5 162.5t128 108t196 39q109 0 202 -49.5t156 -172.5q68 123 159 171t202 48q100 0 171.5 -37.5t115.5 -102t64.5 -148.5t20.5 -176v-64h-675q2 -84 20 -153.5t56 -118.5t97.5 -77t147.5 -28q68 0 134.5 27t115.5 80l86 -78
q-133 -143 -338 -143q-111 0 -210 48t-165 171q-66 -123 -159 -171t-201 -48q-117 0 -196 38.5t-128 107.5t-70.5 162t-21.5 202zM207 492q0 -74 11 -145t43 -126t89.5 -89t151.5 -34q92 0 150.5 34t90 89t43 126t11.5 145t-11.5 145.5t-43 126.5t-89 89t-151.5 34
t-151.5 -34t-89.5 -89t-43 -127t-11 -145zM922 561h559q-2 68 -16.5 127.5t-45 104.5t-81 70.5t-121.5 25.5q-147 0 -216 -89t-79 -239z" />
    <glyph glyph-name="Racute" unicode="&#x154;" horiz-adv-x="1236" 
d="M152 0v1430h491q100 0 185 -23t146.5 -70t95.5 -122t34 -179q0 -162 -97.5 -258t-287.5 -119q35 -23 62.5 -58.5t49.5 -74.5l320 -526h-150l-303 510q-16 27 -34.5 52.5t-41 45t-52 30.5t-68.5 11h-223v-649h-127zM279 764h364q70 0 130.5 13.5t105.5 44t70.5 82.5
t25.5 132t-26.5 132.5t-72 82t-105.5 42t-128 12.5h-364v-541zM406 1546l174 309h147l-213 -309h-108z" />
    <glyph glyph-name="racute" unicode="&#x155;" horiz-adv-x="784" 
d="M141 0v989h105l4 -139q25 43 57.5 72.5t70.5 48t78 27t79 8.5q94 0 184 -43l-51 -101q-31 12 -65 20.5t-68 8.5q-53 0 -102.5 -18.5t-87.5 -51.5t-60.5 -76t-22.5 -94v-651h-121zM215 1094l174 309h148l-215 -309h-107z" />
    <glyph glyph-name="Rcommaaccent" unicode="&#x156;" horiz-adv-x="1236" 
d="M152 0v1430h491q100 0 185 -23t146.5 -70t95.5 -122t34 -179q0 -162 -97.5 -258t-287.5 -119q35 -23 62.5 -58.5t49.5 -74.5l320 -526h-150l-303 510q-16 27 -34.5 52.5t-41 45t-52 30.5t-68.5 11h-223v-649h-127zM279 764h364q70 0 130.5 13.5t105.5 44t70.5 82.5
t25.5 132t-26.5 132.5t-72 82t-105.5 42t-128 12.5h-364v-541zM512 -236q0 35 24.5 58.5t59.5 23.5q39 0 62.5 -23.5t23.5 -58.5v-73l-133 -215h-37v288z" />
    <glyph glyph-name="rcommaaccent" unicode="&#x157;" horiz-adv-x="784" 
d="M123 -236q0 35 24.5 58.5t59.5 23.5q39 0 62.5 -23.5t23.5 -58.5v-73l-135 -215h-35v288zM141 0v989h105l4 -139q25 43 57.5 72.5t70.5 48t78 27t79 8.5q94 0 184 -43l-51 -101q-31 12 -65 20.5t-68 8.5q-53 0 -102.5 -18.5t-87.5 -51.5t-60.5 -76t-22.5 -94v-651h-121z
" />
    <glyph glyph-name="Rcaron" unicode="&#x158;" horiz-adv-x="1236" 
d="M152 0v1430h491q100 0 185 -23t146.5 -70t95.5 -122t34 -179q0 -162 -97.5 -258t-287.5 -119q35 -23 62.5 -58.5t49.5 -74.5l320 -526h-150l-303 510q-16 27 -34.5 52.5t-41 45t-52 30.5t-68.5 11h-223v-649h-127zM279 764h364q70 0 130.5 13.5t105.5 44t70.5 82.5
t25.5 132t-26.5 132.5t-72 82t-105.5 42t-128 12.5h-364v-541zM299 1851h131l150 -231l149 231h133l-221 -303h-123z" />
    <glyph glyph-name="rcaron" unicode="&#x159;" horiz-adv-x="784" 
d="M111 1399h133l147 -232l150 232h133l-221 -303h-123zM141 0v989h105l4 -139q25 43 57.5 72.5t70.5 48t78 27t79 8.5q94 0 184 -43l-51 -101q-31 12 -65 20.5t-68 8.5q-53 0 -102.5 -18.5t-87.5 -51.5t-60.5 -76t-22.5 -94v-651h-121z" />
    <glyph glyph-name="Sacute" unicode="&#x15a;" horiz-adv-x="1232" 
d="M90 352l123 23q18 -78 61 -130t101.5 -84t126 -45.5t139.5 -13.5q66 0 132.5 17.5t120.5 53.5t89 92.5t35 133.5q0 80 -38 131.5t-99.5 84t-140 54t-161.5 42t-162 45t-140.5 64.5t-99.5 102.5t-38 156.5t39 163t103.5 114t147.5 66.5t169 21.5q174 0 295 -64.5
t199 -214.5l-113 -51q-61 117 -155.5 163t-225.5 46q-53 0 -111.5 -11.5t-106.5 -40t-80 -75.5t-32 -117t38 -113.5t99.5 -72.5t140.5 -49.5t162 -41t161.5 -48t140 -72.5t99.5 -114t38 -169q0 -102 -43 -180t-113.5 -131t-162 -79.5t-187.5 -26.5q-215 0 -359.5 86
t-191.5 284zM455 1546l174 309h147l-213 -309h-108z" />
    <glyph glyph-name="sacute" unicode="&#x15b;" horiz-adv-x="929" 
d="M84 236l109 24q14 -47 42.5 -80t66.5 -52t84 -27.5t95 -8.5q39 0 83 9.5t82 31t62.5 56t24.5 85.5q0 70 -46 107t-115.5 60.5t-149.5 40t-149.5 46t-115.5 78.5t-46 137q0 68 28.5 118t75.5 82t107.5 47.5t126.5 15.5q123 0 208.5 -40t145.5 -141l-96 -51
q-41 70 -106.5 95.5t-143.5 25.5q-33 0 -72 -6t-72.5 -22.5t-57.5 -46t-24 -77.5q0 -59 46.5 -90.5t116 -52t149.5 -38t149.5 -49.5t115.5 -86t46 -148q0 -74 -31.5 -129.5t-84 -92.5t-119 -56t-136.5 -19q-72 0 -136 13t-117.5 44t-91.5 79t-54 118zM303 1094l174 309h148
l-213 -309h-109z" />
    <glyph glyph-name="Scircumflex" unicode="&#x15c;" horiz-adv-x="1232" 
d="M90 352l123 23q18 -78 61 -130t101.5 -84t126 -45.5t139.5 -13.5q66 0 132.5 17.5t120.5 53.5t89 92.5t35 133.5q0 80 -38 131.5t-99.5 84t-140 54t-161.5 42t-162 45t-140.5 64.5t-99.5 102.5t-38 156.5t39 163t103.5 114t147.5 66.5t169 21.5q174 0 295 -64.5
t199 -214.5l-113 -51q-61 117 -155.5 163t-225.5 46q-53 0 -111.5 -11.5t-106.5 -40t-80 -75.5t-32 -117t38 -113.5t99.5 -72.5t140.5 -49.5t162 -41t161.5 -48t140 -72.5t99.5 -114t38 -169q0 -102 -43 -180t-113.5 -131t-162 -79.5t-187.5 -26.5q-215 0 -359.5 86
t-191.5 284zM334 1548l219 303h123l221 -303h-133l-150 232l-147 -232h-133z" />
    <glyph glyph-name="scircumflex" unicode="&#x15d;" horiz-adv-x="929" 
d="M84 236l109 24q14 -47 42.5 -80t66.5 -52t84 -27.5t95 -8.5q39 0 83 9.5t82 31t62.5 56t24.5 85.5q0 70 -46 107t-115.5 60.5t-149.5 40t-149.5 46t-115.5 78.5t-46 137q0 68 28.5 118t75.5 82t107.5 47.5t126.5 15.5q123 0 208.5 -40t145.5 -141l-96 -51
q-41 70 -106.5 95.5t-143.5 25.5q-33 0 -72 -6t-72.5 -22.5t-57.5 -46t-24 -77.5q0 -59 46.5 -90.5t116 -52t149.5 -38t149.5 -49.5t115.5 -86t46 -148q0 -74 -31.5 -129.5t-84 -92.5t-119 -56t-136.5 -19q-72 0 -136 13t-117.5 44t-91.5 79t-54 118zM184 1096l219 303h123
l222 -303h-136l-149 231l-148 -231h-131z" />
    <glyph glyph-name="Scedilla" unicode="&#x15e;" horiz-adv-x="1232" 
d="M90 352l123 23q18 -78 61 -130t101.5 -84t126 -45.5t139.5 -13.5q66 0 132.5 17.5t120.5 53.5t89 92.5t35 133.5q0 80 -38 131.5t-99.5 84t-140 54t-161.5 42t-162 45t-140.5 64.5t-99.5 102.5t-38 156.5t39 163t103.5 114t147.5 66.5t169 21.5q174 0 295 -64.5
t199 -214.5l-113 -51q-61 117 -155.5 163t-225.5 46q-53 0 -111.5 -11.5t-106.5 -40t-80 -75.5t-32 -117t38 -113.5t99.5 -72.5t140.5 -49.5t162 -41t161.5 -48t140 -72.5t99.5 -113.5t38 -169.5q0 -94 -36 -167.5t-97.5 -126t-141 -82t-167.5 -37.5l53 -127l-146 -262h-137
l189 270l-52 115q-205 6 -341 92t-181 278z" />
    <glyph glyph-name="scedilla" unicode="&#x15f;" horiz-adv-x="929" 
d="M84 236l109 24q14 -47 42.5 -80t66.5 -52t84 -27.5t95 -8.5q39 0 83 9.5t82 31t62.5 56t24.5 85.5q0 70 -46 107t-115.5 60.5t-149.5 40t-149.5 46t-115.5 78.5t-46 137q0 68 28.5 118t75.5 82t107.5 47.5t126.5 15.5q123 0 208.5 -40t145.5 -141l-96 -51
q-41 70 -106.5 95.5t-143.5 25.5q-33 0 -72 -6t-72.5 -22.5t-57.5 -46t-24 -77.5q0 -59 46.5 -90.5t116 -52t149.5 -38t149.5 -49.5t115.5 -86t46 -148q0 -66 -24.5 -116t-66.5 -87t-97.5 -58.5t-116.5 -29.5l57 -129l-145 -262h-137l190 270l-53 115q-68 2 -129.5 17
t-110.5 45t-85 77t-52 115z" />
    <glyph glyph-name="Scaron" unicode="&#x160;" horiz-adv-x="1232" 
d="M90 352l123 23q18 -78 61 -130t101.5 -84t126 -45.5t139.5 -13.5q66 0 132.5 17.5t120.5 53.5t89 92.5t35 133.5q0 80 -38 131.5t-99.5 84t-140 54t-161.5 42t-162 45t-140.5 64.5t-99.5 102.5t-38 156.5t39 163t103.5 114t147.5 66.5t169 21.5q174 0 295 -64.5
t199 -214.5l-113 -51q-61 117 -155.5 163t-225.5 46q-53 0 -111.5 -11.5t-106.5 -40t-80 -75.5t-32 -117t38 -113.5t99.5 -72.5t140.5 -49.5t162 -41t161.5 -48t140 -72.5t99.5 -114t38 -169q0 -102 -43 -180t-113.5 -131t-162 -79.5t-187.5 -26.5q-215 0 -359.5 86
t-191.5 284zM334 1851h133l147 -231l150 231h133l-221 -303h-123z" />
    <glyph glyph-name="scaron" unicode="&#x161;" horiz-adv-x="929" 
d="M84 236l109 24q14 -47 42.5 -80t66.5 -52t84 -27.5t95 -8.5q39 0 83 9.5t82 31t62.5 56t24.5 85.5q0 70 -46 107t-115.5 60.5t-149.5 40t-149.5 46t-115.5 78.5t-46 137q0 68 28.5 118t75.5 82t107.5 47.5t126.5 15.5q123 0 208.5 -40t145.5 -141l-96 -51
q-41 70 -106.5 95.5t-143.5 25.5q-33 0 -72 -6t-72.5 -22.5t-57.5 -46t-24 -77.5q0 -59 46.5 -90.5t116 -52t149.5 -38t149.5 -49.5t115.5 -86t46 -148q0 -74 -31.5 -129.5t-84 -92.5t-119 -56t-136.5 -19q-72 0 -136 13t-117.5 44t-91.5 79t-54 118zM184 1399h131l148 -232
l149 232h136l-222 -303h-123z" />
    <glyph glyph-name="Tcommaaccent" unicode="&#x162;" horiz-adv-x="1130" 
d="M47 1305v125h1036v-125h-454v-1305h-127v1305h-455zM479 -236q0 35 24.5 58.5t59.5 23.5q39 0 62.5 -23.5t23.5 -58.5v-73l-135 -215h-35v288z" />
    <glyph glyph-name="tcommaaccent" unicode="&#x163;" horiz-adv-x="591" 
d="M66 883v106h145v293h121v-293h168v-106h-168v-641q0 -76 30.5 -104.5t104.5 -31.5v-106h-43q-113 0 -163 65.5t-50 170.5v647h-145zM223 -236q0 35 24.5 58.5t59.5 23.5q39 0 62.5 -23.5t23.5 -58.5v-73l-135 -215h-35v288z" />
    <glyph glyph-name="Tcaron" unicode="&#x164;" horiz-adv-x="1130" 
d="M47 1305v125h1036v-125h-454v-1305h-127v1305h-455zM285 1851h131l147 -231l150 231h135l-221 -303h-123z" />
    <glyph glyph-name="tcaron" unicode="&#x165;" horiz-adv-x="591" 
d="M66 883v106h145v293h121v-293h168v-106h-168v-641q0 -76 30.5 -104.5t104.5 -31.5v-106h-43q-113 0 -163 65.5t-50 170.5v647h-145zM522 1106v328q0 29 20.5 50t49.5 21t50.5 -21.5t21.5 -49.5v-328h-142z" />
    <glyph glyph-name="Tbar" unicode="&#x166;" horiz-adv-x="1130" 
d="M47 1305v125h1036v-125h-454v-418h293v-90h-293v-797h-127v797h-291v90h291v418h-455z" />
    <glyph glyph-name="tbar" unicode="&#x167;" horiz-adv-x="591" 
d="M66 541v90h145v252h-145v106h145v293h121v-293h168v-106h-168v-252h168v-90h-168v-299q0 -76 30.5 -104.5t104.5 -31.5v-106h-43q-113 0 -163 65.5t-50 170.5v305h-145z" />
    <glyph glyph-name="Utilde" unicode="&#x168;" horiz-adv-x="1310" 
d="M137 606v824h129v-820q0 -96 14.5 -187t57.5 -160.5t118.5 -111.5t198.5 -42t200 42t120 111.5t57.5 159.5t14.5 188v820h127v-824q0 -137 -26 -251.5t-86.5 -197.5t-159.5 -129t-247 -46q-147 0 -246.5 47t-160 131t-86 198.5t-25.5 247.5zM354 1649q35 55 75 83.5
t103 28.5q45 0 76 -17.5t56.5 -37.5t51 -37.5t62.5 -17.5q39 0 63.5 21.5t43.5 53.5l71 -65q-37 -51 -75.5 -82t-100.5 -31q-45 0 -74.5 17.5t-56 38t-53.5 38t-64 17.5q-39 0 -63.5 -22.5t-44.5 -51.5z" />
    <glyph glyph-name="utilde" unicode="&#x169;" 
d="M121 412v577h121v-571q0 -72 12 -131.5t44 -100.5t86 -63.5t138 -22.5q43 0 90 15.5t86 44t64.5 69.5t25.5 95v665h121v-989h-104l-4 121q-63 -78 -137 -107.5t-144 -29.5q-213 0 -306 110.5t-93 317.5zM219 1196q35 55 76 84t102 29q45 0 76 -17.5t56.5 -38t51 -38
t62.5 -17.5q39 0 63.5 21.5t45.5 54.5l69 -66q-37 -51 -75.5 -81.5t-100.5 -30.5q-45 0 -74.5 17t-56.5 37.5t-53.5 38t-63.5 17.5q-39 0 -63.5 -22.5t-44.5 -50.5z" />
    <glyph glyph-name="Umacron" unicode="&#x16a;" horiz-adv-x="1310" 
d="M137 606v824h129v-820q0 -96 14.5 -187t57.5 -160.5t118.5 -111.5t198.5 -42t200 42t120 111.5t57.5 159.5t14.5 188v820h127v-824q0 -137 -26 -251.5t-86.5 -197.5t-159.5 -129t-247 -46q-147 0 -246.5 47t-160 131t-86 198.5t-25.5 247.5zM371 1589v101h569v-101h-569z
" />
    <glyph glyph-name="umacron" unicode="&#x16b;" 
d="M121 412v577h121v-571q0 -72 12 -131.5t44 -100.5t86 -63.5t138 -22.5q43 0 90 15.5t86 44t64.5 69.5t25.5 95v665h121v-989h-104l-4 121q-63 -78 -137 -107.5t-144 -29.5q-213 0 -306 110.5t-93 317.5zM236 1137v100h569v-100h-569z" />
    <glyph glyph-name="Ubreve" unicode="&#x16c;" horiz-adv-x="1310" 
d="M137 606v824h129v-820q0 -96 14.5 -187t57.5 -160.5t118.5 -111.5t198.5 -42t200 42t120 111.5t57.5 159.5t14.5 188v820h127v-824q0 -137 -26 -251.5t-86.5 -197.5t-159.5 -129t-247 -46q-147 0 -246.5 47t-160 131t-86 198.5t-25.5 247.5zM330 1827h96q41 -80 94 -128
t133 -48q84 0 136.5 48t93.5 128h96q-47 -125 -128 -196.5t-198 -71.5q-115 0 -194.5 71.5t-128.5 196.5z" />
    <glyph glyph-name="ubreve" unicode="&#x16d;" 
d="M121 412v577h121v-571q0 -72 12 -131.5t44 -100.5t86 -63.5t138 -22.5q43 0 90 15.5t86 44t64.5 69.5t25.5 95v665h121v-989h-104l-4 121q-63 -78 -137 -107.5t-144 -29.5q-213 0 -306 110.5t-93 317.5zM197 1374h96q41 -80 93 -128t134 -48t134.5 48t95.5 128h96
q-49 -125 -129 -196.5t-197 -71.5q-115 0 -195.5 71.5t-127.5 196.5z" />
    <glyph glyph-name="Uring" unicode="&#x16e;" horiz-adv-x="1310" 
d="M137 606v824h129v-820q0 -96 14.5 -187t57.5 -160.5t118.5 -111.5t198.5 -42t200 42t120 111.5t57.5 159.5t14.5 188v820h127v-824q0 -137 -26 -251.5t-86.5 -197.5t-159.5 -129t-247 -46q-147 0 -246.5 47t-160 131t-86 198.5t-25.5 247.5zM444 1761q0 43 16.5 81
t45.5 66.5t67.5 45t81.5 16.5t82 -16.5t68 -45t45 -66.5t16 -81t-16 -82t-45 -68.5t-68 -46t-82 -16.5t-81.5 16.5t-67.5 46t-45.5 68.5t-16.5 82zM543 1761q0 -47 32.5 -79.5t79.5 -32.5t80 32.5t33 79.5t-33 79t-80 32t-79.5 -32t-32.5 -79z" />
    <glyph glyph-name="uring" unicode="&#x16f;" 
d="M121 412v577h121v-571q0 -72 12 -131.5t44 -100.5t86 -63.5t138 -22.5q43 0 90 15.5t86 44t64.5 69.5t25.5 95v665h121v-989h-104l-4 121q-63 -78 -137 -107.5t-144 -29.5q-213 0 -306 110.5t-93 317.5zM309 1309q0 43 16.5 80.5t45 66.5t67.5 45.5t82 16.5t82 -16.5
t67.5 -45.5t45 -66.5t16.5 -80.5t-16.5 -82t-45 -69t-67.5 -46t-82 -16t-82 16t-67.5 46t-45 69t-16.5 82zM408 1309q0 -47 32.5 -80t79.5 -33t80 33t33 80t-33 78.5t-80 31.5t-79.5 -31.5t-32.5 -78.5z" />
    <glyph glyph-name="Uhungarumlaut" unicode="&#x170;" horiz-adv-x="1310" 
d="M137 606v824h129v-820q0 -96 14.5 -187t57.5 -160.5t118.5 -111.5t198.5 -42t200 42t120 111.5t57.5 159.5t14.5 188v820h127v-824q0 -137 -26 -251.5t-86.5 -197.5t-159.5 -129t-247 -46q-147 0 -246.5 47t-160 131t-86 198.5t-25.5 247.5zM383 1575l154 303h135
l-203 -303h-86zM639 1575l156 303h135l-203 -303h-88z" />
    <glyph glyph-name="uhungarumlaut" unicode="&#x171;" 
d="M121 412v577h121v-571q0 -72 12 -131.5t44 -100.5t86 -63.5t138 -22.5q43 0 90 15.5t86 44t64.5 69.5t25.5 95v665h121v-989h-104l-4 121q-63 -78 -137 -107.5t-144 -29.5q-213 0 -306 110.5t-93 317.5zM248 1122l153 303h136l-203 -303h-86zM504 1122l155 303h136
l-201 -303h-90z" />
    <glyph glyph-name="Uogonek" unicode="&#x172;" horiz-adv-x="1310" 
d="M137 606v824h129v-820q0 -96 14.5 -187t57.5 -160.5t118.5 -111.5t198.5 -42t200 42t120 111.5t57.5 159.5t14.5 188v820h127v-824q0 -115 -17.5 -213t-57.5 -177t-105.5 -133t-159.5 -79l253 -407h-139l-213 391q-16 -2 -36.5 -4t-43.5 -2q-147 0 -246.5 47t-160 131
t-86 198.5t-25.5 247.5z" />
    <glyph glyph-name="uogonek" unicode="&#x173;" 
d="M121 412v577h121v-571q0 -72 12 -131.5t44 -100.5t86 -63.5t138 -22.5q43 0 90 15.5t86 44t64.5 69.5t25.5 95v665h121v-989h-18l252 -403h-139l-199 403l-4 121q-63 -78 -137 -107.5t-144 -29.5q-213 0 -306 110.5t-93 317.5z" />
    <glyph glyph-name="Wcircumflex" unicode="&#x174;" horiz-adv-x="1634" 
d="M53 1430h131l279 -1217l295 1217h119l292 -1217l281 1217h131l-334 -1430h-145l-285 1190l-285 -1190h-145zM535 1548l219 303h123l221 -303h-133l-150 232l-147 -232h-133z" />
    <glyph glyph-name="wcircumflex" unicode="&#x175;" horiz-adv-x="1521" 
d="M43 989h129l244 -821l286 821h113l285 -823l250 823h127l-314 -989h-119l-286 807l-283 -807h-121zM479 1096l219 303h123l221 -303h-135l-149 231l-148 -231h-131z" />
    <glyph glyph-name="Ycircumflex" unicode="&#x176;" horiz-adv-x="1179" 
d="M53 1430h144l395 -812l395 812h141l-473 -957v-473h-129v473zM307 1548l219 303h123l221 -303h-133l-149 232l-148 -232h-133z" />
    <glyph glyph-name="ycircumflex" unicode="&#x177;" horiz-adv-x="964" 
d="M47 989h127l307 -839l307 839h130l-469 -1239q-41 -111 -116 -157t-186 -46h-26v107h24q86 0 129 36t66 99l78 205zM201 1096l219 303h123l221 -303h-133l-150 231l-147 -231h-133z" />
    <glyph glyph-name="Ydieresis" unicode="&#x178;" horiz-adv-x="1179" 
d="M53 1430h144l395 -812l395 812h141l-473 -957v-473h-129v473zM309 1653q0 39 25.5 65.5t64.5 26.5t66 -26.5t27 -65.5t-27 -64.5t-66 -25.5t-64.5 25.5t-25.5 64.5zM686 1653q0 39 27.5 65.5t66.5 26.5q37 0 63.5 -26.5t26.5 -65.5t-26.5 -64.5t-63.5 -25.5
q-39 0 -66.5 25.5t-27.5 64.5z" />
    <glyph glyph-name="Zacute" unicode="&#x179;" horiz-adv-x="1189" 
d="M90 0v111l823 1194h-755v125h915v-117l-817 -1186h823v-127h-989zM434 1546l172 309h150l-215 -309h-107z" />
    <glyph glyph-name="zacute" unicode="&#x17a;" horiz-adv-x="948" 
d="M86 0v117l612 755h-569v117h721v-110l-617 -762h617v-117h-764zM313 1094l172 309h150l-215 -309h-107z" />
    <glyph glyph-name="Zdotaccent" unicode="&#x17b;" horiz-adv-x="1189" 
d="M90 0v111l823 1194h-755v125h915v-117l-817 -1186h823v-127h-989zM494 1653q0 43 29.5 72.5t70.5 29.5t71.5 -29.5t30.5 -72.5q0 -41 -30.5 -71t-71.5 -30t-70.5 30t-29.5 71z" />
    <glyph glyph-name="zdotaccent" unicode="&#x17c;" horiz-adv-x="948" 
d="M86 0v117l612 755h-569v117h721v-110l-617 -762h617v-117h-764zM373 1200q0 43 29.5 73t70.5 30q43 0 74 -30t31 -73q0 -41 -31 -70.5t-74 -29.5q-41 0 -70.5 29.5t-29.5 70.5z" />
    <glyph glyph-name="Zcaron" unicode="&#x17d;" horiz-adv-x="1189" 
d="M90 0v111l823 1194h-755v125h915v-117l-817 -1186h823v-127h-989zM311 1851h133l148 -231l149 231h136l-222 -303h-123z" />
    <glyph glyph-name="zcaron" unicode="&#x17e;" horiz-adv-x="948" 
d="M86 0v117l612 755h-569v117h721v-110l-617 -762h617v-117h-764zM193 1399h133l147 -232l150 232h133l-221 -303h-123z" />
    <glyph glyph-name="florin" unicode="&#x192;" horiz-adv-x="778" 
d="M41 -391l213 1167h-133v107h151q0 4 4.5 26.5t8.5 49t9 48t5 25.5q35 180 134 284.5t290 110.5v-106q-78 -4 -131 -27.5t-90 -61.5t-58.5 -91.5t-33.5 -114.5q0 -4 -4.5 -24.5t-9.5 -46t-9 -47t-4 -25.5h166v-107h-187l-215 -1186z" />
    <glyph glyph-name="Aringacute" unicode="&#x1fa;" horiz-adv-x="1292" 
d="M23 0l548 1430h148l549 -1430h-135l-162 424h-652l-159 -424h-137zM362 537h566l-283 745zM455 1739q0 68 41 119l131 233h133l-135 -164l20 2q39 0 74 -15.5t60.5 -41t40 -60t14.5 -73.5t-14.5 -74t-40 -60.5t-60.5 -41t-74 -15.5q-41 0 -74.5 15.5t-60.5 41t-41 60.5
t-14 74zM543 1739q0 -41 29.5 -71t72.5 -30q41 0 70.5 30t29.5 71t-29.5 70.5t-70.5 29.5q-43 0 -72.5 -29.5t-29.5 -70.5z" />
    <glyph glyph-name="aringacute" unicode="&#x1fb;" horiz-adv-x="970" 
d="M86 279q0 135 94 209.5t244 78.5h84h70q39 2 78.5 9.5t72.5 41.5v95q0 43 -20.5 77.5t-53 58t-72.5 36t-79 12.5t-78 -8t-74 -24.5t-63.5 -45t-44.5 -67.5l-107 36q47 117 142.5 168.5t228.5 51.5q61 0 121.5 -20.5t108.5 -57.5t77 -90.5t29 -116.5v-563l33 -150
l-103 -24l-31 110q-76 -66 -147.5 -92.5t-155.5 -26.5q-74 0 -138 19.5t-112.5 57.5t-76 94.5t-27.5 130.5zM201 279q0 -51 21.5 -88t55 -61t76.5 -35t86 -11q88 0 156 29.5t133 93.5v305q-49 -27 -75.5 -33t-61.5 -6h-160q-43 0 -85 -11t-74.5 -35t-52 -60.5t-19.5 -87.5z
M307 1286q0 35 11.5 64.5t29.5 54.5l131 233h135l-137 -163l21 2q39 0 73.5 -15.5t60 -41t41 -60.5t15.5 -74t-15.5 -73.5t-41 -60.5t-60 -41t-73.5 -15q-41 0 -75 15t-60.5 41t-41 60.5t-14.5 73.5zM395 1286q0 -41 30 -70.5t73 -29.5q41 0 70.5 29.5t29.5 70.5t-29.5 70.5
t-70.5 29.5q-43 0 -73 -29.5t-30 -70.5z" />
    <glyph glyph-name="AEacute" unicode="&#x1fc;" horiz-adv-x="1880" 
d="M31 0l807 1430h948v-125h-731v-502h635v-123h-635v-555h731v-125h-858v424h-516l-238 -424h-143zM475 537h453v749h-31zM838 1546l174 309h147l-213 -309h-108z" />
    <glyph glyph-name="aeacute" unicode="&#x1fd;" horiz-adv-x="1581" 
d="M78 279q0 137 94 212.5t242 75.5h141h34.5t41 5.5t40 15.5t34.5 30v89q0 41 -19.5 74.5t-50.5 58t-70 38t-78 13.5q-35 0 -70.5 -6t-69.5 -21.5t-63.5 -44t-50.5 -74.5l-106 33q41 104 131 163.5t234 59.5q86 0 163.5 -39.5t130.5 -138.5q70 106 157 142t183 36
q100 0 172 -38.5t117 -103t65.5 -149.5t20.5 -178v-59h-680q4 -176 80 -276.5t242 -100.5q72 0 132 23.5t111 83.5l84 -80q-68 -78 -150.5 -109.5t-176.5 -31.5q-35 0 -79 4t-91 21.5t-93 50t-83 89.5q-90 -92 -175 -131t-198 -39q-72 0 -134.5 18.5t-109.5 56.5t-74.5 94.5
t-27.5 132.5zM190 283q0 -49 19.5 -85t52.5 -59.5t75 -36t89 -12.5q90 0 161.5 36t147.5 114q-18 59 -24 126.5t-6 145.5q-33 -23 -63 -31t-69 -8h-155q-43 0 -83 -11t-73 -33.5t-52.5 -58.5t-19.5 -87zM637 1094l174 309h147l-213 -309h-108zM821 561h565q-2 68 -17 127.5
t-46 104.5t-81 70.5t-120 25.5q-141 0 -218 -90t-83 -238z" />
    <glyph glyph-name="Oslashacute" unicode="&#x1fe;" horiz-adv-x="1318" 
d="M90 715q0 141 28.5 273t96.5 234.5t176.5 164t267.5 61.5q84 0 155 -19.5t140 -60.5l37 68h113l-70 -127q111 -115 154 -271.5t43 -322.5q0 -141 -30 -273.5t-96.5 -235t-176 -163.5t-269.5 -61q-164 0 -301 86l-39 -74h-114l74 135q-106 115 -147.5 269.5t-41.5 316.5z
M217 715q0 -117 24.5 -237t100.5 -226l553 1003q-55 35 -111.5 50.5t-124.5 15.5q-137 0 -223 -55.5t-135 -142.5t-66.5 -195.5t-17.5 -212.5zM418 182q106 -74 241 -73q137 0 223.5 55t135.5 142t66.5 196t17.5 213q0 121 -25.5 243.5t-105.5 227.5zM500 1546l172 309h149
l-215 -309h-106z" />
    <glyph glyph-name="oslashacute" unicode="&#x1ff;" horiz-adv-x="1056" 
d="M86 492q0 109 21.5 202.5t71.5 162.5t131 108t200 39q59 0 109.5 -11.5t101.5 -38.5l27 50h98l-51 -95q80 -78 109.5 -186t29.5 -231q0 -109 -21.5 -202t-71.5 -162t-131 -107.5t-200 -38.5q-59 0 -110.5 11t-104.5 38l-25 -43h-94l47 88q-78 78 -107.5 186.5
t-29.5 229.5zM209 492q0 -76 14.5 -150t61.5 -145l379 649q-74 41 -154 41q-96 0 -155.5 -34t-91.5 -89t-43 -127t-11 -145zM352 139q39 -23 77 -32t81 -9q94 0 153.5 33t92 88t44 127t11.5 146q0 78 -14.5 151.5t-63.5 142.5zM367 1094l174 309h147l-213 -309h-108z" />
    <glyph glyph-name="Scommaaccent" unicode="&#x218;" horiz-adv-x="1232" 
d="M90 352l123 23q18 -78 61 -130t101.5 -84t126 -45.5t139.5 -13.5q66 0 132.5 17.5t120.5 53.5t89 92.5t35 133.5q0 80 -38 131.5t-99.5 84t-140 54t-161.5 42t-162 45t-140.5 64.5t-99.5 102.5t-38 156.5t39 163t103.5 114t147.5 66.5t169 21.5q174 0 295 -64.5
t199 -214.5l-113 -51q-61 117 -155.5 163t-225.5 46q-53 0 -111.5 -11.5t-106.5 -40t-80 -75.5t-32 -117t38 -113.5t99.5 -72.5t140.5 -49.5t162 -41t161.5 -48t140 -72.5t99.5 -114t38 -169q0 -102 -43 -180t-113.5 -131t-162 -79.5t-187.5 -26.5q-215 0 -359.5 86
t-191.5 284zM526 -236q0 35 24.5 58.5t59.5 23.5q39 0 62.5 -23.5t23.5 -58.5v-73l-135 -215h-35v288z" />
    <glyph glyph-name="scommaaccent" unicode="&#x219;" horiz-adv-x="929" 
d="M84 236l109 24q14 -47 42.5 -80t66.5 -52t84 -27.5t95 -8.5q39 0 83 9.5t82 31t62.5 56t24.5 85.5q0 70 -46 107t-115.5 60.5t-149.5 40t-149.5 46t-115.5 78.5t-46 137q0 68 28.5 118t75.5 82t107.5 47.5t126.5 15.5q123 0 208.5 -40t145.5 -141l-96 -51
q-41 70 -106.5 95.5t-143.5 25.5q-33 0 -72 -6t-72.5 -22.5t-57.5 -46t-24 -77.5q0 -59 46.5 -90.5t116 -52t149.5 -38t149.5 -49.5t115.5 -86t46 -148q0 -74 -31.5 -129.5t-84 -92.5t-119 -56t-136.5 -19q-72 0 -136 13t-117.5 44t-91.5 79t-54 118zM391 -236
q0 35 24.5 58.5t59.5 23.5q39 0 62.5 -23.5t23.5 -58.5v-73l-133 -215h-37v288z" />
    <glyph glyph-name="circumflex" unicode="&#x2c6;" horiz-adv-x="1040" 
d="M236 1096l219 303h123l221 -303h-133l-150 231l-147 -231h-133z" />
    <glyph glyph-name="caron" unicode="&#x2c7;" horiz-adv-x="995" 
d="M236 1399h133l147 -232l150 232h133l-221 -303h-123z" />
    <glyph glyph-name="breve" unicode="&#x2d8;" horiz-adv-x="1036" 
d="M195 1374h94q41 -80 94 -128t135 -48t134.5 48t95.5 128h94q-47 -125 -127 -196.5t-197 -71.5q-115 0 -195.5 71.5t-127.5 196.5z" />
    <glyph glyph-name="dotaccent" unicode="&#x2d9;" horiz-adv-x="1056" 
d="M426 1200q0 43 29.5 73t72.5 30q41 0 72 -30t31 -73q0 -41 -31 -70.5t-72 -29.5q-43 0 -72.5 29.5t-29.5 70.5z" />
    <glyph glyph-name="ring" unicode="&#x2da;" horiz-adv-x="1028" 
d="M303 1309q0 43 16.5 80.5t45 66.5t67.5 45.5t84 16.5q43 0 81 -16.5t66.5 -45.5t45 -66.5t16.5 -80.5t-16.5 -82t-45 -69t-66.5 -46t-81 -16q-45 0 -84 16t-67.5 46t-45 69t-16.5 82zM401 1309q0 -47 34 -80t81 -33q45 0 78 33t33 80t-33 78.5t-78 31.5q-47 0 -81 -31.5
t-34 -78.5z" />
    <glyph glyph-name="ogonek" unicode="&#x2db;" horiz-adv-x="1081" 
d="M377 2h106l252 -405h-139z" />
    <glyph glyph-name="tilde" unicode="&#x2dc;" horiz-adv-x="1036" 
d="M213 1196q35 55 75 84t103 29q45 0 76 -17.5t56.5 -38t51 -38t62.5 -17.5q39 0 63.5 21.5t42.5 54.5l72 -66q-37 -51 -76 -81.5t-100 -30.5q-45 0 -74.5 17t-56.5 37.5t-53.5 38t-63.5 17.5q-39 0 -63.5 -22.5t-44.5 -50.5z" />
    <glyph glyph-name="hungarumlaut" unicode="&#x2dd;" horiz-adv-x="929" 
d="M260 1122l154 303h135l-201 -303h-88zM518 1122l156 303h133l-201 -303h-88z" />
    <glyph glyph-name="Delta" unicode="&#x394;" horiz-adv-x="1198" 
d="M41 0l559 1409l561 -1409h-1120zM188 98h824l-412 1047z" />
    <glyph glyph-name="Omega" unicode="&#x3a9;" horiz-adv-x="1304" 
d="M109 721q0 133 28.5 261t93 228.5t168 162t252.5 61.5q150 0 254.5 -61.5t169 -162t93 -228.5t28.5 -261q0 -78 -11 -161t-40 -165t-78 -157.5t-125 -139.5h211l18 -98h-374v96q86 53 142 121t89 147.5t46 169t13 187.5t-19 205.5t-69.5 196.5t-134.5 146.5t-213 57.5
t-213 -57.5t-133 -146.5t-68.5 -196.5t-19.5 -205.5t13.5 -187.5t46 -169t89 -147t142.5 -121.5v-96h-373l17 98h208q-74 63 -123 139t-77.5 158t-39.5 165t-11 161z" />
    <glyph glyph-name="mu" unicode="&#x3bc;" horiz-adv-x="1093" 
d="M152 -399v1388h108v-561q0 -74 13.5 -135.5t46 -106.5t89 -69.5t144.5 -24.5q45 0 94 15.5t89 44t66.5 70.5t26.5 95v672h109v-989h-109v115q-66 -72 -137 -100.5t-139 -28.5q-84 0 -162 29.5t-131 121.5v-536h-108z" />
    <glyph glyph-name="pi" unicode="&#x3c0;" horiz-adv-x="1116" 
d="M137 0v989h746v-751q0 -78 29.5 -105t109.5 -29v-104h-43q-104 0 -153.5 61.5t-49.5 169.5v656h-532v-887h-107z" />
    <glyph glyph-name="Wgrave" unicode="&#x1e80;" horiz-adv-x="1634" 
d="M53 1430h131l279 -1217l295 1217h119l292 -1217l281 1217h131l-334 -1430h-145l-285 1190l-285 -1190h-145zM543 1855h149l172 -309h-106z" />
    <glyph glyph-name="wgrave" unicode="&#x1e81;" horiz-adv-x="1521" 
d="M43 989h129l244 -821l286 821h113l285 -823l250 823h127l-314 -989h-119l-286 807l-283 -807h-121zM489 1403h148l174 -309h-109z" />
    <glyph glyph-name="Wacute" unicode="&#x1e82;" horiz-adv-x="1634" 
d="M53 1430h131l279 -1217l295 1217h119l292 -1217l281 1217h131l-334 -1430h-145l-285 1190l-285 -1190h-145zM768 1546l174 309h148l-213 -309h-109z" />
    <glyph glyph-name="wacute" unicode="&#x1e83;" horiz-adv-x="1521" 
d="M43 989h129l244 -821l286 821h113l285 -823l250 823h127l-314 -989h-119l-286 807l-283 -807h-121zM702 1094l175 309h147l-213 -309h-109z" />
    <glyph glyph-name="Wdieresis" unicode="&#x1e84;" horiz-adv-x="1634" 
d="M53 1430h131l279 -1217l295 1217h119l292 -1217l281 1217h131l-334 -1430h-145l-285 1190l-285 -1190h-145zM537 1653q0 39 25.5 65.5t64.5 26.5t65.5 -26.5t26.5 -65.5t-26.5 -64.5t-65.5 -25.5t-64.5 25.5t-25.5 64.5zM913 1653q0 39 28 65.5t67 26.5q37 0 63.5 -26.5
t26.5 -65.5t-27 -64.5t-63 -25.5q-39 0 -67 25.5t-28 64.5z" />
    <glyph glyph-name="wdieresis" unicode="&#x1e85;" horiz-adv-x="1521" 
d="M43 989h129l244 -821l286 821h113l285 -823l250 823h127l-314 -989h-119l-286 807l-283 -807h-121zM479 1200q0 39 26.5 65.5t65.5 26.5q37 0 65 -26.5t28 -65.5t-28 -64.5t-65 -25.5q-39 0 -65.5 25.5t-26.5 64.5zM858 1200q0 39 26.5 65.5t65.5 26.5t64.5 -26.5
t25.5 -65.5t-25.5 -64.5t-64.5 -25.5t-65.5 25.5t-26.5 64.5z" />
    <glyph glyph-name="Ygrave" unicode="&#x1ef2;" horiz-adv-x="1179" 
d="M53 1430h144l395 -812l395 812h141l-473 -957v-473h-129v473zM430 1855h148l174 -309h-107z" />
    <glyph glyph-name="ygrave" unicode="&#x1ef3;" horiz-adv-x="964" 
d="M47 989h127l307 -839l307 839h130l-469 -1239q-41 -111 -116 -157t-186 -46h-26v107h24q86 0 129 36t66 99l78 205zM322 1403h147l174 -309h-108z" />
    <glyph glyph-name="uni2000" unicode="&#x2000;" horiz-adv-x="1045" 
 />
    <glyph glyph-name="uni2001" unicode="&#x2001;" horiz-adv-x="2091" 
 />
    <glyph glyph-name="uni2002" unicode="&#x2002;" horiz-adv-x="1045" 
 />
    <glyph glyph-name="uni2003" unicode="&#x2003;" horiz-adv-x="2091" 
 />
    <glyph glyph-name="uni2004" unicode="&#x2004;" horiz-adv-x="697" 
 />
    <glyph glyph-name="uni2005" unicode="&#x2005;" horiz-adv-x="522" 
 />
    <glyph glyph-name="uni2006" unicode="&#x2006;" horiz-adv-x="348" 
 />
    <glyph glyph-name="uni2007" unicode="&#x2007;" horiz-adv-x="348" 
 />
    <glyph glyph-name="uni2008" unicode="&#x2008;" horiz-adv-x="261" 
 />
    <glyph glyph-name="uni2009" unicode="&#x2009;" horiz-adv-x="418" 
 />
    <glyph glyph-name="uni200A" unicode="&#x200a;" horiz-adv-x="116" 
 />
    <glyph glyph-name="uni2010" unicode="&#x2010;" horiz-adv-x="811" 
d="M131 506v104h551v-104h-551z" />
    <glyph glyph-name="uni2011" unicode="&#x2011;" horiz-adv-x="811" 
d="M131 506v104h551v-104h-551z" />
    <glyph glyph-name="figuredash" unicode="&#x2012;" horiz-adv-x="811" 
d="M131 506v104h551v-104h-551z" />
    <glyph glyph-name="endash" unicode="&#x2013;" horiz-adv-x="1081" 
d="M117 506v104h848v-104h-848z" />
    <glyph glyph-name="emdash" unicode="&#x2014;" horiz-adv-x="1617" 
d="M117 506v104h1386v-104h-1386z" />
    <glyph glyph-name="quoteleft" unicode="&#x2018;" horiz-adv-x="491" 
d="M166 1182l14 96l131 221h35l-12 -317q-2 -35 -25.5 -59.5t-58.5 -24.5t-61.5 24.5t-22.5 59.5z" />
    <glyph glyph-name="quoteright" unicode="&#x2019;" horiz-adv-x="491" 
d="M150 1112l10 315q0 35 24.5 59.5t57.5 24.5q35 0 62.5 -24.5t23.5 -59.5l-13 -96l-133 -221z" />
    <glyph glyph-name="quotesinglbase" unicode="&#x201a;" horiz-adv-x="491" 
d="M160 -201l10 314q0 37 24.5 61.5t57.5 24.5q35 0 62.5 -24.5t23.5 -59.5l-12 -97l-131 -219h-35z" />
    <glyph glyph-name="quotedblleft" unicode="&#x201c;" horiz-adv-x="788" 
d="M131 1182l14 96l131 221h35l-12 -317q-2 -35 -25.5 -59.5t-58.5 -24.5t-61.5 24.5t-22.5 59.5zM461 1182l12 96l133 221h33l-10 -317q-2 -35 -26.5 -59.5t-59.5 -24.5t-60.5 24.5t-21.5 59.5z" />
    <glyph glyph-name="quotedblright" unicode="&#x201d;" horiz-adv-x="788" 
d="M147 1098l11 317q2 35 26.5 59.5t59.5 24.5t60.5 -24.5t21.5 -59.5l-13 -96l-133 -221h-33zM475 1098l12 317q2 35 26 59.5t58 24.5q35 0 61.5 -24.5t22.5 -59.5l-14 -96l-131 -221h-35z" />
    <glyph glyph-name="quotedblbase" unicode="&#x201e;" horiz-adv-x="788" 
d="M156 -231l10 317q2 35 26.5 59.5t59.5 24.5t60.5 -24.5t21.5 -59.5l-12 -96l-134 -221h-32zM483 -231l13 317q2 35 25.5 59.5t58.5 24.5t61.5 -24.5t22.5 -59.5l-15 -96l-131 -221h-35z" />
    <glyph glyph-name="dagger" unicode="&#x2020;" horiz-adv-x="1079" 
d="M139 924v104h350v402h103v-402h348v-104h-348v-924h-103v924h-350z" />
    <glyph glyph-name="daggerdbl" unicode="&#x2021;" horiz-adv-x="1085" 
d="M139 37v104h350v736h-350v104h350v449h103v-449h348v-104h-348v-736h348v-104h-348v-449h-103v449h-350z" />
    <glyph glyph-name="bullet" unicode="&#x2022;" horiz-adv-x="944" 
d="M156 690q0 66 25.5 123t68.5 100t100.5 68t122.5 25q66 0 123 -25t100 -68t67.5 -100t24.5 -123t-24.5 -124t-67.5 -101t-100 -67.5t-123 -24.5t-123 24.5t-100 67.5t-68.5 101.5t-25.5 123.5z" />
    <glyph glyph-name="ellipsis" unicode="&#x2026;" horiz-adv-x="1165" 
d="M147 82q0 41 30 70.5t71 29.5q43 0 71.5 -29.5t28.5 -70.5t-28.5 -70.5t-71.5 -29.5q-41 0 -71 29.5t-30 70.5zM483 82q0 41 30 70.5t71 29.5t70.5 -29.5t29.5 -70.5t-29.5 -70.5t-70.5 -29.5t-71 29.5t-30 70.5zM819 82q0 41 30 70.5t71 29.5t70.5 -29.5t29.5 -70.5
t-29.5 -70.5t-70.5 -29.5t-71 29.5t-30 70.5z" />
    <glyph glyph-name="uni202F" unicode="&#x202f;" horiz-adv-x="418" 
 />
    <glyph glyph-name="perthousand" unicode="&#x2030;" horiz-adv-x="1652" 
d="M70 1053q0 76 12 147.5t41 126.5t75 89t113 34q68 0 113 -34t72.5 -89t40 -126.5t12.5 -147.5t-12.5 -147.5t-40 -127t-72.5 -89.5t-113 -34t-113.5 34t-74.5 89.5t-41 127t-12 147.5zM164 1053q0 -45 4 -99.5t19.5 -100.5t45 -77t78.5 -31q47 0 75 31t43 77t20.5 100.5
t5.5 99.5t-5.5 99t-20.5 100t-43 77t-75 31q-49 0 -78.5 -31t-45 -77t-19.5 -100t-4 -99zM330 0l497 1430h109l-498 -1430h-108zM719 377q0 74 12 145.5t40 128t74 90t113 33.5q76 0 122 -41t71 -112q27 66 74 109.5t118 43.5q68 0 113 -33.5t74 -90t41 -128t12 -145.5
t-12 -145.5t-41 -128t-74 -90t-113 -33.5q-76 0 -121.5 40.5t-70.5 112.5q-29 -66 -75 -109.5t-118 -43.5q-68 0 -113.5 33.5t-73.5 90t-40 128t-12 145.5zM813 377q0 -45 4 -99.5t19.5 -100.5t44 -76.5t77.5 -30.5q47 0 76 29.5t44.5 74.5t20.5 99.5t5 103.5t-5 103.5
t-20.5 99.5t-44 74.5t-76.5 29.5q-49 0 -77.5 -30.5t-44 -77t-19.5 -100.5t-4 -99zM1198 377q0 -49 5 -103.5t20.5 -99.5t44 -74.5t75.5 -29.5q49 0 78 30.5t44.5 76.5t19.5 100.5t4 99.5t-4 99t-19.5 100.5t-44 77t-78.5 30.5q-47 0 -75.5 -29.5t-44 -74.5t-20.5 -99.5
t-5 -103.5z" />
    <glyph glyph-name="guilsinglleft" unicode="&#x2039;" horiz-adv-x="647" 
d="M102 473v98l430 398q-2 -10 -2 -34v-46v-60l-337 -307l337 -307v-139z" />
    <glyph glyph-name="guilsinglright" unicode="&#x203a;" horiz-adv-x="647" 
d="M102 76v139l336 307l-336 307v140l430 -398v-98z" />
    <glyph glyph-name="fraction" unicode="&#x2044;" horiz-adv-x="319" 
d="M-215 -2l649 1434h101l-650 -1434h-100z" />
    <glyph glyph-name="uni205F" unicode="&#x205f;" horiz-adv-x="522" 
 />
    <glyph glyph-name="colonmonetary" unicode="&#x20a1;" horiz-adv-x="1150" 
d="M100 715q0 123 20.5 237.5t66.5 209.5t121 165t181 98v160h84v-141q16 2 34 3t34 1t31.5 -1t32.5 -3v141h83v-158q78 -23 140.5 -71.5t122.5 -122.5l-90 -90q-68 86 -140.5 132t-179.5 46q-123 0 -203 -55.5t-126 -142.5t-63.5 -194.5t-17.5 -213.5t17.5 -214t63.5 -195
t126 -142t203 -55q109 0 181.5 49t140.5 135l92 -90q-63 -78 -125 -128t-142 -73v-158h-83v142q-16 -2 -32 -3t-32 -1q-37 0 -68 6v-144h-84v160q-106 29 -181 98.5t-121 164.5t-66.5 210t-20.5 238z" />
    <glyph glyph-name="franc" unicode="&#x20a3;" horiz-adv-x="991" 
d="M0 393v101h152v936h757v-125h-630v-506h548v-117h-548v-188h272v-101h-272v-393h-127v393h-152z" />
    <glyph glyph-name="lira" unicode="&#x20a4;" horiz-adv-x="1071" 
d="M92 543l19 84h149q-6 29 -12 56.5t-12 55.5h-144l19 86h104q-10 49 -17.5 98.5t-7.5 100.5q0 88 26 165t76 132t122.5 87t167.5 32q68 0 120 -11.5t95 -33t82 -55t79 -78.5l-92 -76q-59 66 -121.5 102.5t-162.5 36.5q-72 0 -122 -24.5t-83 -66.5t-48.5 -97.5
t-15.5 -116.5q0 -94 23 -195h280l-16 -86h-248q6 -29 13.5 -56.5t11.5 -55.5h239l-16 -84h-209q4 -29 6 -55.5t2 -55.5q0 -143 -75 -315h641v-117h-793v98q41 78 70.5 156t33.5 164q2 31 1 62.5t-5 62.5h-180z" />
    <glyph glyph-name="peseta" unicode="&#x20a7;" horiz-adv-x="1087" 
d="M20 989v88h132v353h391q96 0 179 -18.5t145.5 -60.5t100.5 -109.5t44 -164.5h114v-88h-114q-6 -98 -43 -164.5t-98.5 -108.5t-143.5 -60.5t-180 -18.5h-268v-637h-127v989h-132zM279 756h262q63 0 122.5 10t105.5 35.5t75.5 72t36.5 117.5h-602v-235zM279 1075h600
q-6 72 -36 117t-76 70.5t-104.5 35t-121.5 9.5h-262v-232z" />
    <glyph glyph-name="Euro" unicode="&#x20ac;" horiz-adv-x="1288" 
d="M100 492l19 96h121q-4 55 -5.5 100t1.5 98h-136l19 95h129q14 119 56 222t111.5 180t169 121t230.5 44q127 0 214 -39t165 -117l-80 -96q-66 63 -134.5 94t-164.5 31q-98 0 -174 -34t-129 -93t-85 -139t-44 -174h491l-18 -95h-489q-2 -78 -1 -119.5t5 -78.5h503l-18 -96
h-469q39 -172 146.5 -277.5t281.5 -105.5q98 0 167 32.5t134 96.5l82 -95q-41 -41 -81 -71.5t-85 -51t-98 -29.5t-119 -9q-115 0 -209 36.5t-164.5 103t-119 161t-68.5 209.5h-154z" />
    <glyph glyph-name="trademark" unicode="&#x2122;" horiz-adv-x="983" 
d="M90 1374v56h322v-56h-133v-375h-54v375h-135zM473 999v431h55l142 -359l141 359h57v-431h-55v306l-119 -306h-49l-119 306v-306h-53z" />
    <glyph glyph-name="partialdiff" unicode="&#x2202;" horiz-adv-x="1067" 
d="M109 424q0 86 26.5 164t78.5 136t126 93t170 35q74 0 152.5 -37t152.5 -129q-6 47 -15 112.5t-26.5 136.5t-43 141.5t-61.5 125.5t-83 90t-107 35q-68 0 -124 -36t-97 -81l-78 78q59 66 135 109t164 43q100 0 172 -56.5t123 -145.5t82 -201.5t47.5 -226.5t22.5 -217
t6 -173q0 -86 -31 -165t-86 -137.5t-131 -93t-166 -34.5t-164.5 32.5t-129 91t-85 138.5t-30.5 172zM219 424q0 -68 21.5 -127t61.5 -103t96.5 -71t123.5 -27q70 0 125 28t94 74t59.5 105.5t20.5 120.5t-22.5 118.5t-63.5 102.5t-98 71.5t-125 26.5q-72 0 -126 -27.5
t-91 -72.5t-56.5 -102.5t-19.5 -116.5z" />
    <glyph glyph-name="product" unicode="&#x220f;" horiz-adv-x="1269" 
d="M174 -401v1908h924v-1908h-107v1804h-710v-1804h-107z" />
    <glyph glyph-name="summation" unicode="&#x2211;" horiz-adv-x="1073" 
d="M119 -346l547 838l-547 837v101h837v-105h-708l547 -833l-547 -834h708v-104h-837v100z" />
    <glyph glyph-name="radical" unicode="&#x221a;" horiz-adv-x="1282" 
d="M106 979h111l338 -834l377 1278h280v-102h-202l-398 -1321h-108z" />
    <glyph glyph-name="infinity" unicode="&#x221e;" horiz-adv-x="1583" 
d="M96 549q0 59 22.5 108.5t60.5 84t89 53t107 18.5q53 0 107.5 -18.5t107.5 -48t104 -68.5t99 -80q45 41 96 80t103 68.5t106.5 48t107.5 18.5q127 0 204 -84t77 -215q0 -59 -22.5 -108.5t-61.5 -84t-90 -54t-107 -19.5q-53 0 -107.5 18.5t-106.5 49t-103 68.5t-96 79
q-47 -41 -98.5 -79t-104.5 -68.5t-107.5 -49t-107.5 -18.5q-61 0 -112.5 22.5t-88.5 62.5t-57.5 95t-20.5 121zM201 545q0 -84 47 -138.5t127 -54.5q43 0 87 16.5t87 43t83 57t77 61.5q-37 31 -77 62t-83 57.5t-87 43t-87 16.5q-68 0 -121 -42t-53 -122zM877 530
q35 -31 74.5 -61.5t82.5 -57t86 -43t86 -16.5q70 0 122 42t52 124t-47 136.5t-127 54.5q-43 0 -86 -16.5t-86 -43t-83 -57.5t-74 -62z" />
    <glyph glyph-name="integral" unicode="&#x222b;" horiz-adv-x="665" 
d="M72 -295h86q72 2 96.5 35t24.5 92v1368q0 102 52 166t163 64h100v-103h-88q-66 0 -92.5 -36t-26.5 -91v-1368q0 -104 -52 -167.5t-163 -63.5h-100v104z" />
    <glyph glyph-name="approxequal" unicode="&#x2248;" horiz-adv-x="1032" 
d="M98 387q47 53 95.5 81t123.5 28q57 0 106.5 -16.5t97.5 -36t97.5 -36t104.5 -16.5q47 0 79 16.5t58 47.5l76 -64q-49 -51 -97 -77.5t-122 -26.5q-55 0 -105.5 16t-98.5 36.5t-97 37t-107 16.5q-49 0 -80.5 -20.5t-60.5 -48.5zM98 723q47 53 95.5 79.5t123.5 26.5
q57 0 106.5 -16t97.5 -34.5t97.5 -35t104.5 -16.5q47 0 79 16.5t58 47.5l76 -64q-49 -51 -97 -77.5t-122 -26.5q-55 0 -105.5 16t-98.5 35.5t-97 36t-107 16.5q-49 0 -80.5 -19.5t-60.5 -48.5z" />
    <glyph glyph-name="notequal" unicode="&#x2260;" horiz-adv-x="1071" 
d="M117 274v111h327l101 281h-428v108h469l76 211l75 -27l-67 -184h286v-108h-325l-103 -281h428v-111h-469l-77 -211l-74 27l67 184h-286z" />
    <glyph glyph-name="lessequal" unicode="&#x2264;" horiz-adv-x="995" 
d="M115 0v106h766v-106h-766zM115 526v115l766 348v-115l-637 -288l637 -291v-115z" />
    <glyph glyph-name="greaterequal" unicode="&#x2265;" horiz-adv-x="995" 
d="M115 0v106h766v-106h-766zM115 180v115l637 291l-637 288v115l766 -348v-115z" />
    <glyph glyph-name="lozenge" unicode="&#x25ca;" horiz-adv-x="1132" 
d="M129 707l438 700l434 -700l-434 -703zM242 707l325 -521l324 521l-324 518z" />
    <glyph glyph-name="uniE000" unicode="&#xe000;" horiz-adv-x="993" 
d="M0 0v993h993v-993h-993z" />
    <glyph glyph-name="uniFB01" unicode="&#xfb01;" horiz-adv-x="1064" 
d="M102 883v106h105v78q0 72 16.5 135.5t56 111.5t109.5 78.5t176 37.5v-103q-137 -10 -189 -79.5t-52 -205.5v-53h573v-989h-119v883h-454v-883h-117v883h-105zM745 1354q0 39 27 65.5t68 26.5q39 0 66.5 -26.5t27.5 -65.5t-27.5 -66.5t-66.5 -27.5q-41 0 -68 27.5
t-27 66.5z" />
    </font>
</defs>
</svg>
